<svg width="166" height="40" viewBox="0 0 166 40" fill="none" xmlns="http://www.w3.org/2000/svg">
<g clip-path="url(#clip0_682_42)">
<path d="M98.3919 15.7832C100.963 15.7832 103.397 17.3558 103.911 20.7538H92.4619C92.9411 17.7721 95.1701 15.7832 98.3919 15.7832ZM103.545 25.7811C102.671 27.1441 100.981 28.1925 98.6666 28.1925C95.4783 28.1925 93.0438 26.4447 92.4619 23.3592H106.826C106.895 22.917 106.93 22.4701 106.93 22.0224C106.93 17.2237 103.575 12.9723 98.394 12.9723C93.047 12.9723 89.4131 16.9144 89.4131 21.9889C89.4131 27.1262 93.0826 31.0055 98.5995 31.0055C102.028 31.0055 104.633 29.4622 106.141 27.1262L103.545 25.7811Z" fill="#006BFF"/>
<path d="M88.0018 5.53366H85.02V30.5588H88.0018V5.53366Z" fill="#006BFF"/>
<path d="M123.522 20.0346V30.5578H120.539V20.2055C120.539 17.3946 118.929 15.8178 116.289 15.8178C113.546 15.8178 111.318 17.4292 111.318 21.4741V30.5578H108.335V13.42H111.318V15.888C112.587 13.8656 114.472 12.9744 116.875 12.9744C120.885 12.9744 123.525 15.6479 123.525 20.0367" fill="#006BFF"/>
<path d="M139.966 21.9878C139.966 18.4913 137.327 15.8513 133.865 15.8513C130.436 15.8513 127.797 18.4913 127.797 21.9878C127.797 25.4844 130.436 28.1243 133.865 28.1243C137.324 28.1243 139.966 25.4844 139.966 21.9878ZM142.948 5.53366V30.5588H139.966V27.6096C138.595 29.7064 136.402 31.0044 133.487 31.0044C128.722 31.0044 124.814 27.0612 124.814 21.9878C124.814 16.9144 128.722 12.9713 133.487 12.9713C136.401 12.9713 138.595 14.2734 139.966 16.3651V5.53366H142.948Z" fill="#006BFF"/>
<path d="M148.335 5.53366H145.354V30.5588H148.335V5.53366Z" fill="#006BFF"/>
<path d="M79.7048 21.9878C79.7048 18.4913 77.0658 15.8513 73.6029 15.8513C70.1755 15.8513 67.5355 18.4913 67.5355 21.9878C67.5355 25.4844 70.1755 28.1243 73.6029 28.1243C77.0627 28.1243 79.7048 25.4844 79.7048 21.9878ZM82.6876 13.42V30.5578H79.7048V27.6096C78.3334 29.7064 76.1401 31.0044 73.2265 31.0044C68.4613 31.0044 64.5527 27.0612 64.5527 21.9878C64.5527 16.9144 68.4613 12.9713 73.2265 12.9713C76.1401 12.9713 78.3334 14.2734 79.7048 16.3651V13.42H82.6876Z" fill="#006BFF"/>
<path d="M60.1292 27.2594C58.6025 27.8227 56.9546 27.9748 55.3507 27.7004C53.7468 27.426 52.2431 26.7348 50.9906 25.696C49.7381 24.6572 48.7806 23.3074 48.2143 21.7818C47.648 20.2563 47.4927 18.6087 47.7639 17.0042C48.0352 15.3998 48.7235 13.8948 49.7599 12.6402C50.7962 11.3857 52.1441 10.4256 53.6686 9.85628C55.193 9.28698 56.8403 9.12844 58.4453 9.39656C60.0503 9.66469 61.5566 10.3501 62.8132 11.3839C63.3371 11.8163 63.8112 12.3058 64.2265 12.8434L66.8067 10.9562C65.3035 8.99108 63.2507 7.5165 60.9085 6.71935C58.5664 5.92219 56.0403 5.83835 53.6504 6.47846C51.2605 7.11856 49.1145 8.45378 47.4843 10.3149C45.8542 12.176 44.8132 14.4792 44.4935 16.9325C44.1737 19.3859 44.5895 21.8789 45.6882 24.0957C46.7869 26.3125 48.519 28.1532 50.665 29.3844C52.811 30.6157 55.2742 31.1821 57.7424 31.0119C60.2107 30.8417 62.5728 29.9426 64.5295 28.4284L62.8121 25.7129C62.0098 26.3737 61.1031 26.8964 60.1292 27.2594Z" fill="#006BFF"/>
<path d="M162.73 13.42V23.1474C162.73 26.2927 160.901 28.2848 158.108 28.2848C155.315 28.2848 153.292 26.2927 153.292 23.1474V13.42H150.275V22.8559C150.275 27.8004 153.356 31.0107 158.108 31.0107C162.218 31.0107 162.859 28.4106 162.859 28.3456V31.8453C162.859 35.3124 161.351 37.2709 158.204 37.2709C157.08 37.2765 155.993 36.8733 155.144 36.1364C154.295 35.3996 153.743 34.3794 153.591 33.2659L150.893 34.2095C151.28 35.8592 152.213 37.3295 153.541 38.381C154.87 39.4325 156.515 40.0031 158.209 40C163.089 40 165.758 36.7886 165.758 31.8453V13.42H162.73Z" fill="#006BFF"/>
<path d="M24.2799 23.4043C23.134 24.4213 21.7028 25.6867 19.108 25.6867H17.5563C15.6785 25.6867 13.9706 25.0042 12.7481 23.767C11.554 22.5582 10.8966 20.9038 10.8966 19.1078V16.9847C10.8966 15.1887 11.554 13.5343 12.7481 12.3254C13.9706 11.0883 15.6785 10.4068 17.5563 10.4068H19.108C21.706 10.4068 23.134 11.6712 24.2799 12.6882C25.4699 13.7366 26.4963 14.653 29.2338 14.653C29.6513 14.6529 30.0681 14.6196 30.4804 14.5534L30.4709 14.5293C30.307 14.1221 30.1146 13.7269 29.8953 13.3466L28.0658 10.1772C27.2408 8.7484 26.0542 7.56196 24.6253 6.7371C23.1964 5.91224 21.5756 5.47802 19.9257 5.47809H16.2656C14.6158 5.47802 12.9949 5.91224 11.5661 6.7371C10.1372 7.56196 8.9506 8.7484 8.12557 10.1772L6.29605 13.3466C5.47129 14.7755 5.03711 16.3964 5.03711 18.0462C5.03711 19.6961 5.47129 21.3169 6.29605 22.7459L8.12557 25.9153C8.9506 27.3441 10.1372 28.5305 11.5661 29.3554C12.9949 30.1802 14.6158 30.6145 16.2656 30.6144H19.9257C21.5756 30.6145 23.1964 30.1802 24.6253 29.3554C26.0542 28.5305 27.2408 27.3441 28.0658 25.9153L29.8953 22.7511C30.1146 22.3708 30.307 21.9756 30.4709 21.5685L30.4804 21.5454C30.0683 21.477 29.6514 21.4419 29.2338 21.4406C26.4963 21.4406 25.4699 22.3516 24.2799 23.4053" fill="#006BFF"/>
<path d="M19.1078 12.3307H17.5561C14.6981 12.3307 12.8203 14.372 12.8203 16.9847V19.1078C12.8203 21.7205 14.6981 23.7618 17.5561 23.7618H19.1078C23.2722 23.7618 22.9451 19.5156 29.2336 19.5156C29.8294 19.515 30.424 19.5697 31.0097 19.6792C31.2005 18.5989 31.2005 17.4936 31.0097 16.4133C30.4239 16.5222 29.8294 16.577 29.2336 16.5769C22.943 16.5769 23.2722 12.3307 19.1078 12.3307Z" fill="#006BFF"/>
<path d="M34.6227 21.2309C33.5518 20.4465 32.3168 19.9156 31.0108 19.6781C31.0108 19.6897 31.0108 19.6991 31.0108 19.7096C30.8984 20.3356 30.7228 20.9486 30.4866 21.5391C31.5654 21.7062 32.589 22.1277 33.4726 22.7689C33.4726 22.7773 33.4673 22.7878 33.4642 22.7972C32.327 26.4795 29.9067 29.6318 26.643 31.6814C23.3792 33.731 19.4886 34.5419 15.6778 33.9669C11.8671 33.3918 8.38895 31.469 5.87534 28.5476C3.36173 25.6262 1.97936 21.9002 1.97936 18.0462C1.97936 14.1923 3.36173 10.4662 5.87534 7.54488C8.38895 4.62351 11.8671 2.70065 15.6778 2.12561C19.4886 1.55058 23.3792 2.3615 26.643 4.41108C29.9067 6.46066 32.327 9.61293 33.4642 13.2952C33.4642 13.3047 33.4694 13.3152 33.4726 13.3235C32.5891 13.9648 31.5655 14.3861 30.4866 14.5523C30.7225 15.1437 30.8981 15.7573 31.0108 16.3839C31.0102 16.3937 31.0102 16.4035 31.0108 16.4133C32.3167 16.1762 33.5518 15.6456 34.6227 14.8616C35.6523 14.0994 35.4531 13.2386 35.2968 12.7291C34.0239 8.60045 31.3121 5.06549 27.6541 2.76654C23.9961 0.467586 19.6348 -0.442779 15.3626 0.20087C11.0904 0.844518 7.19085 2.99946 4.3726 6.27412C1.55435 9.54878 0.00439453 13.7258 0.00439453 18.0462C0.00439453 22.3666 1.55435 26.5437 4.3726 29.8184C7.19085 33.093 11.0904 35.248 15.3626 35.8916C19.6348 36.5352 23.9961 35.6249 27.6541 33.3259C31.3121 31.027 34.0239 27.492 35.2968 23.3634C35.4531 22.8538 35.6523 21.9931 34.6227 21.2309Z" fill="#006BFF"/>
<path d="M30.4803 14.5523C30.0682 14.6208 29.6513 14.6558 29.2337 14.6572C26.4962 14.6572 25.4698 13.7461 24.2808 12.6924C23.1339 11.6754 21.7059 10.4099 19.1079 10.4099H17.5562C15.6774 10.4099 13.9705 11.0925 12.748 12.3296C11.5539 13.5385 10.8965 15.1929 10.8965 16.9889V19.112C10.8965 20.9079 11.5539 22.5624 12.748 23.7712C13.9705 25.0084 15.6774 25.6899 17.5562 25.6899H19.1079C21.7059 25.6899 23.1339 24.4255 24.2808 23.4085C25.4698 22.36 26.4962 21.4437 29.2337 21.4437C29.6512 21.4438 30.068 21.4771 30.4803 21.5433C30.7169 20.9529 30.8925 20.3399 31.0045 19.7138C31.0051 19.7033 31.0051 19.6928 31.0045 19.6823C30.4187 19.5737 29.8242 19.5193 29.2284 19.5198C22.9378 19.5198 23.267 23.767 19.1026 23.767H17.5509C14.6929 23.767 12.8151 21.7247 12.8151 19.112V16.9847C12.8151 14.372 14.6929 12.3307 17.5509 12.3307H19.1026C23.267 12.3307 22.9399 16.5758 29.2284 16.5758C29.8242 16.5768 30.4188 16.5224 31.0045 16.4133C31.0045 16.4039 31.0045 16.3944 31.0045 16.3839C30.8918 15.7573 30.7161 15.1437 30.4803 14.5523Z" fill="#0AE8F0"/>
<path d="M30.4803 14.5523C30.0682 14.6208 29.6513 14.6558 29.2337 14.6572C26.4962 14.6572 25.4698 13.7461 24.2808 12.6924C23.1339 11.6754 21.7059 10.4099 19.1079 10.4099H17.5562C15.6774 10.4099 13.9705 11.0925 12.748 12.3296C11.5539 13.5385 10.8965 15.1929 10.8965 16.9889V19.112C10.8965 20.9079 11.5539 22.5624 12.748 23.7712C13.9705 25.0084 15.6774 25.6899 17.5562 25.6899H19.1079C21.7059 25.6899 23.1339 24.4255 24.2808 23.4085C25.4698 22.36 26.4962 21.4437 29.2337 21.4437C29.6512 21.4438 30.068 21.4771 30.4803 21.5433C30.7169 20.9529 30.8925 20.3399 31.0045 19.7138C31.0051 19.7033 31.0051 19.6928 31.0045 19.6823C30.4187 19.5737 29.8242 19.5193 29.2284 19.5198C22.9378 19.5198 23.267 23.767 19.1026 23.767H17.5509C14.6929 23.767 12.8151 21.7247 12.8151 19.112V16.9847C12.8151 14.372 14.6929 12.3307 17.5509 12.3307H19.1026C23.267 12.3307 22.9399 16.5758 29.2284 16.5758C29.8242 16.5768 30.4188 16.5224 31.0045 16.4133C31.0045 16.4039 31.0045 16.3944 31.0045 16.3839C30.8918 15.7573 30.7161 15.1437 30.4803 14.5523Z" fill="#0AE8F0"/>
</g>
<defs>
<clipPath id="clip0_682_42">
<rect width="165.749" height="40" fill="white"/>
</clipPath>
</defs>
</svg>
