<svg width="161" height="34" viewBox="0 0 161 34" fill="none" xmlns="http://www.w3.org/2000/svg">
<path d="M83.1975 11.5906C87.2911 11.5906 89.6838 14.7422 89.6838 18.6588C89.6838 22.5844 87.2911 25.7269 83.1975 25.7269C81.2083 25.7269 79.7574 24.8976 79.027 23.9761V29.9858H75.2025V11.9039H78.7291V13.5535C79.6132 12.3186 81.2083 11.5906 83.1975 11.5906ZM49.8685 7.78671C55.1597 7.78671 57.8396 11.3268 58.3205 14.4036H54.2526C53.7717 12.5509 52.033 11.2606 49.8342 11.2606C46.9137 11.2606 44.8109 13.5434 44.8109 16.7857C44.8109 19.9949 46.9137 22.2777 49.8342 22.2777C52.033 22.2777 53.7717 20.9874 54.2526 19.1347H58.3205C57.8396 22.2116 55.1597 25.7516 49.8685 25.7516C44.6117 25.7516 40.9697 21.7484 40.9697 16.7857C40.9697 11.7899 44.6117 7.78671 49.8685 7.78671ZM65.5274 11.5906C67.5166 11.5906 69.1021 12.3094 69.9958 13.5535V11.9039H73.5224V25.4136H69.9958V23.764C69.1117 24.9989 67.5166 25.7269 65.5274 25.7269C61.4339 25.7269 59.0411 22.5752 59.0411 18.6588C59.0411 14.733 61.4339 11.5906 65.5274 11.5906ZM97.0751 11.5906C99.0642 11.5906 100.65 12.3094 101.543 13.5535V11.9039H105.07V25.4136H101.543V23.764C100.659 24.9989 99.0642 25.7269 97.0751 25.7269C92.9816 25.7269 90.5889 22.5752 90.5889 18.6588C90.5889 14.733 92.9816 11.5906 97.0751 11.5906ZM113.227 11.5906C117.609 11.5906 119.684 14.558 119.953 16.8526H116.023C115.725 15.6914 114.601 14.8436 113.198 14.8436C111.151 14.8436 109.969 16.3918 109.969 18.6588C109.969 20.9258 111.151 22.4739 113.198 22.4739C114.601 22.4739 115.725 21.6261 116.023 20.465H119.953C119.684 22.7596 117.609 25.7269 113.227 25.7269C109.133 25.7269 106.154 22.6858 106.154 18.6588C106.154 14.6317 109.133 11.5906 113.227 11.5906ZM139.716 11.5906C144.232 11.5906 147.115 14.816 147.115 18.6588C147.115 22.5016 144.232 25.7269 139.716 25.7269C135.2 25.7269 132.317 22.5016 132.317 18.6588C132.317 14.816 135.2 11.5906 139.716 11.5906ZM155.511 11.7659C155.644 11.7659 155.968 11.7935 155.968 11.7935V15.2308C155.968 15.2308 155.569 15.1571 155.226 15.1571C153.023 15.1571 151.873 16.2168 151.873 18.6957V25.4321H148.093V11.8949H151.579V13.6458C152.082 12.844 153.147 11.7659 155.511 11.7659ZM130.012 8.54127V11.8956H132.953V14.8814H130.012V25.4237H126.188V8.54127H130.012ZM124.478 11.895V25.4138H120.654V11.895H124.478ZM66.3346 14.816C64.211 14.816 62.8656 16.4656 62.8656 18.6588C62.8656 20.852 64.211 22.5016 66.3346 22.5016C68.4583 22.5016 69.8036 20.852 69.8036 18.6588C69.8132 16.4656 68.4679 14.816 66.3346 14.816ZM82.3902 14.816C80.2666 14.816 78.9212 16.4656 78.9212 18.6588C78.9117 20.852 80.257 22.5016 82.3902 22.5016C84.514 22.5016 85.8592 20.852 85.8592 18.6588C85.8592 16.4656 84.514 14.816 82.3902 14.816ZM97.8823 14.816C95.7586 14.816 94.4134 16.4656 94.4134 18.6588C94.4134 20.852 95.7586 22.5016 97.8823 22.5016C100.006 22.5016 101.351 20.852 101.351 18.6588C101.361 16.4656 100.016 14.816 97.8823 14.816ZM139.716 14.816C137.697 14.816 136.141 16.2351 136.141 18.6588C136.141 21.0824 137.697 22.5016 139.716 22.5016C141.734 22.5016 143.29 21.0824 143.29 18.6588C143.29 16.2351 141.734 14.816 139.716 14.816ZM122.566 6.37502C123.911 6.37502 124.881 7.30577 124.881 8.59591C124.881 9.88606 123.911 10.7892 122.566 10.7892C121.221 10.7892 120.25 9.88606 120.25 8.59591C120.25 7.30577 121.221 6.37502 122.566 6.37502Z" fill="black"/>
<path d="M9.5094 8.82238L5.0676 13.2053L11.9176 19.9763L5.03271 26.7818L9.46062 31.1667L16.3594 24.3593L23.2207 31.118L27.6625 26.735L9.5094 8.82238Z" fill="#53B9FF"/>
<path d="M20.8136 19.9766L16.3599 24.3595L23.2212 31.1183L27.663 26.7353L20.8136 19.9766Z" fill="#119EFF"/>
<path d="M20.8136 19.9766L16.3599 24.3595L18.0743 26.0397L20.8136 19.9766Z" fill="black" fill-opacity="0.2"/>
<path d="M26.8831 14.0099L33.7819 7.20259L29.3382 2.83334L22.4414 9.62701L15.5795 2.86776L11.1377 7.25074L29.2909 25.1634L33.7327 20.7804L26.8831 14.0099Z" fill="#53B9FF"/>
<path d="M17.9877 14.0101L22.4414 9.62718L15.5795 2.86793L11.1377 7.2509L17.9877 14.0101Z" fill="#119EFF"/>
<path d="M17.9878 14.0103L22.4416 9.62736L20.7267 7.94664L17.9878 14.0103Z" fill="black" fill-opacity="0.2"/>
</svg>
