<svg width="166" height="40" viewBox="0 0 166 40" fill="none" xmlns="http://www.w3.org/2000/svg">
<g clip-path="url(#clip0_682_25)">
<path d="M7.63564 0L0 31.889H34.4165L32.4736 40H125.2L127.143 31.889H157.936L165.572 0H7.63564Z" fill="#0F206C"/>
<path d="M9.02652 1.76275L2.23535 30.1262H36.6518L34.709 38.2372H123.812L125.755 30.1262H156.546L163.34 1.76275H9.02652Z" fill="white"/>
<path d="M161.662 3.08555H10.0714L3.90918 28.8034H38.3257L36.3828 36.9144H122.766L124.712 28.8034H155.503L161.662 3.08555Z" fill="#0F206C"/>
<path d="M118.255 29.9284C118.294 29.7512 118.22 29.6568 118.043 29.6568H115.949C115.87 29.6523 115.792 29.6777 115.731 29.7281C115.669 29.7784 115.629 29.8499 115.618 29.9284L115.497 30.4717C115.456 30.6488 115.542 30.705 115.707 30.7433L118.069 31.0652C118.66 31.201 119.108 31.576 118.955 32.2167L118.725 33.259C118.658 33.5792 118.484 33.8669 118.231 34.0739C117.978 34.2808 117.661 34.3945 117.334 34.3958H114.606C113.932 34.3958 113.572 33.9293 113.72 33.259L113.882 32.5209H115.004L114.889 33.0346C114.851 33.2088 114.925 33.3063 115.102 33.3063H117.29C117.369 33.3108 117.447 33.2855 117.509 33.2352C117.571 33.1849 117.612 33.1134 117.623 33.0346L117.759 32.4264C117.797 32.2492 117.715 32.1931 117.549 32.1547L115.187 31.8329C114.597 31.6971 114.148 31.3221 114.302 30.6813L114.52 29.704C114.586 29.3835 114.76 29.0955 115.013 28.8885C115.267 28.6814 115.584 28.568 115.911 28.5672H118.547C119.221 28.5672 119.584 29.0308 119.433 29.704L119.283 30.3772H118.161L118.255 29.9284Z" fill="white"/>
<path d="M103.208 29.6627L102.163 34.3545H101.008L102.054 29.6627H99.9868L100.226 28.5908H105.541L105.302 29.6627H103.208Z" fill="white"/>
<path d="M47.9724 29.9284C48.0138 29.7512 47.937 29.6568 47.7628 29.6568H45.6693C45.5897 29.6515 45.511 29.6766 45.4491 29.727C45.3872 29.7774 45.3467 29.8493 45.3357 29.9284L45.2146 30.4717C45.1762 30.6488 45.2589 30.705 45.4272 30.7433L47.7894 31.0652C48.3799 31.201 48.8287 31.576 48.6752 32.2167L48.4419 33.259C48.3756 33.5792 48.2012 33.8669 47.948 34.0739C47.6948 34.2808 47.3782 34.3945 47.0512 34.3958H44.32C43.6468 34.3958 43.2836 33.9293 43.4342 33.259L43.5995 32.5209H44.7186L44.6064 33.0346C44.565 33.2088 44.6418 33.3063 44.816 33.3063H47.0069C47.0862 33.3101 47.1642 33.2845 47.2258 33.2344C47.2874 33.1842 47.3283 33.1131 47.3406 33.0346L47.4764 32.4264C47.5148 32.2492 47.4291 32.1931 47.2638 32.1547L44.9016 31.8329C44.3111 31.6971 43.8623 31.3221 44.0158 30.6813L44.2314 29.704C44.2972 29.3835 44.4715 29.0955 44.7248 28.8885C44.9781 28.6814 45.295 28.568 45.6221 28.5672H48.2588C48.9321 28.5672 49.2952 29.0308 49.1447 29.704L48.9941 30.3772H47.875L47.9724 29.9284Z" fill="white"/>
<path d="M62.5085 28.5997C63.1817 28.5997 63.5449 29.0633 63.3943 29.7365L63.0695 31.1921C63.0031 31.5128 62.8283 31.8009 62.5745 32.0079C62.3207 32.2149 62.0034 32.3283 61.6759 32.3289H58.9446L58.4899 34.3633H57.3384L58.6228 28.5997H62.5085ZM61.6227 31.2423C61.7027 31.2468 61.7813 31.221 61.8431 31.1702C61.905 31.1193 61.9454 31.047 61.9564 30.9677L62.1808 29.9609C62.2192 29.7837 62.1453 29.6892 61.9682 29.6892H59.5234L59.1779 31.2423H61.6227Z" fill="white"/>
<path d="M76.6723 28.5672C77.3425 28.5672 77.7057 29.0308 77.5581 29.704L76.7667 33.2472C76.7004 33.5674 76.526 33.8551 76.2728 34.0621C76.0196 34.269 75.703 34.3827 75.376 34.384H72.506C71.8328 34.384 71.4726 33.9175 71.6202 33.2472L72.4115 29.704C72.4774 29.3835 72.6516 29.0955 72.9049 28.8885C73.1582 28.6814 73.4751 28.568 73.8023 28.5672H76.6723ZM76.3504 29.9284C76.3918 29.7512 76.3179 29.6568 76.1408 29.6568H73.8465C73.7671 29.6522 73.6887 29.6776 73.627 29.7278C73.5653 29.7781 73.5246 29.8496 73.5129 29.9284L72.822 33.0346C72.7836 33.2088 72.8574 33.3063 73.0346 33.3063H75.3258C75.4053 33.3108 75.4836 33.2855 75.5454 33.2352C75.6071 33.1849 75.6478 33.1134 75.6595 33.0346L76.3504 29.9284Z" fill="white"/>
<path d="M89.6997 34.3633L89.245 32.2256H87.3819L86.9035 34.3633H85.749L87.0364 28.5997H90.9251C91.5983 28.5997 91.9615 29.0633 91.8109 29.7365L91.5156 31.0888C91.4616 31.3476 91.337 31.5863 91.1556 31.7786C90.9743 31.9709 90.7432 32.1093 90.4881 32.1783L90.9605 34.3633H89.6997ZM90.5855 29.9609C90.6239 29.7837 90.5501 29.6892 90.3729 29.6892H87.9429L87.6181 31.1656H90.054C90.1334 31.1694 90.2113 31.1438 90.2729 31.0937C90.3345 31.0435 90.3754 30.9724 90.3877 30.8939L90.5855 29.9609Z" fill="white"/>
<path d="M49.1357 6.85908L48.2558 10.6769H50.4762L49.7558 13.7477H41.9341L43.5729 6.85908H37.2039L36.2709 10.6769H38.4647L35.9874 20.9493H33.8231L32.9019 24.7878H39.2619L41.007 17.6128H48.8286L48.0285 20.9493H45.7608L44.8248 24.7878H51.4093L55.7438 6.85908H49.1357Z" fill="white"/>
<path d="M17.1406 14.0695L17.8433 11.2379C17.9378 10.798 18.1209 10.6474 18.5224 10.6474H26.9848C27.472 10.6474 27.5163 10.795 27.4218 11.2379L27.3539 11.4712L32.1136 10.2163C32.1136 10.2163 32.1313 10.1129 32.1372 10.0627C32.4502 7.86004 31.4729 6.85908 29.096 6.85908H18.4427C15.7233 6.85908 14.2174 8.04016 13.494 10.8865L12.4458 15.3156L17.1406 14.0695Z" fill="white"/>
<path d="M25.4759 19.7712L25.3371 20.3617C25.2131 20.8017 25.0418 20.9522 24.6019 20.9522H16.0391C15.5814 20.9522 15.5342 20.8046 15.6582 20.3617L16.4318 16.9986L12.3335 15.726L11.0904 20.719C10.3729 23.5034 11.2912 24.7878 13.9515 24.7878H24.5487C27.1707 24.7878 28.6825 23.6421 29.4443 21.0142C29.462 20.9463 25.4759 19.7712 25.4759 19.7712Z" fill="white"/>
<path d="M96.3577 15.7378L93.1629 6.85908H86.0706L85.1464 10.668H87.293L84.8157 20.9493H82.6986L81.7715 24.7878H87.8865L90.6591 13.2014L93.5527 21.277H97.0073L103.923 13.1778L102.065 20.9493H99.9482L99.0447 24.7878H105.281L109.589 6.85908H103.923L96.3577 15.7378Z" fill="white"/>
<path d="M128.899 6.85908H113.982L113.07 10.6415H115.264L112.748 20.9493H110.631L109.677 24.7878H116.093L117.543 19.1777H125.973C128.368 19.1777 129.658 18.0557 130.257 15.664L131.439 10.3492C132.02 7.9811 131.193 6.85908 128.899 6.85908ZM127.057 11.1464L126.23 14.849C126.227 14.921 126.208 14.9914 126.176 15.0558C126.144 15.1201 126.098 15.177 126.043 15.2226C125.987 15.2683 125.922 15.3018 125.853 15.3208C125.783 15.3399 125.711 15.3441 125.639 15.3333H118.435L119.483 10.6621H126.714C127.119 10.6621 127.16 10.7655 127.057 11.1464Z" fill="white"/>
<path d="M151.614 6.85908H140.075C137.713 6.85908 136.42 7.95748 135.821 10.3757L135.106 13.3018C134.566 15.5931 135.57 16.3579 137.763 16.8923L147.425 18.0734C147.918 18.2003 147.986 18.3273 147.876 18.785L147.493 20.4532C147.392 20.8105 147.256 20.9375 146.902 20.9375H138.215C137.811 20.9375 137.769 20.8105 137.846 20.4532L137.873 19.9188L133.219 21.1707C132.629 23.5329 133.447 24.7878 135.741 24.7878H147.498C149.861 24.7878 151.18 23.5624 151.756 21.1707L152.533 18.0379C153.1 15.7467 152.043 14.9819 149.875 14.4475L140.196 13.3018C139.677 13.1749 139.606 13.0066 139.718 12.5637L140.102 11.1198C140.179 10.736 140.338 10.6356 140.666 10.6356H149.418C149.769 10.6356 149.837 10.736 149.737 11.1198L149.651 11.5391L154.172 10.3757C154.735 7.9811 153.906 6.85908 151.614 6.85908Z" fill="white"/>
<path d="M65.1334 6.85908L64.1974 10.6651L66.4178 10.6474L58.7083 20.9493H56.5263L55.5962 24.7878H60.3352L64.5458 19.1983H72.6184L73.0761 20.9493H70.9531L70.0112 24.7878H78.2285L74.2335 6.85908H65.1334ZM67.4069 15.3569L70.7818 10.8304L71.8271 15.3569H67.4069Z" fill="white"/>
</g>
<defs>
<clipPath id="clip0_682_25">
<rect width="165.572" height="40" fill="white"/>
</clipPath>
</defs>
</svg>
