<svg width="100" height="40" viewBox="0 0 100 40" fill="none" xmlns="http://www.w3.org/2000/svg">
<path d="M74.2865 11.0906C76.5134 11.0906 78.5714 11.3265 81.0679 11.8325L79.2889 15.58C77.9056 15.3101 79.1782 15.5439 78.1328 15.4427V15.9826L78.2001 18.1751L78.2336 21.0092C78.2673 21.7174 78.2673 22.426 78.3013 23.1344V24.5515C78.3013 29.0048 77.9302 31.0963 76.817 32.8167C75.1976 35.3472 72.3974 36.5953 68.4166 36.5953C66.3924 36.5953 64.6384 36.2917 62.8164 35.5831V30.7927H62.8166C64.6386 31.7372 66.4603 32.1755 68.3831 32.1755C71.7902 32.1755 73.241 30.7927 73.241 27.4863V27.3851C72.229 27.8909 71.2168 28.0935 69.8676 28.0935C65.3131 28.0935 62.4113 25.091 62.4113 20.3343C62.4113 14.43 66.6962 11.0906 74.2865 11.0906ZM27.161 11.4279V23.4715C27.161 27.6212 26.8574 29.6115 25.9466 31.3322C25.103 32.9856 23.9896 34.0311 21.6957 35.1783L16.8713 32.8842C19.1654 31.8047 20.2786 30.8603 20.987 29.4091C21.7294 27.9248 21.9657 26.2042 21.9657 21.6836V11.4279H27.161ZM89.1333 10.9894C94.3286 10.9894 97.5 14.262 97.5 19.5584C97.5 24.9902 94.1941 28.3976 88.9309 28.3976C83.7353 28.3976 80.5303 25.1249 80.5303 19.8622C80.5306 14.3965 83.8369 10.9894 89.1333 10.9894ZM37.1815 11.057C39.8467 11.057 41.6008 11.7652 42.3769 13.1485C42.8152 13.9244 42.9502 14.9364 42.9502 17.0958V27.655C40.6221 27.9923 37.6872 28.2287 35.5283 28.2287C31.1764 28.2287 29.2194 26.71 29.2194 23.3366C29.2194 19.6929 31.8171 18.0062 38.1935 17.4663V16.3193C38.1935 15.3748 37.7212 15.0376 36.4054 15.0376C34.4825 15.0376 32.3233 15.5774 30.2989 16.6233V12.6086H30.2991C32.5934 11.5293 34.7861 11.057 37.1815 11.057ZM18.896 3.40468V27.4528C16.2308 27.9588 14.274 28.1612 12.1488 28.1612C5.80614 28.1612 2.5 25.2938 2.5 19.7945C2.5 14.4979 6.00876 11.057 11.4401 11.057C12.2835 11.057 12.9244 11.1243 13.7005 11.3267V3.40468H18.896ZM53.6447 11.057C56.3099 11.057 58.2329 11.664 59.3803 12.8449C60.4598 13.9579 60.7969 15.1724 60.7969 17.7705V27.9586H55.6015V17.9729C55.6015 15.9826 54.9268 15.24 53.0714 15.24C52.363 15.24 51.7221 15.3075 50.6759 15.6111V27.9586H45.4806V12.2375C48.5504 11.4279 51.0807 11.057 53.6447 11.057ZM38.4296 20.874C34.9883 21.2114 33.8751 21.7513 33.8751 23.1007C33.8751 24.1127 34.5163 24.585 35.9331 24.585C36.7092 24.585 37.4174 24.5177 38.4296 24.3491V20.874ZM89.0661 15.1726C87.0079 15.1726 85.8268 16.826 85.8268 19.6931C85.827 22.5609 87.0079 24.2139 89.0317 24.2139C91.0224 24.2139 92.2033 22.5607 92.2033 19.6931C92.2033 16.8595 91.0562 15.1726 89.0661 15.1726ZM11.9464 15.24C9.31489 15.24 7.79665 16.8595 7.79665 19.6931C7.79665 22.4597 9.24743 23.9778 11.9126 23.9778C12.4859 23.9778 12.9584 23.944 13.7005 23.843V15.5097C13.0933 15.3075 12.5873 15.24 11.9464 15.24ZM69.5977 16.0157C68.3498 16.7243 67.7084 18.0064 67.7084 19.8281C67.7084 22.426 68.9908 23.9103 71.2847 23.9103C71.9931 23.9103 72.5668 23.7751 73.2412 23.573V21.7851C73.2412 21.1779 73.2077 20.5027 73.2077 19.7945L73.1742 17.3994L73.1402 15.6788V15.2738H72.6003C71.5885 15.24 70.4078 15.5097 69.5977 16.0157ZM27.161 3.43232V8.7627H21.9657V3.43232H27.161Z" fill="#092E20"/>
</svg>
