<svg width="92" height="32" viewBox="0 0 92 32" fill="none" xmlns="http://www.w3.org/2000/svg">
<path d="M5.95088 15.3589H2.2998V10.9681H6.05648V9.78962C6.05648 4.3808 8.62 2.49664 13.6742 2.49664C15.0458 2.49664 16.0994 2.70653 16.9065 2.84646L16.5181 7.17327C15.9925 6.99836 15.467 6.89101 14.5154 6.89101C12.901 6.89101 12.2723 8.00799 12.2723 9.78962V10.9681H16.8483V15.3589H12.2723V29.086H5.95088V15.3589ZM19.2928 2.91039H25.6167V29.086H19.2928V2.91039ZM28.7701 3.33016H35.0879V7.93803H28.7701V3.33016ZM28.7701 10.9488H35.0879V29.0836H28.7701V10.9488ZM52.2302 16.1019C51.0698 15.4059 49.9143 15.0935 48.4068 15.0935C45.6636 15.0935 43.5589 16.9789 43.5589 20.1175C43.5589 23.0101 46.0156 24.8943 48.7539 24.8943C50.1947 24.8943 51.633 24.5831 52.6866 24.0258L52.8286 28.7C51.2482 29.2223 49.3523 29.5033 47.6639 29.5033C41.6265 29.5033 37.0275 26.0125 37.0275 20.0102C37.0275 13.9717 41.6277 10.4844 47.6639 10.4844C49.5611 10.4844 51.247 10.8005 52.6866 11.4977L52.229 16.1007L52.2302 16.1019ZM55.4613 2.91039H61.7803V18.5458H61.8495L67.1173 10.9054H74.0335L67.6805 19.2478L74.5602 29.0848H66.9061L61.8495 20.0801H61.7803V29.0836H55.4613V2.90797V2.91039ZM89.383 15.9294C88.6814 15.7183 87.9823 15.7183 87.2431 15.7183C84.2936 15.7183 82.6404 17.8498 82.6404 21.4094V29.0848H76.3251V10.9042H82.0821V14.2539H82.1501C83.24 11.95 84.8204 10.4844 87.5599 10.4844C88.2967 10.4844 89.0711 10.587 89.6998 10.6943L89.3842 15.9294H89.383Z" fill="black"/>
</svg>
