<svg width="197" height="40" viewBox="0 0 197 40" fill="none" xmlns="http://www.w3.org/2000/svg">
<path d="M139.743 19.8497V7.43393C139.743 7.1612 139.797 7.10666 140.071 7.10666H146.195C146.441 7.10666 146.496 7.1612 146.496 7.40605V19.2509C146.522 19.3054 146.55 19.36 146.55 19.4145L146.714 19.3333C146.879 19.1418 147.014 18.9515 147.179 18.7333C148.027 17.6994 148.846 16.6642 149.693 15.6303C149.804 15.4667 149.939 15.4121 150.159 15.4121H156.884C156.938 15.4121 156.993 15.4388 157.02 15.4933C157.047 15.5212 156.993 15.6024 156.965 15.6291C156.555 16.1467 156.117 16.6376 155.708 17.1539C154.451 18.6788 153.193 20.2315 151.936 21.7564C151.635 22.137 151.334 22.4909 151.006 22.8715C150.897 23.0085 150.897 23.0897 151.006 23.2267C151.908 24.2885 152.81 25.3782 153.713 26.4388C154.833 27.7733 155.926 29.0812 157.02 30.4145C157.539 31.0412 158.086 31.6679 158.606 32.2933C158.633 32.3491 158.66 32.4024 158.66 32.457C158.606 32.4848 158.551 32.5115 158.496 32.5115H151.17C151.106 32.5134 151.043 32.4996 150.986 32.4712C150.929 32.4429 150.879 32.401 150.842 32.3491C149.721 31.0145 148.628 29.6533 147.507 28.3188C147.26 28.0194 147.014 27.7467 146.796 27.4461C146.742 27.3927 146.659 27.3648 146.605 27.3115C146.577 27.3927 146.55 27.4473 146.55 27.5297V32.2667C146.55 32.4848 146.522 32.5115 146.25 32.5115H140.126C139.771 32.5115 139.771 32.5115 139.771 32.1576C139.743 28.0727 139.743 23.9612 139.743 19.8497ZM109.811 32.8388C108.959 32.8551 108.11 32.7356 107.296 32.4848C106.462 32.2394 105.67 31.8722 104.944 31.3951C104.077 30.8171 103.295 30.1206 102.62 29.3261C102.077 28.6743 101.626 27.9502 101.281 27.1745C100.653 25.6776 100.462 24.0982 100.597 22.5188C100.663 21.7181 100.838 20.9301 101.117 20.177C101.582 18.897 102.32 17.7806 103.277 16.8C104.066 16.0179 104.981 15.3738 105.983 14.8945C106.475 14.6764 107.022 14.5127 107.568 14.377C108.635 14.1321 109.702 14.0497 110.767 14.1321C111.453 14.1905 112.13 14.318 112.79 14.5127C113.462 14.7097 114.105 14.9937 114.703 15.3576C115.551 15.8473 116.262 16.5006 116.917 17.2085C117.52 17.863 118.011 18.5697 118.394 19.3333C118.694 19.9588 118.94 20.6121 119.077 21.3212C119.35 22.5454 119.35 23.7988 119.187 25.0509C119.068 25.8417 118.838 26.6118 118.503 27.3382C117.656 29.1624 116.29 30.497 114.648 31.5854C113.903 32.0433 113.092 32.3835 112.244 32.5939C111.423 32.7297 110.658 32.8388 109.811 32.8388ZM110.084 20.6933C109.538 20.6933 109.017 20.8024 108.553 21.0751C107.842 21.4836 107.433 22.137 107.268 22.9273C107.159 23.4994 107.213 24.0982 107.405 24.6703C107.651 25.3782 108.143 25.8133 108.853 25.977C109.482 26.1406 110.138 26.1406 110.795 26.0036C111.642 25.8412 112.216 25.3503 112.435 24.5333C112.681 23.6897 112.681 22.8182 112.326 22.0012C112.227 21.7518 112.072 21.5286 111.873 21.349C111.673 21.1694 111.435 21.0384 111.177 20.9661C110.822 20.8303 110.439 20.7745 110.084 20.6933ZM39.6375 23.7164C39.6653 24.3164 39.5284 25.1867 39.2823 26.0315C38.955 27.1467 38.4338 28.1285 37.7235 29.0533C37.0787 29.8869 36.3146 30.6209 35.4556 31.2315C34.8633 31.6396 34.2309 31.9865 33.5684 32.2667C32.229 32.7842 30.835 32.9479 29.4411 32.8388C28.627 32.7673 27.8268 32.5837 27.0629 32.2933C25.2314 31.5854 23.8375 30.3879 22.6338 28.8897C22.1474 28.2731 21.7601 27.5844 21.4859 26.8485C21.2399 26.1939 21.0496 25.5139 20.9672 24.8061C20.8847 24.1248 20.8302 23.417 20.8847 22.737C20.9672 21.783 21.1587 20.8582 21.5405 19.9588C22.1417 18.4618 23.1526 17.2364 24.3563 16.2012C25.0141 15.6496 25.7513 15.2001 26.5429 14.8679C28.0459 14.2133 29.6326 14.0497 31.2459 14.1867C31.9826 14.2465 32.7083 14.4021 33.4047 14.6497C34.5136 15.0483 35.5345 15.6584 36.4108 16.4461C37.2577 17.1792 37.9702 18.0546 38.5162 19.0327C38.7902 19.5503 39.0084 20.0679 39.1999 20.6121C39.5272 21.457 39.6375 22.4364 39.6375 23.7164ZM27.5005 23.4715C27.5005 23.5806 27.5272 23.7988 27.555 24.017C27.692 24.9964 28.2108 25.6776 29.1672 25.9224C30.0156 26.1406 30.8629 26.1673 31.6823 25.8412C32.3114 25.5951 32.7211 25.1054 32.8859 24.4788C33.0763 23.8254 33.0763 23.1721 32.9405 22.4909C32.6944 21.4848 32.0108 20.9394 31.109 20.8036C30.3975 20.6945 29.6872 20.6945 28.9756 20.9394C28.5098 21.1004 28.114 21.4178 27.8556 21.8376C27.555 22.3006 27.5005 22.8182 27.5005 23.4715ZM50.3805 32.8388C49.5611 32.8654 48.7138 32.7297 47.8653 32.4848C47.0119 32.2364 46.2011 31.86 45.4605 31.3685C44.2555 30.5866 43.2224 29.5675 42.4241 28.3733C41.995 27.7226 41.655 27.0174 41.4132 26.2764C41.0302 25.0776 40.9211 23.8521 41.0035 22.6279C41.0581 21.783 41.2496 20.9939 41.5223 20.2036C42.0144 18.897 42.7805 17.7806 43.7647 16.7733C44.5575 15.983 45.4314 15.3309 46.4702 14.8945C47.2327 14.5729 48.0312 14.3442 48.8484 14.2133C49.5878 14.1042 50.3514 14.0497 51.0908 14.1321C51.5829 14.1588 52.0738 14.2679 52.5659 14.377C52.949 14.4582 53.332 14.5673 53.715 14.7042C54.1793 14.8945 54.6714 15.1115 55.109 15.3842C56.1199 15.9564 56.9393 16.7454 57.6787 17.6448C58.2799 18.3794 58.772 19.1697 59.0993 20.0412C59.6379 21.4072 59.8444 22.8816 59.7017 24.343C59.5926 25.3503 59.3732 26.3309 58.9356 27.257C58.3387 28.5201 57.4816 29.6428 56.4205 30.5515C55.6386 31.2601 54.7423 31.831 53.7696 32.24C52.6896 32.6596 51.5389 32.863 50.3805 32.8388ZM50.5987 26.0861C50.7078 26.0861 50.8181 26.0582 50.955 26.0582C51.4472 26.0036 51.9126 25.8945 52.2944 25.5951C52.7587 25.2412 53.0047 24.7515 53.1138 24.1794C53.2229 23.4715 53.2229 22.7903 52.9781 22.1103C52.7041 21.3467 52.1296 20.9394 51.3659 20.8036C50.6266 20.6667 49.8884 20.6667 49.1502 20.9127C48.4132 21.1576 47.9478 21.6739 47.7562 22.4364C47.5922 23.0613 47.5922 23.7181 47.7562 24.343C47.8653 24.8061 48.0835 25.1867 48.4678 25.4861C49.0956 26.0036 49.8326 26.0582 50.5987 26.0861Z" fill="black"/>
<path d="M166.233 32.8121C165.385 32.8388 164.538 32.703 163.718 32.4849C162.862 32.2423 162.05 31.8655 161.313 31.3685C160.105 30.5697 159.065 29.5428 158.251 28.3455C157.814 27.7128 157.482 27.0142 157.267 26.2764C156.747 24.6691 156.692 23.0643 157.021 21.4291C157.239 20.4218 157.622 19.4691 158.168 18.5697C158.77 17.5903 159.481 16.7188 160.383 15.983C161.064 15.4205 161.83 14.9704 162.652 14.6497C164.046 14.1042 165.495 13.9685 166.971 14.023C167.747 14.0567 168.517 14.1754 169.267 14.377C170.36 14.7042 171.344 15.2206 172.219 15.9285C173.133 16.6857 173.893 17.6101 174.461 18.6521C174.761 19.2242 175.062 19.823 175.308 20.4218C175.554 21.0485 175.691 21.7285 175.691 22.4097C175.691 22.6279 175.636 22.6824 175.418 22.7091C174.789 22.8449 174.133 22.9818 173.504 23.1176C172.93 23.2267 172.383 23.3624 171.81 23.4715C171.235 23.6073 170.661 23.7164 170.087 23.8521C169.513 23.9891 168.966 24.0982 168.393 24.2339C167.79 24.3697 167.162 24.5067 166.561 24.6424C166.015 24.7515 165.468 24.8873 164.92 24.9964L164.101 25.16C164.046 25.16 163.992 25.2146 163.992 25.2412C164.018 25.2958 164.046 25.377 164.101 25.4049C164.373 25.623 164.674 25.8412 164.948 26.0594C165.468 26.4667 166.041 26.4946 166.642 26.44C167.463 26.3576 168.092 25.9491 168.584 25.2958C168.829 24.9685 168.829 24.9685 169.185 25.2146L171.235 26.5212C172.137 27.0933 173.067 27.6921 173.968 28.2643C174.269 28.4546 174.269 28.4546 174.023 28.7273C173.422 29.3527 172.875 30.0061 172.247 30.6061C171.891 30.96 171.509 31.2594 171.072 31.5042C170.558 31.8075 170.018 32.0627 169.458 32.2667C168.586 32.5657 167.673 32.7308 166.752 32.7564C166.588 32.8388 166.396 32.8121 166.233 32.8121ZM166.396 20.2303C166.096 20.2861 165.768 20.2861 165.468 20.3952C164.845 20.5816 164.305 20.9751 163.937 21.5103C163.745 21.7564 163.608 22.0558 163.472 22.3285C163.445 22.3818 163.472 22.4642 163.472 22.5188C163.472 22.5455 163.554 22.5455 163.581 22.5455C164.21 22.4097 164.811 22.2739 165.44 22.137L167.244 21.7285C167.627 21.6473 167.982 21.5661 168.365 21.457C168.528 21.4024 168.556 21.3479 168.447 21.2388C167.873 20.64 167.217 20.257 166.396 20.2303ZM9.0206 21.1588C9.0206 17.537 8.99393 13.9418 9.0206 10.3212C9.0206 9.2594 9.5406 8.41455 10.4145 7.81576C11.0715 7.35273 11.8085 7.1891 12.6024 7.1891H21.76C22.2788 7.16243 22.2242 7.21698 22.2242 7.68001V12.7988C22.2242 13.0982 22.1976 13.1527 21.8691 13.1527H17.3855C17.0848 13.1527 16.7842 13.1794 16.5382 13.2885C15.9927 13.48 15.8 13.9697 15.7733 14.4873C15.7454 15.3042 15.7455 16.1212 15.7455 16.9115V17.3733C15.7455 17.537 15.8279 17.5915 15.9636 17.5915H18.9164C19.2994 17.5915 19.2994 17.5915 19.2994 17.9721V23.1721C19.2994 23.4994 19.2715 23.5273 18.9442 23.5273H15.9636C15.7455 23.5273 15.7176 23.5539 15.7176 23.7721V32.3224C15.7176 32.4861 15.663 32.5406 15.4994 32.5406H9.15636C8.99272 32.5406 8.96484 32.4582 8.96484 32.3224C9.01939 28.5915 9.0206 24.8885 9.0206 21.1588ZM63.6388 25.3236V21.0206C63.6388 20.7758 63.5842 20.7212 63.3382 20.7212H61.1515C60.9333 20.7212 60.9055 20.6946 60.9055 20.4764V15.0036C60.9055 14.8121 60.96 14.7588 61.1515 14.7588H63.3115C63.5842 14.7588 63.6121 14.7042 63.6121 14.4582V9.01334C63.6121 8.76728 63.6388 8.74061 63.8848 8.74061H69.9539C70.2267 8.74061 70.2545 8.76728 70.2545 9.04001C70.2545 10.0473 70.2824 11.0824 70.2824 12.0897C70.2824 12.88 70.2824 13.6412 70.3091 14.4315C70.3091 14.7309 70.3636 14.7588 70.6642 14.7588H72.6061C72.8242 14.7588 72.8788 14.8121 72.8788 15.0303V20.4485C72.8788 20.6667 72.8242 20.7212 72.6061 20.7212H70.6376C70.3636 20.7212 70.337 20.7758 70.337 21.0206V24.9418C70.337 25.2691 70.337 25.623 70.5285 25.9491C70.7188 26.303 70.9927 26.5212 71.4024 26.5758C71.5673 26.6036 71.7576 26.6036 71.9224 26.6036H73.7806C74.0812 26.6036 74.1091 26.6303 74.1091 26.9309V32.2121C74.1091 32.457 74.0812 32.5115 73.8352 32.5115H67.0558C66.2087 32.5244 65.3848 32.2347 64.7321 31.6946C64.3756 31.4127 64.0891 31.0523 63.8948 30.6415C63.7005 30.2306 63.6038 29.7804 63.6121 29.3261C63.6388 28.0194 63.6388 26.6836 63.6388 25.3236ZM130.394 32.8121C129.492 32.8655 128.617 32.703 127.77 32.4849C126.916 32.2365 126.105 31.8601 125.365 31.3685C124.24 30.6241 123.258 29.683 122.467 28.5903C121.95 27.8831 121.562 27.091 121.319 26.2497C120.936 25.0243 120.827 23.7709 120.936 22.5188C121.045 21.2388 121.401 20.0133 122.084 18.897C122.808 17.6701 123.775 16.6045 124.927 15.7661C125.608 15.2596 126.364 14.8644 127.168 14.5952C128.647 14.1025 130.222 13.9715 131.761 14.2133C132.336 14.2958 132.909 14.4315 133.456 14.5952C134.248 14.84 134.96 15.2206 135.642 15.6836C136.611 16.3895 137.453 17.2552 138.131 18.2436C138.212 18.3527 138.212 18.4339 138.076 18.5164C136.873 19.2788 135.642 20.0412 134.44 20.8036C133.921 21.1309 133.401 21.4836 132.855 21.8097C132.582 21.9746 132.582 21.9746 132.362 21.7297C132.146 21.4903 131.908 21.2712 131.652 21.0752C131.269 20.7758 130.777 20.7212 130.313 20.7479C129.875 20.7758 129.465 20.7758 129.055 20.9394C128.453 21.1576 128.016 21.5382 127.77 22.137C127.469 22.8727 127.469 23.6352 127.661 24.3976C127.824 25.1055 128.262 25.6218 128.973 25.8679C129.738 26.1406 130.476 26.1952 131.269 25.977C131.733 25.8412 132.09 25.5406 132.39 25.16C132.417 25.1055 132.472 25.0788 132.499 25.0243C132.554 24.9418 132.636 24.9418 132.718 24.9964C134.112 25.8946 135.533 26.7939 136.927 27.6921L138.076 28.4279C138.212 28.5091 138.212 28.5903 138.131 28.6994C137.284 29.8982 136.299 30.9055 135.041 31.6679C134.112 32.2133 133.101 32.5939 132.035 32.7297C131.515 32.8109 130.968 32.8388 130.448 32.8933C130.394 32.8655 130.394 32.84 130.394 32.8121ZM86.6291 18.5164V7.46182C86.6291 7.16122 86.657 7.13455 86.9564 7.13455H92.9709C93.2448 7.13455 93.2715 7.1891 93.2715 7.46182V24.8339C93.2715 25.0788 93.2994 25.3236 93.3261 25.5685C93.4085 26.0861 93.8461 26.5212 94.3648 26.6036C94.583 26.6303 94.8024 26.6303 95.0485 26.6303H99.5042C99.7224 26.6303 99.7503 26.6849 99.7503 26.9297V32.2946C99.7503 32.4582 99.6958 32.5394 99.5042 32.5394H89.6364C89.0073 32.5394 88.3782 32.4036 87.8315 32.0764C87.3721 31.8062 87.0233 31.3819 86.8473 30.8788C86.6291 30.3067 86.5745 29.7346 86.5745 29.1358C86.6291 25.5964 86.6291 22.057 86.6291 18.5164ZM177.549 24.7515V17.8061C177.549 17.3709 177.577 16.9091 177.659 16.4727C177.878 15.4921 178.424 14.8121 179.408 14.5115C179.901 14.3491 180.393 14.3212 180.885 14.3212H188.895C189.167 14.3212 189.222 14.3758 189.222 14.6485V19.9309C189.222 20.2303 189.195 20.2582 188.895 20.2582C187.882 20.2582 186.898 20.2303 185.887 20.2582C185.559 20.2582 185.232 20.3115 184.931 20.4206C184.465 20.5842 184.302 20.9927 184.247 21.4558C184.219 21.6182 184.247 21.783 184.247 21.9455V32.2921C184.247 32.4558 184.193 32.5103 184.028 32.5103H177.851C177.632 32.5103 177.577 32.4558 177.577 32.2655C177.527 29.7607 177.518 27.2566 177.549 24.7515Z" fill="black"/>
</svg>
