<svg width="378" height="355" viewBox="0 0 378 355" fill="none" xmlns="http://www.w3.org/2000/svg">
<g filter="url(#filter0_d_0_1)">
<path d="M136.619 28C110.375 28 89 49.3746 89 75.6191V180.381C89 206.626 110.375 228 136.619 228H241.381C267.625 228 289 206.626 289 180.381V75.6191C289 49.3746 267.625 28 241.381 28H136.619Z" fill="white"/>
</g>
<g clip-path="url(#clip0_0_1)">
<path d="M146.548 130.61L151.838 135.965L163.262 124.445L158.017 119.09L155.616 116.66C153.705 114.725 152.682 112.205 152.682 109.46C152.682 107.075 153.482 104.915 154.86 103.205C156.727 100.82 159.572 99.2901 162.773 99.2901C165.485 99.2901 167.974 100.37 169.93 102.305L172.286 104.6L177.576 110L189.045 98.4801L183.711 93.1251L181.31 90.7851C176.554 85.9701 170.019 83.0001 162.773 83.0001C148.237 83.0001 136.501 94.8801 136.501 109.505C136.501 113.15 137.212 116.615 138.546 119.81C139.879 123.005 141.791 125.84 144.191 128.225L146.548 130.61Z" fill="#EA4335"/>
<path d="M172.731 137.99L189.045 121.565L177.576 110L163.262 124.445L151.838 135.965L157.972 142.22L163.262 147.53L168.774 141.95" fill="#FBBC04"/>
<path d="M200.426 162.02L226.209 135.965L214.74 124.445L189.001 150.455L174.687 136.01L163.262 147.53L177.576 162.02L177.532 162.065L189.001 173L200.47 162.02H200.426Z" fill="#34A853"/>
<path d="M233.811 128.225C239.145 122.825 242.212 114.545 241.368 106.175C240.123 93.4846 229.721 83.9446 217.096 83.0896C209.139 82.5496 201.848 85.5646 196.692 90.7846L177.577 110L189.001 121.565L208.116 102.305C210.428 100.01 213.629 98.9296 216.918 99.4696C221.186 100.145 224.653 103.7 225.231 108.02C225.676 111.26 224.609 114.41 222.342 116.705L214.74 124.445L226.209 135.965L233.811 128.225Z" fill="#4285F4"/>
</g>
<defs>
<filter id="filter0_d_0_1" x="0.666611" y="0.499981" width="376.667" height="376.667" filterUnits="userSpaceOnUse" color-interpolation-filters="sRGB">
<feFlood flood-opacity="0" result="BackgroundImageFix"/>
<feColorMatrix in="SourceAlpha" type="matrix" values="0 0 0 0 0 0 0 0 0 0 0 0 0 0 0 0 0 0 127 0" result="hardAlpha"/>
<feOffset dy="60.8334"/>
<feGaussianBlur stdDeviation="44.1667"/>
<feComposite in2="hardAlpha" operator="out"/>
<feColorMatrix type="matrix" values="0 0 0 0 0.186927 0 0 0 0 0.404167 0 0 0 0 0.268392 0 0 0 1 0"/>
<feBlend mode="normal" in2="BackgroundImageFix" result="effect1_dropShadow_0_1"/>
<feBlend mode="normal" in="SourceGraphic" in2="effect1_dropShadow_0_1" result="shape"/>
</filter>
<clipPath id="clip0_0_1">
<rect width="105" height="90.0001" fill="white" transform="translate(136.5 83.0001)"/>
</clipPath>
</defs>
</svg>
