<svg width="114" height="32" viewBox="0 0 114 32" fill="none" xmlns="http://www.w3.org/2000/svg">
<path d="M13.1268 25.5382C10.8776 25.5382 8.76634 24.9679 6.9336 23.9717L5.01074 27.2745C7.41131 28.5836 10.1783 29.3333 13.1268 29.3333C16.0754 29.3333 18.8424 28.5836 21.2429 27.2745L19.32 23.9717C17.4872 24.9679 15.3761 25.5382 13.1268 25.5382Z" fill="#0BA0BE"/>
<path d="M24.4434 2.66668V6.69214H20.7284C20.7268 6.69214 20.7222 6.69326 20.7197 6.69359C21.6324 8.09155 22.1589 9.77453 22.1589 11.616C22.1589 16.6439 18.1942 20.5896 13.0968 20.5896C7.96393 20.5896 4.03467 16.6439 4.03467 11.616C4.03467 6.55304 7.96393 2.6773 13.0968 2.6773C15.4689 2.6773 17.5949 3.51728 19.191 4.92496C19.6188 4.45633 20.2813 3.77491 20.6731 3.48921C21.102 3.17657 21.0367 3.18652 21.4982 2.97809C21.9599 2.76955 22.7429 2.66668 24.4434 2.66668ZM45.3307 2.6773C50.4282 2.6773 54.3928 6.55304 54.3928 11.616C54.3928 16.6439 50.4282 20.5896 45.3307 20.5896C40.1979 20.5896 36.2686 16.6439 36.2686 11.616C36.2686 6.55304 40.1979 2.6773 45.3307 2.6773ZM65.5497 2.67853C70.6468 2.67853 74.6113 6.55404 74.6113 11.6166C74.6113 16.6442 70.6468 20.5896 65.5497 20.5896C60.4172 20.5896 56.4882 16.6442 56.4882 11.6166C56.4882 6.55404 60.4172 2.67853 65.5497 2.67853ZM101.525 2.66886C103.046 2.66886 104.354 2.93677 105.414 3.46523C106.469 3.99178 107.35 4.69098 108.032 5.54337C108.711 6.39364 109.209 7.36378 109.513 8.42717C109.813 9.48218 109.965 10.5688 109.965 11.6575V12.8995H96.5143C96.5477 13.4776 96.6955 14.146 96.9553 14.6299C97.2563 15.1906 97.6572 15.6756 98.1474 16.0706C98.6417 16.4699 99.2227 16.7841 99.8736 17.0051C100.528 17.2278 101.214 17.3406 101.914 17.3406C102.852 17.3406 103.675 17.1246 104.362 16.6986C105.066 16.2609 105.724 15.6742 106.317 14.9551L106.476 14.7624L109.291 16.8857L109.131 17.089C107.318 19.4032 104.747 20.5762 101.489 20.5762C100.139 20.5762 98.8968 20.3462 97.7948 19.893C96.6925 19.4394 95.7449 18.802 94.9791 17.9983C94.2152 17.1969 93.6189 16.2397 93.2074 15.153C92.7971 14.0704 92.5888 12.8829 92.5888 11.6228C92.5888 10.3605 92.8155 9.17032 93.2634 8.08568C93.7104 7.00037 94.3364 6.04454 95.1235 5.24415C95.9117 4.44274 96.8638 3.80639 97.9534 3.3524C99.0439 2.89875 100.245 2.66886 101.525 2.66886ZM78.8267 3.07059L83.4523 15.3546L88.148 3.07059H92.2129L85.4933 20.1788H81.4122L74.7617 3.07059H78.8267ZM35.4526 2.66669V6.69215H31.7376C31.7 6.69215 31.4518 6.77196 31.1897 6.85909L31.097 6.89003C30.9425 6.94171 30.7911 6.99297 30.683 7.02906V20.1788H26.942V3.06711H30.683V4.41273C31.0364 4.04932 31.4202 3.68043 31.6824 3.48922C32.1113 3.17658 32.0459 3.18653 32.5075 2.9781C32.9692 2.76956 33.7522 2.66669 35.4526 2.66669ZM65.5497 6.41438C62.6472 6.41438 60.4172 8.75362 60.4172 11.6166C60.4172 14.4795 62.6472 16.8189 65.5497 16.8189C68.4876 16.8189 70.6468 14.4795 70.6468 11.6166C70.6468 8.75362 68.4876 6.41438 65.5497 6.41438ZM13.0968 6.41338C10.1941 6.41338 7.96393 8.75273 7.96393 11.616C7.96393 14.4791 10.1941 16.8185 13.0968 16.8185C16.0349 16.8185 18.1942 14.4791 18.1942 11.616C18.1942 8.75273 16.0349 6.41338 13.0968 6.41338ZM45.3307 6.41338C42.4281 6.41338 40.1979 8.75284 40.1979 11.616C40.1979 14.4791 42.4281 16.8185 45.3307 16.8185C48.2688 16.8185 50.4282 14.4791 50.4282 11.616C50.4282 8.75284 48.2688 6.41338 45.3307 6.41338ZM101.454 5.69533C100.716 5.69533 100.032 5.83455 99.4188 6.10917C98.8023 6.3857 98.2753 6.74844 97.8525 7.18777C97.4277 7.62901 97.0931 8.12694 96.8578 8.66713C96.6628 9.11608 96.5483 9.42772 96.5164 9.86739H106.033C105.994 9.29723 105.89 8.90307 105.724 8.42113C105.536 7.87635 105.251 7.39576 104.875 6.99243C104.501 6.591 104.025 6.2712 103.463 6.04287C102.895 5.81218 102.219 5.69533 101.454 5.69533Z" fill="black"/>
</svg>
