<svg width="111" height="40" viewBox="0 0 111 40" fill="none" xmlns="http://www.w3.org/2000/svg">
<path d="M19.5149 5.15764C17.0056 5.15764 15.2896 6.96847 14.7453 7.87389C15.3866 7.35112 17.2384 6.30558 19.5149 6.30558C21.7914 6.30558 23.5354 7.42657 24.1228 7.98707C23.6324 7.04392 22.0242 5.15764 19.5149 5.15764Z" fill="#125FA9"/>
<path d="M19.5149 3.21746C16.6564 3.21746 14.7237 5.49178 14.1147 6.62894C14.7615 6.09539 16.8957 4.51091 19.4502 4.51091C21.4939 4.51091 23.848 5.92293 24.7696 6.62894C24.2091 5.49178 22.3734 3.21746 19.5149 3.21746Z" fill="#125FA9"/>
<path d="M50.1212 2.99111L51.8027 8.69846H43.0072C39.24 8.69846 38.0274 10.6063 38.0274 13.5327C38.0274 19.3015 43.0935 21.6923 45.6265 22.1665V16.443H43.0072V10.768H52.0291V27.7769H46.7744C41.0509 27.7769 38.2861 25.6912 36.3621 24.0097C34.4381 22.3282 31.544 18.5125 31.544 12.8052C31.544 7.09782 34.7615 2.99111 40.873 2.99111H50.1212Z" fill="#125FA9"/>
<path d="M59.5149 8.69846H52.8375L54.3734 2.99111H71.4955L72.9183 8.69846H66.16V27.7769H59.5149V8.69846Z" fill="#125FA9"/>
<path d="M74.8746 2.99111L73.2578 8.69846H82.5384C85.1414 8.69846 86.3055 9.19968 86.3055 10.3153C86.3055 12.5659 82.7485 14.8855 80.97 15.7639V9.42603H74.6321V27.7769H80.97V22.4414C87.987 19.5635 92.9506 14.713 92.9506 9.42603C92.9506 4.13905 87.8092 2.99111 82.8132 2.99111H74.8746Z" fill="#125FA9"/>
<path d="M95.5052 27.7769V2.99111H102.215V22.7486H110.364L108.731 27.7769H95.5052Z" fill="#125FA9"/>
<path d="M32.7243 32.1423C32.2878 32.1423 32.2554 32.3201 32.2554 32.6273C32.25 34.2387 32.2393 37.5327 32.2393 37.8173C32.2393 38.173 32.4171 38.2862 32.692 38.2862H35.5376C35.7963 38.2862 35.8933 38.1892 35.8933 37.8011C35.8933 37.4131 35.7963 37.2838 35.5376 37.2838H33.5004V35.5861H35.198C35.4244 35.5861 35.5376 35.5214 35.5376 35.0849C35.5376 34.6483 35.4082 34.5998 35.198 34.5998H33.5004V33.1447H35.5861C35.7639 33.1447 35.8609 33.0639 35.8609 32.6273C35.8609 32.1908 35.7477 32.1423 35.5861 32.1423H32.7243Z" fill="black"/>
<path d="M37.4292 33.6944C37.0574 33.6944 36.8957 33.7753 36.8957 33.9531V38.0598C36.8957 38.2377 37.1382 38.3023 37.4939 38.3023C37.8496 38.3023 38.0921 38.27 38.0921 38.0598V35.2951C38.2646 35.0795 38.6968 34.6483 39.046 34.6483C39.4826 34.6483 39.7413 35.0525 39.7413 35.5053V38.0598C39.7413 38.2377 39.8868 38.3023 40.3233 38.3023C40.7599 38.3023 40.9377 38.2377 40.9377 38.0598V35.4406C40.9377 34.1471 40.2748 33.6136 39.4179 33.6136C38.7324 33.6136 38.1406 34.1094 37.9304 34.3573V33.8884C37.9304 33.7753 37.8011 33.6944 37.4292 33.6944Z" fill="black"/>
<path d="M41.7623 33.7268H42.1988V32.8213C42.1988 32.6758 42.312 32.5788 42.8132 32.5788C43.3144 32.5788 43.4114 32.692 43.4114 32.8213V33.7268H44.2684C44.43 33.7268 44.5271 33.8076 44.5271 34.1795C44.5271 34.5513 44.43 34.6968 44.2684 34.6968H43.4114V36.7987C43.4114 37.1867 43.6055 37.3646 43.8965 37.3646C44.1875 37.3646 44.2037 37.2514 44.3654 37.2514C44.5271 37.2514 44.5109 37.4939 44.5109 37.8658C44.5109 38.2377 44.2199 38.367 43.5731 38.367C42.5707 38.367 42.1988 37.8011 42.1988 36.9281V34.6968H41.7623C41.6168 34.6968 41.5198 34.6322 41.5198 34.1956C41.5198 33.7591 41.633 33.7268 41.7623 33.7268Z" fill="black"/>
<path d="M50.6709 33.6783C50.2506 33.6783 50.1212 33.7591 50.1212 33.9531C50.1158 35.2843 50.1051 37.9725 50.1051 38.076C50.1051 38.2053 50.1859 38.3023 50.6871 38.3023C51.1883 38.3023 51.3177 38.2053 51.3177 38.076V35.4729C51.4794 35.1981 51.8512 34.7292 52.1584 34.7292C52.4656 34.7292 52.4979 34.8585 52.6758 34.8585C52.8536 34.8585 52.8536 34.422 52.8536 34.0501C52.8536 33.6783 52.692 33.6136 52.2716 33.6136C51.7154 33.6136 51.2961 34.131 51.156 34.3897V33.9531C51.156 33.7914 51.0913 33.6783 50.6709 33.6783Z" fill="black"/>
<path d="M53.3064 33.7106H53.7591V32.8213C53.7591 32.6758 53.8076 32.5627 54.3573 32.5627C54.907 32.5627 54.9555 32.7082 54.9555 32.8213V33.7268H55.8448C56.0549 33.7268 56.0873 33.8884 56.0873 34.2441C56.0873 34.5998 55.9741 34.713 55.8448 34.713H54.9555V36.6855C54.9555 37.1544 55.1334 37.3646 55.4244 37.3646C55.7154 37.3646 55.7801 37.2514 55.9094 37.2514C56.0388 37.2514 56.0873 37.3484 56.0873 37.688C56.0873 38.2053 55.9256 38.367 55.1334 38.367C54.2603 38.367 53.7591 37.8496 53.7591 37.0736V34.6968H53.3064C53.1608 34.6968 53.08 34.5675 53.08 34.1795C53.08 33.7914 53.2093 33.7106 53.3064 33.7106Z" fill="black"/>
<path d="M62.1988 33.6944C61.6491 33.6944 61.6006 33.8238 61.6006 33.9854V38.0275C61.6006 38.2377 61.7785 38.3023 62.1665 38.3023C62.5545 38.3023 62.8294 38.2862 62.8294 38.0275V33.9854C62.8294 33.7914 62.7486 33.6944 62.1988 33.6944Z" fill="black"/>
<path d="M62.0048 33.0962C61.6976 33.0962 61.5036 32.886 61.5036 32.5788V32.3525C61.5036 32.0453 61.6815 31.8351 62.0048 31.8351H62.3767C62.8132 31.8351 62.9102 32.1261 62.9102 32.3525V32.5788C62.9102 32.9669 62.6515 33.0962 62.3282 33.0962H62.0048Z" fill="black"/>
<path d="M64.4947 33.6944C63.9773 33.6944 63.9773 33.8723 63.9773 33.9854V38.0275C63.9773 38.2215 64.0905 38.2862 64.5756 38.2862C65.0606 38.2862 65.1899 38.2215 65.1899 38.0275V35.3112C65.3301 35.0957 65.7106 34.6645 66.1115 34.6645C66.6127 34.6645 66.8068 35.0687 66.8068 35.4568V37.9951C66.8068 38.1083 66.8876 38.2862 67.4212 38.2862C67.9547 38.2862 68.0355 38.1892 68.0355 37.9951V35.3274C68.0355 34.1795 67.4212 33.5974 66.4834 33.5974C65.7332 33.5974 65.2007 34.0932 65.0283 34.3411V33.9854C65.0283 33.8561 65.0121 33.6944 64.4947 33.6944Z" fill="black"/>
<path d="M73.08 31.4147C72.595 31.4147 72.5141 31.5602 72.5141 31.6896C72.5087 34.3034 72.4979 39.5732 72.4979 39.7413C72.4979 39.9515 72.692 40 73.08 40C73.468 40 73.6621 39.9515 73.6621 39.7413V31.6896C73.6621 31.5441 73.565 31.4147 73.08 31.4147Z" fill="black"/>
<path d="M82.1342 33.5812C82.4252 33.7753 82.4575 33.4842 82.4575 33.1124C82.4575 32.6112 82.3767 32.5788 82.2473 32.4656C82.118 32.3525 81.7785 32.0614 80.8569 32.0614C79.9353 32.0614 77.9466 32.3686 77.9466 35.1981C77.9466 38.0275 79.8706 38.3832 80.6467 38.3832C81.4228 38.3832 81.924 38.1407 82.1827 37.9951C82.4414 37.8496 82.4899 37.6556 82.4899 37.3161C82.4899 36.7017 82.2635 36.7825 82.1342 36.8957C82.0048 37.0089 81.5198 37.3161 80.8731 37.3161C80.2263 37.3161 79.3047 37.0089 79.3047 35.2304C79.3047 33.4519 80.2425 33.0962 80.8569 33.0962C81.4713 33.0962 81.8431 33.3872 82.1342 33.5812Z" fill="black"/>
<path d="M88.9895 33.6944C88.6176 33.6944 88.4883 33.7914 88.4883 33.9208C88.4829 35.2034 88.4721 37.8108 88.4721 37.979C88.4721 38.1892 88.5853 38.3023 89.1026 38.3023C89.62 38.3023 89.7009 38.173 89.7009 37.979V35.3112C89.8679 35.1011 90.2894 34.6807 90.6386 34.6807C91.0752 34.6807 91.3177 34.9717 91.3177 35.5376V38.0598C91.3177 38.1892 91.4632 38.3023 91.9482 38.3023C92.4333 38.3023 92.5465 38.2053 92.5465 38.0598V35.3597C92.5465 34.228 91.9806 33.6136 91.0105 33.6136C90.2344 33.6136 89.6955 34.1094 89.523 34.3573V33.9208C89.523 33.7753 89.3613 33.6944 88.9895 33.6944Z" fill="black"/>
<path d="M94.2279 33.6944C93.8561 33.6944 93.7267 33.7914 93.7267 33.9208C93.7213 35.2034 93.7106 37.8108 93.7106 37.979C93.7106 38.1892 93.8237 38.3023 94.3411 38.3023C94.8585 38.3023 94.9393 38.173 94.9393 37.979V35.3112C95.1064 35.1011 95.5279 34.6807 95.8771 34.6807C96.3136 34.6807 96.5562 34.9717 96.5562 35.5376V38.0598C96.5562 38.1892 96.7017 38.3023 97.1867 38.3023C97.6718 38.3023 97.7849 38.2053 97.7849 38.0598V35.3597C97.7849 34.228 97.219 33.6136 96.249 33.6136C95.4729 33.6136 94.934 34.1094 94.7615 34.3573V33.9208C94.7615 33.7753 94.5998 33.6944 94.2279 33.6944Z" fill="black"/>
<path d="M107.583 33.7268H108.019V32.8213C108.019 32.6758 108.133 32.5788 108.634 32.5788C109.135 32.5788 109.232 32.692 109.232 32.8213V33.7268H110.089C110.251 33.7268 110.348 33.8076 110.348 34.1795C110.348 34.5513 110.251 34.6968 110.089 34.6968H109.232V36.7987C109.232 37.1867 109.426 37.3646 109.717 37.3646C110.008 37.3646 110.024 37.2514 110.186 37.2514C110.348 37.2514 110.331 37.4939 110.331 37.8658C110.331 38.2377 110.04 38.367 109.394 38.367C108.391 38.367 108.019 37.8011 108.019 36.9281V34.6968H107.583C107.437 34.6968 107.34 34.6322 107.34 34.1956C107.34 33.7591 107.453 33.7268 107.583 33.7268Z" fill="black"/>
<path d="M106.694 36.9604C106.92 36.7987 106.968 37.0089 106.968 37.4131C106.968 37.8981 106.888 37.9143 106.694 38.0598C106.5 38.2053 105.982 38.3832 105.432 38.3832C104.883 38.3832 103.525 38.2053 103.525 35.9903C103.525 33.7753 105.158 33.6297 105.594 33.6297C106.031 33.6297 106.403 33.7268 106.613 33.8399C106.823 33.9531 106.968 34.034 106.968 34.519C106.968 35.004 106.774 35.0849 106.661 35.004C106.548 34.9232 106.176 34.5837 105.707 34.5837C105.238 34.5837 104.721 34.8585 104.721 35.9903C104.721 37.1221 105.287 37.3808 105.707 37.3808C106.128 37.3808 106.467 37.1221 106.694 36.9604Z" fill="black"/>
<path fill-rule="evenodd" clip-rule="evenodd" d="M45.0121 36.0388C45.0121 37.4293 45.5295 38.3832 47.2271 38.3832C47.987 38.3832 48.5853 38.1892 48.7469 38.1245C48.9086 38.0598 48.9733 37.9143 48.9733 37.6071C48.9733 37.2999 48.9571 37.1059 48.6338 37.2191C48.6128 37.2264 48.5917 37.2339 48.5703 37.2414C48.2614 37.3505 47.9008 37.4778 47.3565 37.4778C46.7744 37.4778 46.2085 37.2191 46.2247 36.3137H48.7146C48.9248 36.3137 49.1673 36.2813 49.1673 35.7801C49.1673 34.5998 48.7308 33.6297 47.1625 33.6297C45.5941 33.6297 45.0121 34.7615 45.0121 36.0388ZM48.0032 35.5214H46.2247C46.2247 35.2951 46.2894 34.4543 47.1625 34.4543C47.8609 34.4543 48.014 35.1657 48.0032 35.5214Z" fill="black"/>
<path fill-rule="evenodd" clip-rule="evenodd" d="M58.5287 33.6136C58.0598 33.6136 57.4616 33.7429 57.1544 33.9369C56.8472 34.131 56.7987 34.228 56.7987 34.4705C56.7987 34.713 56.831 34.9717 56.9927 34.9717C57.0789 34.9717 57.1927 34.912 57.3316 34.839C57.4532 34.7752 57.5941 34.7012 57.7526 34.6483C58.0921 34.5352 58.6903 34.4543 58.9652 34.6322C59.2401 34.81 59.2562 35.1496 59.2562 35.5699H58.4802C57.7203 35.5699 56.5562 35.8124 56.5562 37.0412C56.5562 37.8173 57.0574 38.3832 58.0921 38.3832C58.8035 38.3832 59.2886 37.979 59.4341 37.8011V38.1083C59.4341 38.2538 59.6766 38.3023 59.9191 38.3023C59.9352 38.3023 59.9515 38.3024 59.9678 38.3025C60.1989 38.3035 60.4527 38.3046 60.4527 38.1083V35.1657C60.4527 34.1633 59.903 33.6136 58.5287 33.6136ZM59.2562 37.0412V36.3298H58.6095C57.8819 36.3298 57.7364 36.7017 57.7364 36.9766C57.7364 37.2514 57.8658 37.5424 58.367 37.5424C58.768 37.5424 59.1269 37.2083 59.2562 37.0412Z" fill="black"/>
<path fill-rule="evenodd" clip-rule="evenodd" d="M85.3516 33.6136C84.0905 33.6136 83.0234 34.3088 83.0234 35.958C83.0234 37.6071 83.751 38.3832 85.2223 38.3832C86.6936 38.3832 87.5667 37.5263 87.5667 35.958C87.5667 34.3897 86.8714 33.6136 85.3516 33.6136ZM84.2522 35.958C84.2522 34.8747 84.8342 34.5513 85.3031 34.5513C85.7235 34.5513 86.3702 34.7777 86.3702 35.958C86.3702 37.1382 85.8205 37.4293 85.2708 37.4293C84.7211 37.4293 84.2522 37.0412 84.2522 35.958Z" fill="black"/>
<path fill-rule="evenodd" clip-rule="evenodd" d="M98.6418 36.0388C98.6418 37.4293 99.1592 38.3832 100.857 38.3832C101.617 38.3832 102.215 38.1892 102.377 38.1245C102.538 38.0598 102.603 37.9143 102.603 37.6071C102.603 37.2999 102.587 37.1059 102.264 37.2191C102.243 37.2264 102.221 37.2339 102.2 37.2414C101.891 37.3505 101.531 37.4778 100.986 37.4778C100.404 37.4778 99.8383 37.2191 99.8545 36.3137H102.344C102.555 36.3137 102.797 36.2813 102.797 35.7801C102.797 34.5998 102.361 33.6297 100.792 33.6297C99.2239 33.6297 98.6418 34.7615 98.6418 36.0388ZM101.633 35.5214H99.8545C99.8545 35.2951 99.9191 34.4543 100.792 34.4543C101.491 34.4543 101.644 35.1657 101.633 35.5214Z" fill="black"/>
<path d="M17.7688 0L11.1722 1.16411C7.308 4.52708 0 12.1261 0 21.8755C0 29.675 6.43492 36.3891 9.65238 38.7712H20.3557C24.8828 35.3921 28.2619 31.8351 28.2619 26.8876C28.2619 22.9297 24.0798 19.1161 21.9887 17.7041H15.8286C18.6095 19.7898 22.2635 23.3145 22.2635 26.8876C22.2635 30.4608 19.8222 33.8561 15.4082 37.7041C12.4333 35.4082 6.46726 29.0865 6.46726 20.4204C6.46726 10.9782 14.0016 2.87254 17.7688 0Z" fill="url(#paint0_linear_682_65)"/>
<path d="M14.8101 12.3848C14.8101 10.1374 16.6209 8.13258 19.2078 8.13258C21.7624 8.13258 23.7187 10.1859 23.7187 12.3848C23.7187 14.5837 21.536 16.5238 19.2078 16.5238C16.8796 16.5238 14.8101 14.6322 14.8101 12.3848Z" fill="url(#paint1_linear_682_65)"/>
<mask id="mask0_682_65" style="mask-type:alpha" maskUnits="userSpaceOnUse" x="14" y="8" width="10" height="9">
<path d="M14.8101 12.3848C14.8101 10.1374 16.6209 8.13258 19.2078 8.13258C21.7624 8.13258 23.7187 10.1859 23.7187 12.3848C23.7187 14.5837 21.536 16.5238 19.2078 16.5238C16.8796 16.5238 14.8101 14.6322 14.8101 12.3848Z" fill="url(#paint2_linear_682_65)"/>
</mask>
<g mask="url(#mask0_682_65)">
<path d="M17.5909 10.6225C17.5586 10.6117 17.4777 10.6031 17.4131 10.6548C17.3322 10.7195 17.2837 10.6548 17.2837 10.7518C17.2837 10.8488 17.2514 10.8973 17.1705 10.8327C17.0897 10.768 17.122 10.7195 17.0412 10.7033C16.9604 10.6872 16.9604 10.7357 16.928 10.6548C16.8957 10.574 16.8957 10.5416 16.928 10.5093C16.9604 10.477 16.9765 10.4123 16.928 10.38C16.8795 10.3476 16.831 10.3315 16.734 10.2991C16.637 10.2668 16.5723 10.2991 16.5076 10.2991C16.443 10.2991 16.443 10.3476 16.4106 10.3638C16.3783 10.38 16.2975 10.3315 16.2651 10.3153C16.2328 10.2991 16.2166 10.2344 16.1358 10.2668C16.0549 10.2991 16.0388 10.3476 16.0388 10.38C16.0388 10.4123 16.0064 10.477 15.9418 10.4931C15.8771 10.5093 15.8448 10.5578 15.8448 10.5901C15.8448 10.6225 15.8124 10.7195 15.7801 10.7357C15.7477 10.7518 15.6346 10.7357 15.6022 10.7842C15.5699 10.8327 15.5214 10.8812 15.5214 10.9297C15.5214 10.9782 15.4406 10.9297 15.4082 10.9943C15.3759 11.059 15.3274 11.1237 15.3274 11.156C15.3274 11.1884 15.3597 11.3177 15.3274 11.35C15.295 11.3824 15.2627 11.4956 15.2465 11.5117C15.2304 11.5279 15.1819 11.5117 15.1819 11.5926C15.1819 11.6734 15.2465 11.7704 15.1819 11.8351C15.1172 11.8998 15.101 11.9483 15.1334 11.9806C15.1657 12.0129 15.2465 12.0938 15.2465 12.1423C15.2465 12.1908 15.2465 12.2716 15.2789 12.3201C15.3112 12.3686 15.3759 12.4495 15.392 12.4818C15.4082 12.5142 15.4244 12.7082 15.5214 12.6758C15.6184 12.6435 15.6507 12.6273 15.6992 12.6112C15.7477 12.595 15.7962 12.6273 15.8448 12.6273C15.8933 12.6273 15.9256 12.595 15.9741 12.6112C16.0226 12.6273 16.0549 12.7243 16.1519 12.7243C16.249 12.7243 16.1681 12.7567 16.2328 12.8214C16.2975 12.886 16.3298 12.8699 16.346 12.9022C16.3621 12.9345 16.4106 13.0154 16.3783 13.0962C16.346 13.177 16.3136 13.2579 16.346 13.2902C16.3783 13.3226 16.4753 13.4842 16.5076 13.5327C16.54 13.5813 16.6208 13.6783 16.6208 13.7591C16.6208 13.8399 16.6693 13.9693 16.6693 14.034C16.6693 14.0986 16.6208 14.1471 16.6047 14.2441C16.5885 14.3412 16.6693 14.4705 16.6855 14.5028C16.7017 14.5352 16.8148 14.616 16.8472 14.6645C16.8795 14.713 16.8633 14.7777 16.8795 14.8747C16.8957 14.9717 16.9119 14.9879 16.9604 15.0526C17.0089 15.1172 17.0574 15.2304 17.0897 15.3112C17.122 15.3921 17.1382 15.4729 17.2029 15.5376C17.2676 15.6023 17.3161 15.6508 17.4131 15.6831C17.5101 15.7154 17.6233 15.7316 17.7364 15.7154C17.8496 15.6993 17.8981 15.6508 17.9628 15.6023C18.0275 15.5538 18.1245 15.4568 18.1891 15.4244C18.2538 15.3921 18.3023 15.3274 18.3023 15.2466C18.3023 15.1657 18.2861 14.9555 18.2861 14.8747C18.2861 14.7939 18.367 14.7777 18.4478 14.7454C18.5287 14.713 18.7065 14.6645 18.7227 14.6484C18.7389 14.6322 18.7712 14.5675 18.7389 14.5028C18.7065 14.4382 18.6903 14.3897 18.6742 14.2927C18.658 14.1956 18.6418 14.2118 18.5933 14.1148C18.5448 14.0178 18.5287 13.9693 18.5287 13.9046C18.5287 13.8399 18.4963 13.6136 18.5772 13.5327C18.658 13.4519 18.7227 13.4196 18.8197 13.2902C18.9167 13.1609 19.1107 13.0639 19.1592 12.9992C19.2077 12.9345 19.2886 12.8537 19.3532 12.789C19.4179 12.7243 19.4988 12.6758 19.5149 12.6112C19.5311 12.5465 19.5958 12.4818 19.5634 12.401C19.5311 12.3201 19.6119 12.1908 19.4826 12.2716C19.3532 12.3525 19.2886 12.401 19.1754 12.4495C19.0622 12.498 18.9814 12.5627 18.9167 12.4495C18.852 12.3363 18.7712 12.2716 18.7065 12.2716C18.6418 12.2716 18.561 12.1746 18.5448 12.11C18.5287 12.0453 18.4802 11.9644 18.4155 11.8674C18.3508 11.7704 18.3508 11.6896 18.3346 11.6087C18.3185 11.5279 18.2861 11.4794 18.2376 11.4147C18.1891 11.35 18.1406 11.2692 18.1245 11.1884C18.1083 11.1075 18.076 10.9943 18.1083 10.9782C18.1406 10.962 18.1891 10.9782 18.2215 11.0429C18.2538 11.1075 18.2376 11.1884 18.3023 11.2854C18.367 11.3824 18.464 11.4309 18.4802 11.5441C18.4963 11.6572 18.561 11.7543 18.6095 11.8351C18.658 11.9159 18.7227 12.0129 18.7874 12.0776C18.852 12.1423 18.852 12.2555 18.9652 12.2716C19.0784 12.2878 19.1592 12.2555 19.2562 12.207C19.3532 12.1585 19.4826 12.1746 19.5634 12.1423C19.6443 12.11 19.7736 11.9644 19.806 11.8836C19.8383 11.8028 19.9676 11.7381 19.9838 11.6411C20 11.5441 19.9676 11.4309 19.8868 11.4147C19.806 11.3986 19.7898 11.3177 19.6928 11.3662C19.5958 11.4147 19.6766 11.5117 19.5634 11.4632C19.4503 11.4147 19.4664 11.3662 19.3856 11.2692C19.3047 11.1722 19.1754 11.0105 19.1431 10.9782C19.1107 10.9458 19.1269 10.9458 19.2401 10.962C19.3532 10.9782 19.5149 11.0914 19.5958 11.156C19.6766 11.2207 19.7898 11.2369 19.8706 11.253C19.9515 11.2692 20.0485 11.35 20.097 11.35C20.1455 11.35 20.2263 11.2854 20.3233 11.2692C20.4203 11.253 20.485 11.253 20.5012 11.2854C20.5173 11.3177 20.5659 11.2369 20.6305 11.3177C20.6952 11.3986 20.8245 11.5279 20.8407 11.5926C20.8569 11.6572 20.873 11.7381 20.9216 11.7057C20.9701 11.6734 21.0347 11.5926 21.0671 11.6411C21.0994 11.6896 21.0832 11.7219 21.1317 11.8836C21.1802 12.0453 21.2449 12.207 21.3096 12.2716C21.3743 12.3363 21.4389 12.4171 21.5036 12.4657C21.5683 12.5142 21.6006 12.5303 21.6168 12.6112C21.633 12.692 21.5359 12.789 21.633 12.8214C21.73 12.8537 21.7946 12.9184 21.8431 12.8537C21.8916 12.789 22.0372 12.8052 21.9887 12.692C21.9401 12.5788 21.8916 12.5627 21.8431 12.4818C21.7946 12.401 21.7138 12.4495 21.6815 12.4657C21.6491 12.4818 21.5683 12.4657 21.6006 12.3686C21.633 12.2716 21.6976 12.2555 21.7138 12.1423C21.73 12.0291 21.6815 11.9321 21.7138 11.8836C21.7461 11.8351 21.7623 11.8351 21.8755 11.8028C21.9887 11.7704 22.0372 11.7219 22.0533 11.6411C22.0695 11.5602 22.118 11.4794 22.215 11.4147C22.312 11.35 22.3605 11.3662 22.409 11.4147C22.4575 11.4632 22.4737 11.5117 22.5707 11.6087C22.6677 11.7057 22.7162 11.8028 22.7486 11.8351C22.7809 11.8674 22.7647 11.6249 22.8294 11.7219C22.8941 11.8189 22.8941 11.9159 22.8941 11.9644C22.8941 12.0129 22.9426 12.1746 22.9587 12.207C22.9749 12.2393 22.9426 12.304 22.9587 12.3848C22.9749 12.4657 23.0234 12.5142 23.0234 12.5465C23.0234 12.5788 22.9264 12.5788 22.8779 12.5303C22.8294 12.4818 22.8132 12.5303 22.8617 12.6112C22.9102 12.692 22.9587 12.8052 22.9911 12.886C23.0234 12.9669 23.1043 13.08 23.1043 13.1447C23.1043 13.2094 23.1366 13.2741 23.2013 13.3387C23.2659 13.4034 23.2336 13.5004 23.3468 13.4842C23.46 13.4681 23.4923 13.4519 23.5085 13.3872C23.5246 13.3226 23.4114 13.3549 23.3306 13.3064C23.2498 13.2579 23.2336 13.2094 23.2821 13.1932C23.3306 13.177 23.3468 13.2256 23.2983 13.0962C23.2498 12.9669 23.2336 12.9345 23.2174 12.8699C23.2013 12.8052 23.2174 12.7082 23.2821 12.7243C23.3468 12.7405 23.3306 12.789 23.3629 12.8699C23.3953 12.9507 23.3953 13.08 23.5085 13.0962C23.599 13.1091 23.6432 13.1016 23.654 13.0962C23.6809 12.9992 23.738 12.7114 23.751 12.3363C23.6216 12.3686 23.5731 12.4818 23.557 12.401C23.5408 12.3201 23.6863 12.2231 23.557 12.2393C23.4276 12.2555 23.4438 12.3363 23.4438 12.401C23.4438 12.4657 23.3791 12.4657 23.3629 12.5465C23.3468 12.6273 23.3791 12.7405 23.3306 12.692C23.2821 12.6435 23.2659 12.6435 23.2013 12.595C23.1366 12.5465 23.1366 12.5788 23.1366 12.4818C23.1366 12.3848 23.1204 12.401 23.0719 12.3363C23.0234 12.2716 23.0881 12.2393 23.0557 12.1746C23.0234 12.11 22.9587 12.0938 22.9911 12.0453C23.0234 11.9968 23.0719 11.9806 23.1043 12.0453C23.1366 12.11 23.2174 12.1585 23.2336 12.1746C23.2498 12.1908 23.2821 12.207 23.2983 12.1261C23.3144 12.0453 23.3629 12.0129 23.3629 11.9483C23.3629 11.8836 23.3306 11.7704 23.2983 11.7219C23.2659 11.6734 23.2336 11.6087 23.1851 11.5117C23.1366 11.4147 23.0719 11.4147 23.1043 11.3177C23.1366 11.2207 23.1528 11.1237 23.2174 11.1075C23.2821 11.0914 23.3791 11.0914 23.4438 11.0752C23.4955 11.0623 23.5408 10.9943 23.557 10.962C23.6432 10.4392 23.5343 9.22555 22.409 8.55296C21.2837 7.88036 20.6683 8.06791 20.5012 8.24576C20.415 8.28349 20.2425 8.37835 20.2425 8.45595C20.2425 8.55296 20.2425 8.5853 20.1616 8.60147C20.0808 8.61763 19.9515 8.6338 19.8868 8.64997C19.8221 8.66614 19.7898 8.71464 19.7251 8.6338C19.6604 8.55296 19.6281 8.53679 19.5634 8.56913C19.4988 8.60147 19.4017 8.60147 19.4017 8.64997C19.4017 8.69847 19.3371 8.71464 19.2886 8.69847C19.2401 8.68231 19.2562 8.61763 19.1916 8.6338C19.1269 8.64997 19.0784 8.66614 19.0622 8.64997C19.046 8.6338 19.046 8.60147 18.9975 8.60147C18.949 8.60147 18.9167 8.66614 18.9167 8.69847C18.9167 8.73081 18.9005 8.74698 18.8359 8.74698C18.7712 8.74698 18.7065 8.73081 18.7065 8.69847C18.7065 8.66614 18.7389 8.6338 18.7227 8.5853C18.7065 8.53679 18.6257 8.50446 18.561 8.52062C18.4963 8.53679 18.367 8.52062 18.3023 8.5853C18.2376 8.64997 18.1568 8.69847 18.173 8.76315C18.1891 8.82782 18.1406 8.87632 18.173 8.941C18.2053 9.00567 18.2376 9.08651 18.173 9.10268C18.1083 9.11885 18.0275 9.11885 17.9789 9.16735C17.9304 9.21586 17.8334 9.32903 17.8173 9.31286C17.8011 9.2967 17.7364 9.19969 17.8173 9.16735C17.8981 9.13501 17.9466 9.11885 17.9789 9.07034C18.0113 9.02184 17.9951 9.00567 18.0113 8.941C18.0275 8.87632 18.0113 8.86016 18.0113 8.81165C18.0113 8.76315 18.0436 8.69847 17.9951 8.73081C17.9466 8.76315 17.8981 8.79548 17.8658 8.81165C17.8334 8.82782 17.7041 8.81165 17.6718 8.86016C17.6459 8.89896 17.6071 8.96255 17.5909 8.9895C17.6017 9.00567 17.6103 9.05094 17.5586 9.10268C17.4939 9.16735 17.4777 9.18352 17.4131 9.19969C17.3484 9.21586 17.2999 9.18352 17.2514 9.24819C17.2029 9.31286 17.1382 9.23202 17.1705 9.16735C17.2029 9.10268 17.2352 9.08651 17.2352 9.02184C17.2352 8.95716 17.219 8.92483 17.1705 8.89249C17.122 8.86016 17.0574 8.87632 17.0574 8.92483C17.0574 8.97333 17.0735 9.00567 17.0412 9.07034C17.0089 9.13501 17.0089 9.08651 16.9442 9.03801C16.8795 8.9895 16.8472 9.03801 16.8148 9.07034C16.7825 9.10268 16.7017 9.08651 16.734 9.16735C16.7663 9.24819 16.7502 9.31286 16.8148 9.3452C16.8795 9.37754 16.8795 9.44221 16.831 9.45838C16.7825 9.47455 16.7017 9.45838 16.7017 9.52305C16.7017 9.58772 16.734 9.6524 16.6855 9.68473C16.637 9.71707 16.6693 9.81408 16.5885 9.76557C16.5076 9.71707 16.5562 9.7009 16.4591 9.68473C16.3621 9.66856 16.3298 9.60389 16.2975 9.60389C16.2651 9.60389 16.2651 9.66856 16.2651 9.71707C16.2651 9.76557 16.2975 9.78174 16.2166 9.83024C16.1358 9.87875 16.1681 9.94342 16.1681 9.99193C16.1681 10.0404 16.0549 10.0728 16.1358 10.1051C16.2166 10.1374 16.2328 10.2021 16.2975 10.1859C16.3621 10.1698 16.3945 10.1536 16.4268 10.0566C16.4591 9.95959 16.4591 9.92725 16.5562 9.94342C16.6532 9.95959 16.6855 9.99193 16.7502 9.92725C16.8148 9.86258 16.734 9.76557 16.8957 9.76557C17.0574 9.76557 17.1382 9.76557 17.2514 9.79791C17.3646 9.83024 17.3969 9.89492 17.4454 9.94342C17.4939 9.99193 17.6233 9.97576 17.7526 9.99193C17.8819 10.0081 17.9304 10.0081 18.0113 9.92725C18.0921 9.84641 18.1568 9.76557 18.27 9.76557C18.3832 9.76557 18.4155 9.7009 18.5125 9.7494C18.6095 9.79791 18.5772 9.84641 18.6257 9.89492C18.6742 9.94342 18.8035 9.92725 18.7712 10.0081C18.7389 10.0889 18.7389 10.1374 18.6257 10.1374C18.5125 10.1374 18.5287 10.0889 18.3993 10.0728C18.27 10.0566 18.2053 10.0728 18.0921 10.0889C17.9789 10.1051 17.9466 10.0889 17.9466 10.1536C17.9466 10.2183 17.8981 10.2829 17.9466 10.3315C17.9951 10.38 18.0113 10.477 18.0921 10.4285C18.173 10.38 18.2376 10.2991 18.3346 10.3315C18.4317 10.3638 18.5448 10.3315 18.4963 10.3961C18.4478 10.4608 18.367 10.4931 18.27 10.5578C18.173 10.6225 18.1083 10.7195 18.1083 10.7357C18.1083 10.7518 18.1083 10.8165 17.9789 10.7842C17.8496 10.7518 17.7849 10.7518 17.6718 10.7518H17.6718C17.5586 10.7518 17.4616 10.7033 17.4939 10.7033C17.5198 10.7033 17.5801 10.6602 17.6071 10.6387L17.5909 10.6225Z" fill="url(#paint3_linear_682_65)"/>
<path d="M19.2562 14.1148C19.2077 14.1471 19.2239 14.228 19.1916 14.2603L19.1915 14.2603C19.1592 14.2927 19.1269 14.325 19.0946 14.3412C19.0622 14.3573 19.0299 14.3088 18.9975 14.4058C18.9652 14.5028 18.9652 14.519 18.9167 14.5028C18.8682 14.4867 18.852 14.4382 18.8359 14.519C18.8197 14.5998 18.9329 14.5675 18.9167 14.6484C18.9005 14.7292 18.8844 14.713 18.852 14.7939C18.8197 14.8747 18.7874 14.9232 18.8197 14.9717C18.852 15.0202 18.852 15.1011 18.8844 15.1334C18.9167 15.1657 19.0299 15.1981 19.0946 15.1819C19.1592 15.1657 19.2401 15.1496 19.2239 15.0687C19.2077 14.9879 19.1916 14.907 19.2562 14.8747C19.3209 14.8424 19.3371 14.81 19.3209 14.7777C19.3047 14.7454 19.3371 14.6645 19.3532 14.6484C19.3694 14.6322 19.3209 14.5675 19.3209 14.5028C19.3209 14.4382 19.3694 14.4058 19.3856 14.3735C19.4017 14.3412 19.3856 14.3088 19.3532 14.2441C19.3209 14.1795 19.3209 14.1471 19.3532 14.1148C19.3791 14.0889 19.2993 14.104 19.2562 14.1148Z" fill="url(#paint4_linear_682_65)"/>
</g>
<defs>
<linearGradient id="paint0_linear_682_65" x1="23.8642" y1="3.2983" x2="-10.8488" y2="22.5707" gradientUnits="userSpaceOnUse">
<stop offset="0.399265" stopColor="#DC6927"/>
<stop offset="0.484375" stopColor="#EDA722"/>
<stop offset="0.571292" stopColor="#E0622D"/>
</linearGradient>
<linearGradient id="paint1_linear_682_65" x1="15.9903" y1="10.2506" x2="22.8941" y2="13.1932" gradientUnits="userSpaceOnUse">
<stop stopColor="#1D90CF"/>
<stop offset="1" stopColor="#0A6FB4"/>
</linearGradient>
<linearGradient id="paint2_linear_682_65" x1="16.4754" y1="9.71706" x2="22.2474" y2="14.325" gradientUnits="userSpaceOnUse">
<stop stopColor="#F8EF21"/>
<stop offset="1" stopColor="#ABB837"/>
</linearGradient>
<linearGradient id="paint3_linear_682_65" x1="16.7311" y1="9.52201" x2="22.0514" y2="14.0412" gradientUnits="userSpaceOnUse">
<stop stopColor="#F8EF21"/>
<stop offset="1" stopColor="#ABB837"/>
</linearGradient>
<linearGradient id="paint4_linear_682_65" x1="16.7311" y1="9.52201" x2="22.0514" y2="14.0412" gradientUnits="userSpaceOnUse">
<stop stopColor="#F8EF21"/>
<stop offset="1" stopColor="#ABB837"/>
</linearGradient>
</defs>
</svg>
