<svg width="155" height="28" viewBox="0 0 155 28" fill="none" xmlns="http://www.w3.org/2000/svg">
<path d="M85.9169 8.42442C87.0057 8.42442 88.1664 8.58223 89.3989 8.89786C90.6519 9.21348 91.925 9.67587 93.2182 10.285L90.9676 14.0936L90.6282 13.9343C89.6277 13.4706 88.7856 13.1347 88.1019 12.9266C87.3419 12.6753 86.6123 12.5497 85.9131 12.5497C85.4614 12.5497 85.0919 12.6231 84.8046 12.7698C84.5375 12.8965 84.404 13.1065 84.404 13.4001C84.404 13.5689 84.4452 13.7167 84.5277 13.8433C84.6102 13.9479 84.7545 14.0528 84.9607 14.1582C85.1669 14.2633 85.4448 14.3789 85.7944 14.5049L86.0258 14.5693C86.3476 14.6567 86.7221 14.7509 87.1495 14.8517C88.3093 15.1482 89.2961 15.4634 90.1098 15.7973L90.2603 15.8601C91.1028 16.1979 91.7706 16.5768 92.2635 16.997C92.7767 17.3971 93.136 17.8594 93.3417 18.3841C93.5675 18.8887 93.6805 19.4768 93.6805 20.1482C93.6805 21.851 93.0438 23.1959 91.7704 24.183C90.5174 25.1721 88.8024 25.6667 86.6254 25.6667L86.6154 25.654C85.9379 25.654 85.2089 25.6014 84.4284 25.4963C83.6479 25.3913 82.8778 25.2548 82.118 25.0868C81.3795 24.9187 80.6608 24.7191 79.9616 24.4879C79.2644 24.2358 78.6595 23.9627 78.147 23.6686L80.3976 19.6036C81.5268 20.2128 82.605 20.6748 83.6321 20.9899C84.6593 21.3051 85.6147 21.4627 86.4985 21.4627C87.5256 21.4627 88.0391 21.2 88.0391 20.6747C88.0391 20.4013 87.8339 20.1597 87.4235 19.9498C87.013 19.7407 86.2333 19.4894 85.0844 19.1959L84.6622 19.0783C83.6971 18.8036 82.8726 18.5282 82.1887 18.2521C81.409 17.9384 80.7835 17.5917 80.3122 17.2117C79.8389 16.8136 79.5001 16.3834 79.2959 15.921C79.0896 15.4386 78.9865 14.8817 78.9865 14.2504C78.9865 13.4101 79.1509 12.6331 79.4797 11.9194C79.8287 11.2057 80.3112 10.5866 80.9273 10.0619C81.5431 9.53715 82.272 9.1381 83.114 8.86469C83.9761 8.57117 84.9104 8.42442 85.9169 8.42442ZM67.972 8.44854C70.5598 8.44854 72.552 9.03758 73.9485 10.2156C75.3449 11.3937 76.043 13.1588 76.043 15.5109V18.7255C76.043 19.2924 76.1461 19.6915 76.3524 19.9227C76.5586 20.1338 76.9288 20.2604 77.4629 20.3026V25.3446C76.9288 25.4491 76.4254 25.5225 75.9529 25.5647C75.4802 25.6291 75.0589 25.6612 74.6891 25.6612C73.642 25.6612 72.8411 25.4723 72.2865 25.0943C71.7523 24.6963 71.4027 24.1183 71.2378 23.3604L71.114 22.7633C70.3953 23.7102 69.5635 24.4349 68.6189 24.9375C67.6743 25.422 66.6678 25.6643 65.5994 25.6643L65.5909 25.654C64.79 25.654 64.0404 25.5173 63.342 25.2439C62.6438 24.9711 62.038 24.6035 61.5244 24.1411C61.0315 23.658 60.6413 23.0908 60.354 22.4394C60.0673 21.7881 59.9239 21.0843 59.9239 20.328C59.9239 19.4876 60.0987 18.7209 60.4483 18.0277C60.7979 17.3341 61.281 16.7353 61.8976 16.2313C62.5143 15.7271 63.2439 15.3384 64.0864 15.0652C64.9486 14.7922 65.8932 14.6557 66.9203 14.6557C68.2361 14.6557 69.3251 14.8658 70.1873 15.286V14.7818C70.1873 14.0044 69.9614 13.4266 69.5097 13.0484C69.0796 12.6705 68.3716 12.4815 67.3858 12.4815C66.5204 12.4815 65.7172 12.6199 64.9762 12.8966L64.8288 12.9538C64.0491 13.2493 63.2282 13.6906 62.366 14.2776L60.6722 10.5594C62.8081 9.15217 65.2414 8.44854 67.972 8.44854ZM120.776 8.44734C122.151 8.44734 123.376 8.66843 124.451 9.1106L124.597 9.17227C125.649 9.61154 126.535 10.2023 127.256 10.9446L127.369 11.063C128.089 11.8001 128.633 12.6598 129.003 13.6423L129.062 13.8072C129.451 14.8365 129.646 15.919 129.646 17.0549C129.646 17.3705 129.625 17.6962 129.584 18.0319C129.562 18.3475 129.531 18.631 129.49 18.8823H118.125C118.187 19.7649 118.505 20.4062 119.08 20.8062C119.655 21.1842 120.281 21.3731 120.959 21.3731C121.597 21.3731 122.193 21.2264 122.747 20.9329C123.322 20.6394 123.702 20.2303 123.887 19.7055L128.848 21.156C128.191 22.4808 127.175 23.5634 125.799 24.4038C124.443 25.2441 122.77 25.6643 120.778 25.6643V25.654C119.361 25.654 118.098 25.4334 116.989 24.9921C115.88 24.5297 114.945 23.9099 114.185 23.1327C113.446 22.3555 112.882 21.4626 112.491 20.454C112.101 19.4456 111.906 18.3846 111.906 17.2711C111.906 16.0737 112.09 14.9393 112.46 13.8678C112.849 12.7962 113.413 11.8614 114.154 11.0633C114.914 10.2648 115.838 9.63455 116.926 9.17257C118.033 8.68908 119.317 8.44734 120.776 8.44734ZM137.329 2.33363V18.3431C137.329 19.6036 137.831 20.2339 138.837 20.2339C139.082 20.2339 139.349 20.1917 139.638 20.1072C139.925 20.0234 140.192 19.9078 140.439 19.7604L141.179 24.5823C140.48 24.9186 139.688 25.1813 138.804 25.3702C137.942 25.5592 137.12 25.6537 136.339 25.6537C134.777 25.6537 133.576 25.2441 132.733 24.4249C131.89 23.6066 131.469 22.4205 131.469 20.8665V2.33574L131.478 2.33363H137.329ZM148.52 2.33363V18.3431C148.52 19.6036 149.023 20.2339 150.028 20.2339C150.274 20.2339 150.541 20.1917 150.829 20.1072C151.116 20.0234 151.383 19.9078 151.631 19.7604L152.37 24.5823C151.671 24.9186 150.879 25.1813 149.996 25.3702C149.134 25.5592 148.312 25.6537 147.53 25.6537C145.969 25.6537 144.768 25.2441 143.927 24.4249C143.085 23.6066 142.663 22.4205 142.663 20.8665V2.33574L142.666 2.33363H148.52ZM44.3601 2.96418V11.2207H51.6923V2.96418H57.6989V25.3389H51.6923V16.5781H44.3601V25.3383H38.3535V2.96418H44.3601ZM101.505 2.33333V14.9081L105.818 8.76246H111.979L106.403 16.0106L112.533 25.3389H106.341L102.675 19.2882L101.505 20.612V25.3383H95.6515V2.33333H101.505ZM67.9302 17.9017C67.2114 17.9017 66.6153 18.0796 66.142 18.4354C65.6687 18.7912 65.4321 19.2426 65.4321 19.7894C65.4321 20.2518 65.6069 20.6297 65.9564 20.9232C66.3257 21.2167 66.7872 21.3635 67.341 21.3635L67.3466 21.368C67.6958 21.368 68.0552 21.3155 68.4248 21.2106C68.7944 21.0844 69.1229 20.9267 69.4105 20.7378C69.6363 20.5697 69.8212 20.3911 69.9652 20.2019C70.1089 19.9918 70.1808 19.7817 70.1808 19.5717V18.3428C69.8312 18.2168 69.4512 18.1117 69.0407 18.0277C68.6283 17.9437 68.2581 17.9017 67.9302 17.9017ZM120.684 12.7017C119.944 12.7017 119.338 12.9328 118.867 13.3952C118.396 13.8576 118.108 14.4879 118.004 15.286H123.365C123.261 14.4879 122.973 13.8576 122.502 13.3952C122.029 12.9328 121.423 12.7017 120.684 12.7017Z" fill="#333333" fill-opacity="0.937"/>
<path d="M2.63037 25.3689L9.91959 14.1837L2.63037 2.99813H8.09728L15.3865 14.1837L8.09728 25.3689H2.63037Z" fill="#453A62"/>
<path d="M9.91943 25.3689L17.2087 14.1837L9.91943 2.99813H15.3863L29.9642 25.3689H24.4979L19.9424 18.3783L15.3861 25.3689H9.91943Z" fill="#5E5086"/>
<path d="M27.5353 18.8443L25.1055 15.1156H33.6096V18.8446H27.5353V18.8443ZM23.8907 13.252L21.4609 9.52332H33.6096V13.252H23.8907Z" fill="#8F4E8B"/>
</svg>
