<svg width="80" height="40" viewBox="0 0 80 40" fill="none" xmlns="http://www.w3.org/2000/svg">
<path d="M49.7536 15.7742C50.6691 15.7742 51.1102 16.2112 51.1102 17.1235V32.6535C51.1102 36.6505 48.1885 38.2385 45.1454 38.2385C44.0545 38.2385 43.3747 37.7973 43.3747 36.9162V35.5669C43.3747 34.9203 43.6404 34.3588 44.7043 34.2405C45.5595 34.1533 46.4178 33.6821 46.4178 32.3027V17.1235C46.4178 16.2143 46.8589 15.7742 47.7744 15.7742H49.7536ZM24.676 15.3601C30.1363 15.3601 31.6143 18.5402 31.6143 23.1267C31.6143 27.7131 30.1363 30.8891 24.676 30.8891C19.2125 30.8891 17.7345 27.7163 17.7345 23.1267C17.7345 18.5371 19.2156 15.3601 24.676 15.3601ZM59.8368 15.3601C65.1529 15.3601 66.1555 17.6248 66.1555 20.9191V29.133C66.1555 30.0411 65.7144 30.4823 64.799 30.4823H64.1763C63.4393 30.4823 63.1726 30.2467 62.7896 29.5699L62.6713 29.3624C61.6075 30.3006 60.1025 30.8891 58.3329 30.8891C54.5819 30.8891 53.3126 28.42 53.3126 26.2123C53.3126 22.2414 56.2353 21.656 58.8902 21.3903L61.5805 21.1246V20.1822C61.5805 19.5055 61.1062 19.1567 59.8368 19.1567C58.2727 19.1567 56.502 19.6238 56.0869 19.7141C54.9047 19.9756 54.229 19.273 54.229 18.3876V17.5936C54.229 16.6595 54.7003 16.2112 55.2887 16.0368C56.7656 15.5994 58.2966 15.3716 59.8368 15.3601ZM37.7732 12.1001C39.0124 11.7762 39.5438 12.3917 39.5438 13.304V15.7742H41.849C42.7644 15.7742 43.2097 16.2112 43.2097 17.1235V18.3347C43.2097 19.2439 42.7644 19.684 41.849 19.684H39.5459V25.2969C39.5459 26.4448 39.9912 27.0946 41.4951 27.0946H41.7919C42.4686 27.0946 43.0613 27.5616 43.0613 28.3286V29.298C43.08 30.0218 42.5631 30.649 41.849 30.7687C41.4116 30.8501 40.9675 30.8894 40.5226 30.886C36.3284 30.886 34.8235 29.1496 34.8235 25.6809V19.6809H33.6725C32.756 19.6809 32.3118 19.2439 32.3118 18.3316V17.6549C32.3118 16.8951 32.6387 16.508 33.4929 16.2724L34.8235 15.9185L34.8214 13.9807C34.8214 13.1328 35.1743 12.8058 36.2381 12.51L37.7732 12.1001ZM5.37005 8.42175C6.28548 8.42175 6.7297 8.85975 6.7297 9.77102V16.3025C7.91062 15.6717 9.23111 15.3476 10.5699 15.3601C14.5855 15.3601 15.7376 17.4764 15.7376 20.2994V29.1268C15.7376 30.0349 15.2923 30.476 14.3769 30.476H12.3655C11.4501 30.476 11.0058 30.038 11.0058 29.1268V21.0063C11.0058 19.9196 10.6218 19.1827 9.35246 19.1827C8.42363 19.1953 7.51581 19.4608 6.72658 19.9507V29.1268C6.72658 30.0349 6.28236 30.476 5.36694 30.476H3.36068C2.44526 30.476 2 30.038 2 29.1268V9.77102C2 8.86286 2.44526 8.42175 3.36068 8.42175H5.37005ZM76.2563 15.358C77.5848 15.358 78 15.8593 78 16.6803V17.8967C78 18.7748 77.5008 19.246 76.6705 19.246C75.0171 19.246 73.6606 19.7431 73.2776 20.0971V29.1268C73.2776 30.0349 72.8323 30.476 71.9169 30.476H69.9106C68.9952 30.476 68.5499 30.038 68.5499 29.1268V17.1183C68.5499 16.2091 68.9952 15.769 69.9106 15.769H70.6475C71.4727 15.769 71.563 16.0949 71.9781 16.8287C72.715 16.1219 74.5459 15.358 76.2563 15.358ZM61.5815 23.6851L59.6022 23.9477C58.2727 24.1262 57.7403 24.7717 57.7403 25.9197C57.7403 27.0063 58.4512 27.6561 59.4538 27.6561C60.309 27.6561 61.1072 27.4205 61.5815 26.9492V23.6851ZM24.676 19.1256C23.0496 19.1256 22.4611 20.1853 22.4611 23.1267C22.4611 26.0681 23.0527 27.1236 24.676 27.1236C26.2992 27.1236 26.8877 26.0712 26.8877 23.1267C26.8877 20.1822 26.2992 19.1256 24.676 19.1256Z" fill="#1D1D1B"/>
<path d="M53.1009 5.59141C51.3645 2.44969 46.2695 1.76157 46.2695 1.76157C46.2695 1.76157 48.6213 4.37914 45.6156 6.45078C43.7162 7.7575 42.9638 9.4555 43.7775 11.3102C44.4002 12.7311 45.7183 13.3082 47.1403 13.5251C46.7749 12.8224 46.6836 11.8074 46.9534 10.7664C46.9804 10.6626 47.0105 10.5536 47.0448 10.455C47.4433 11.0715 48.0972 11.4088 48.7355 11.2531C49.6094 11.0456 50.1221 9.98794 49.8834 8.90126C49.8289 8.66555 49.7404 8.43901 49.6208 8.2287C49.6551 8.237 49.6893 8.24012 49.7246 8.25153C50.8155 8.5629 51.3427 10.1934 50.9026 11.8956C50.7723 12.4112 50.5523 12.8998 50.2529 13.3393C52.1253 12.7363 53.3708 11.2261 53.7133 9.88103C54.0744 8.48091 53.8004 6.84934 53.1009 5.59141Z" fill="#FD3A5C"/>
</svg>
