<svg width="24" height="24" viewBox="0 0 24 24" fill="none" xmlns="http://www.w3.org/2000/svg">
<path fill-rule="evenodd" clip-rule="evenodd" d="M0.608964 4.93853C0 6.4087 0 8.27247 0 12C0 15.7275 0 17.5913 0.608964 19.0615C1.42092 21.0217 2.97831 22.5791 4.93853 23.391C6.4087 24 8.27247 24 12 24C15.7275 24 17.5913 24 19.0615 23.391C21.0217 22.5791 22.5791 21.0217 23.391 19.0615C24 17.5913 24 15.7275 24 12C24 8.27247 24 6.4087 23.391 4.93853C22.5791 2.97831 21.0217 1.42092 19.0615 0.608964C17.5913 0 15.7275 0 12 0C8.27247 0 6.4087 0 4.93853 0.608964C2.97831 1.42092 1.42092 2.97831 0.608964 4.93853ZM3.54901 3.75631C2.18667 5.20097 2.18667 7.46732 2.18667 12C2.18667 16.5327 2.18667 18.799 3.54901 20.2437C3.61607 20.3148 3.6852 20.3839 3.75631 20.451C5.20097 21.8133 7.46732 21.8133 12 21.8133C16.5327 21.8133 18.799 21.8133 20.2437 20.451C20.3148 20.3839 20.3839 20.3148 20.451 20.2437C21.8133 18.799 21.8133 16.5327 21.8133 12C21.8133 7.46732 21.8133 5.20097 20.451 3.75631C20.3839 3.6852 20.3148 3.61607 20.2437 3.54901C18.799 2.18667 16.5327 2.18667 12 2.18667C7.46732 2.18667 5.20097 2.18667 3.75631 3.54901C3.6852 3.61607 3.61607 3.6852 3.54901 3.75631Z" fill="#1F0048"/>
<path fill-rule="evenodd" clip-rule="evenodd" d="M12 18.2133C15.4315 18.2133 18.2133 15.4315 18.2133 12C18.2133 8.56849 15.4315 5.78668 12 5.78668C8.56843 5.78668 5.78662 8.56849 5.78662 12C5.78662 15.4315 8.56843 18.2133 12 18.2133ZM12 16C14.2091 16 16 14.2091 16 12C16 9.79087 14.2091 8.00001 12 8.00001C9.79083 8.00001 7.99997 9.79087 7.99997 12C7.99997 14.2091 9.79083 16 12 16Z" fill="#1F0048"/>
<circle cx="18.4535" cy="5.57333" r="1.46667" fill="#1F0048"/>
</svg>
