<svg width="208" height="30" viewBox="0 0 208 30" fill="none" xmlns="http://www.w3.org/2000/svg">
<path d="M163.175 14.8745V5.57454C163.175 5.37454 163.2 5.32454 163.424 5.32454H168.014C168.212 5.32454 168.236 5.37454 168.236 5.54999V14.4245C168.262 14.4745 168.262 14.5 168.286 14.55C168.335 14.5245 168.385 14.5245 168.41 14.4745C168.534 14.3245 168.634 14.1745 168.757 14.0245C169.378 13.25 170.023 12.4745 170.643 11.7C170.743 11.5745 170.842 11.55 170.991 11.55H176.027C176.052 11.55 176.126 11.5745 176.126 11.6C176.126 11.6245 176.126 11.6745 176.101 11.7C175.779 12.0745 175.481 12.45 175.158 12.85L172.33 16.3C172.106 16.5811 171.874 16.856 171.635 17.1245C171.561 17.2245 171.561 17.3 171.635 17.3745C172.305 18.1745 172.975 18.9745 173.67 19.8C174.489 20.8 175.332 21.8 176.151 22.7745C176.548 23.25 176.944 23.7245 177.342 24.1745C177.366 24.2 177.366 24.25 177.392 24.3C177.342 24.3245 177.317 24.35 177.267 24.35H171.784C171.736 24.3531 171.687 24.3431 171.643 24.321C171.6 24.299 171.563 24.2656 171.536 24.2245C170.693 23.2245 169.874 22.2 169.031 21.2C168.862 20.9723 168.68 20.7552 168.484 20.55C168.46 20.5 168.385 20.4745 168.335 20.45C168.308 20.4957 168.291 20.547 168.286 20.6V24.15C168.286 24.3 168.262 24.3245 168.063 24.3245H163.498C163.224 24.3245 163.225 24.3245 163.225 24.05C163.175 21.05 163.175 17.9745 163.175 14.8745ZM140.944 15.5245C140.524 15.5245 140.151 15.6 139.779 15.8C139.233 16.1245 138.935 16.6 138.811 17.1745C138.712 17.6 138.762 18.05 138.911 18.4745C139.084 19 139.456 19.3245 140.002 19.4745C140.481 19.5956 140.983 19.6043 141.466 19.5C142.086 19.3745 142.533 19 142.706 18.4C142.88 17.7745 142.88 17.1245 142.632 16.5C142.458 16.1245 142.185 15.85 141.788 15.7245C141.515 15.6245 141.218 15.5745 140.944 15.5245ZM140.746 24.6245C140.126 24.65 139.481 24.55 138.861 24.3745C138.241 24.2 137.645 23.9 137.099 23.55C136.442 23.1282 135.856 22.605 135.363 22C134.949 21.5228 134.614 20.9827 134.37 20.4C133.899 19.2745 133.75 18.1 133.849 16.9C133.899 16.3 134.023 15.7245 134.246 15.15C134.594 14.1745 135.139 13.35 135.859 12.6245C136.444 12.0291 137.134 11.5462 137.894 11.2C138.265 11.0245 138.663 10.9 139.084 10.8C139.871 10.6042 140.685 10.5449 141.491 10.6245C142.012 10.6745 142.508 10.75 143.004 10.9C143.505 11.0566 143.987 11.2659 144.443 11.5245C145.064 11.9 145.609 12.3745 146.105 12.9C146.55 13.3738 146.918 13.9135 147.197 14.5C147.42 14.9745 147.594 15.4745 147.718 15.9745C147.917 16.8951 147.942 17.8447 147.793 18.7745C147.718 19.3751 147.542 19.9585 147.272 20.5C146.626 21.85 145.609 22.8745 144.369 23.6745C143.812 24.0256 143.199 24.2792 142.557 24.4245C141.962 24.55 141.392 24.65 140.746 24.6245ZM79.069 17.6C79.069 17.6745 79.0944 17.85 79.0944 18C79.1935 18.7245 79.5899 19.25 80.3099 19.45C80.9299 19.6245 81.5753 19.6245 82.1953 19.3745C82.6662 19.1745 82.9644 18.8245 83.1135 18.35C83.2617 17.85 83.2617 17.3745 83.1381 16.85C82.9644 16.1 82.4435 15.6745 81.749 15.5745C81.2281 15.5 80.6817 15.5 80.1608 15.6745C79.8135 15.8 79.5153 16.0245 79.3171 16.35C79.119 16.7245 79.069 17.1245 79.069 17.6ZM88.1744 17.8C88.1744 18.25 88.0999 18.9 87.9017 19.5245C87.6544 20.3398 87.259 21.1026 86.7353 21.7745C86.2406 22.3981 85.6649 22.953 85.0235 23.4245C84.5771 23.7245 84.1053 24 83.6099 24.2C82.6171 24.6 81.5753 24.7 80.508 24.6245C79.9063 24.5658 79.3144 24.4314 78.7462 24.2245C77.3826 23.7 76.3153 22.8 75.4226 21.6745C75.062 21.2102 74.7694 20.6968 74.5535 20.15C74.3607 19.6592 74.2276 19.1471 74.1571 18.6245C74.1071 18.1 74.0571 17.6 74.1071 17.0745C74.1491 16.3618 74.3085 15.6608 74.579 15C75.0499 13.8745 75.7699 12.95 76.6881 12.1745C77.1778 11.7576 77.73 11.4201 78.3244 11.1745C79.4662 10.7 80.6326 10.5745 81.848 10.65C82.3935 10.7 82.939 10.8 83.4608 10.9745C84.3044 11.2745 85.0481 11.7245 85.7181 12.3245C86.3462 12.8781 86.8823 13.528 87.3062 14.25C87.5096 14.6364 87.6838 15.0375 87.8271 15.45C88.0999 16.1 88.1744 16.8245 88.1744 17.8ZM96.3862 19.5745C96.4608 19.5745 96.5599 19.5745 96.6344 19.55C97.0071 19.5 97.3544 19.4245 97.6517 19.2C97.999 18.9245 98.1971 18.5745 98.2471 18.15C98.3217 17.6245 98.3217 17.1 98.1481 16.6C97.9499 16.0245 97.5026 15.7245 96.9571 15.6245C96.4117 15.5245 95.8408 15.5245 95.2944 15.7C94.749 15.9 94.4017 16.2745 94.2526 16.8245C94.1289 17.3 94.1289 17.7991 94.2526 18.2745C94.3517 18.6245 94.5008 18.9245 94.799 19.15C95.2699 19.5 95.8162 19.55 96.3862 19.5745ZM96.2381 24.6245C95.6171 24.65 94.9971 24.55 94.3517 24.3745C93.7139 24.2028 93.1098 23.9239 92.5653 23.55C91.664 22.9576 90.8885 22.1929 90.2835 21.3C89.9612 20.8132 89.7105 20.2826 89.539 19.7245C89.2662 18.8245 89.1662 17.9245 89.2408 17C89.287 16.3759 89.4207 15.7614 89.638 15.1745C90.0108 14.1745 90.5808 13.35 91.3253 12.6C91.906 12.0104 92.5861 11.5279 93.3344 11.1745C93.9022 10.9213 94.5041 10.7528 95.1208 10.6745C95.6917 10.6 96.2381 10.55 96.8081 10.6C97.1808 10.6245 97.5526 10.7 97.9244 10.7745C98.2226 10.8245 98.4953 10.9245 98.7681 11.0245C99.1153 11.1745 99.4881 11.3245 99.8099 11.5245C100.554 11.95 101.2 12.55 101.745 13.2245C102.192 13.7745 102.564 14.3745 102.813 15.0245C103.209 16.0745 103.358 17.15 103.259 18.25C103.192 19.0018 102.999 19.7369 102.688 20.4245C102.242 21.3745 101.596 22.2 100.803 22.9C100.207 23.4245 99.5617 23.8745 98.8181 24.1745C97.9956 24.4912 97.1192 24.6441 96.2381 24.6245Z" fill="black"/>
<path d="M183.122 15.1745C182.899 15.2 182.651 15.2245 182.427 15.3C181.956 15.45 181.559 15.7245 181.286 16.1245C181.137 16.3245 181.038 16.5245 180.939 16.75C180.915 16.7745 180.939 16.85 180.939 16.9C180.939 16.9 180.988 16.9245 181.014 16.9245C181.485 16.8245 181.931 16.7245 182.403 16.6L183.743 16.3C184.016 16.2245 184.313 16.1745 184.586 16.1C184.71 16.0745 184.735 16.0245 184.636 15.9245C184.239 15.4745 183.743 15.2 183.122 15.1745ZM183.023 24.6245C182.378 24.65 181.757 24.55 181.137 24.3745C180.493 24.2 179.897 23.9 179.326 23.5245C178.413 22.9372 177.634 22.1618 177.044 21.25C176.722 20.772 176.471 20.2499 176.299 19.7C175.903 18.5 175.878 17.3 176.126 16.0745C176.278 15.3178 176.573 14.5969 176.995 13.95C177.441 13.2245 177.986 12.55 178.632 12C179.148 11.5818 179.726 11.2446 180.344 11C181.386 10.5745 182.477 10.5 183.569 10.55C184.148 10.5764 184.723 10.6685 185.281 10.8245C186.099 11.05 186.819 11.45 187.489 12C188.184 12.5745 188.729 13.2745 189.176 14.05C189.399 14.4745 189.623 14.9245 189.796 15.3745C189.995 15.85 190.094 16.35 190.094 16.85C190.094 17 190.045 17.05 189.896 17.0745C189.424 17.1745 188.927 17.2745 188.456 17.4C188.035 17.5 187.613 17.5745 187.191 17.6745C186.769 17.7745 186.323 17.8745 185.901 17.95C185.479 18.05 185.057 18.1245 184.636 18.2245C184.189 18.3245 183.717 18.4245 183.271 18.5245C182.849 18.6245 182.453 18.7 182.031 18.8C181.832 18.85 181.609 18.8745 181.41 18.9245C181.386 18.9245 181.336 18.9745 181.336 18.9745C181.361 19.0245 181.361 19.0745 181.41 19.1C181.634 19.2745 181.832 19.4245 182.056 19.6C182.427 19.9 182.875 19.9245 183.346 19.8745C183.966 19.8 184.437 19.5 184.809 19.0245C185.008 18.7745 185.008 18.7745 185.256 18.95C185.777 19.2745 186.273 19.6 186.794 19.95C187.464 20.3745 188.158 20.8245 188.828 21.25C189.052 21.4 189.052 21.4 188.854 21.6C188.406 22.0745 187.985 22.55 187.514 23C187.241 23.25 186.943 23.4745 186.646 23.6745C186.273 23.9 185.851 24.1 185.43 24.25C184.774 24.4752 184.089 24.6015 183.396 24.6245H183.023ZM65.251 15.8745C65.251 13.1745 65.2255 10.45 65.251 7.75C65.251 6.95 65.6228 6.32455 66.2928 5.87455C66.7892 5.52455 67.3346 5.4 67.9301 5.4H74.7782C75.1746 5.37455 75.1246 5.42455 75.1246 5.75V9.6C75.1246 9.82455 75.1001 9.85 74.8519 9.85H71.5028C71.2792 9.85 71.0564 9.87455 70.8573 9.95C70.461 10.1 70.2873 10.45 70.2873 10.85C70.2619 11.45 70.2873 12.0745 70.2619 12.6745V13.0245C70.2619 13.15 70.3119 13.1745 70.4355 13.1745H72.6446C72.9419 13.1745 72.9419 13.1745 72.9419 13.4745V17.3745C72.9419 17.6245 72.9164 17.65 72.6692 17.65H70.4355C70.2628 17.65 70.2373 17.6745 70.2373 17.85V24.25C70.2373 24.3745 70.1882 24.4245 70.0637 24.4245H65.3255C65.201 24.4245 65.1764 24.3745 65.1764 24.2745C65.251 21.45 65.251 18.6745 65.251 15.8745ZM106.137 19V15.7745C106.137 15.6 106.112 15.55 105.914 15.55H104.276C104.127 15.55 104.078 15.5245 104.078 15.35V11.25C104.078 11.1 104.103 11.0745 104.276 11.0745H105.889C106.087 11.0745 106.112 11.05 106.112 10.85V6.75C106.112 6.57455 106.137 6.55 106.311 6.55H110.851C111.049 6.55 111.075 6.57455 111.075 6.77455C111.075 7.55 111.075 8.3 111.099 9.07455C111.099 9.65 111.099 10.25 111.124 10.8245C111.124 11.05 111.149 11.0745 111.372 11.0745H112.836C112.985 11.0745 113.035 11.1245 113.035 11.2745V15.35C113.035 15.5245 112.985 15.55 112.836 15.55H111.372C111.174 15.55 111.149 15.5745 111.149 15.7745V18.7C111.149 18.95 111.149 19.2 111.273 19.45C111.422 19.7245 111.62 19.8745 111.918 19.9245C112.042 19.95 112.191 19.95 112.315 19.95H113.729C113.952 19.95 113.977 19.9745 113.977 20.2V24.1745C113.977 24.3745 113.952 24.4 113.778 24.4H108.717C108.072 24.4 107.476 24.2 106.981 23.8C106.435 23.35 106.137 22.75 106.137 22.0245V19ZM156.154 24.6245C155.491 24.6431 154.83 24.5588 154.194 24.3745C153.556 24.2028 152.952 23.924 152.407 23.55C151.565 22.9745 150.82 22.3 150.225 21.45C149.827 20.9245 149.555 20.3245 149.356 19.7C149.08 18.7941 148.987 17.8422 149.083 16.9C149.183 15.9245 149.431 15.0245 149.926 14.1745C150.474 13.2568 151.199 12.4578 152.06 11.8245C152.573 11.4457 153.142 11.1505 153.747 10.95C154.864 10.6 156.006 10.4745 157.171 10.65C157.593 10.7245 158.039 10.8 158.436 10.9245C159.032 11.1 159.553 11.4 160.074 11.75C160.818 12.2745 161.414 12.9245 161.935 13.6745C162.009 13.7745 161.985 13.8245 161.886 13.8745C160.967 14.45 160.074 15.0245 159.156 15.6C158.759 15.85 158.362 16.1 157.99 16.35C157.792 16.4745 157.792 16.4745 157.643 16.2745C157.469 16.1 157.296 15.9245 157.096 15.7745C156.799 15.55 156.452 15.5 156.079 15.5245C155.757 15.55 155.435 15.55 155.136 15.6745C154.69 15.85 154.367 16.1245 154.169 16.5745C153.946 17.1245 153.946 17.7 154.095 18.2745C154.219 18.8 154.541 19.1745 155.063 19.3745C155.633 19.5745 156.204 19.6245 156.775 19.45C157.122 19.35 157.395 19.1245 157.618 18.85C157.643 18.8245 157.667 18.7745 157.717 18.75C157.766 18.7 157.816 18.7 157.891 18.7245C158.933 19.4 159.999 20.0745 161.042 20.75C161.315 20.9245 161.612 21.1245 161.886 21.3C161.985 21.35 161.985 21.4245 161.935 21.5C161.315 22.4 160.57 23.1745 159.603 23.7245C158.908 24.1245 158.139 24.4245 157.345 24.5245C156.948 24.5745 156.551 24.6245 156.154 24.65V24.6245ZM123.381 13.9V5.6C123.381 5.37455 123.406 5.35 123.629 5.35H128.119C128.318 5.35 128.343 5.4 128.343 5.6V18.6245C128.343 18.8 128.367 19 128.392 19.1745C128.442 19.5745 128.789 19.9 129.186 19.95C129.36 19.9745 129.534 19.9745 129.683 19.9745H133.032C133.206 19.9745 133.23 19.9991 133.23 20.1991V24.25C133.23 24.3745 133.181 24.4245 133.056 24.4245H125.688C125.216 24.4245 124.746 24.3245 124.324 24.0745C123.976 23.8736 123.711 23.5541 123.579 23.1745C123.43 22.7491 123.381 22.3245 123.381 21.8745V13.8991V13.9ZM191.484 18.5745V13.3745C191.484 13.05 191.508 12.7 191.558 12.3745C191.707 11.65 192.128 11.1245 192.873 10.9C193.228 10.8012 193.596 10.7507 193.965 10.75H199.968C200.167 10.75 200.216 10.7745 200.216 11V14.9745C200.216 15.2 200.192 15.2245 199.968 15.2245H197.711C197.463 15.2245 197.215 15.2745 196.991 15.35C196.644 15.4745 196.52 15.7745 196.47 16.1245C196.446 16.25 196.47 16.3745 196.47 16.5V24.2745C196.47 24.4 196.421 24.45 196.296 24.45H191.657C191.484 24.45 191.459 24.4245 191.459 24.2745C191.484 22.3245 191.484 20.45 191.484 18.5745ZM38.7037 19.8755V15.45H35.4782C35.0073 15.45 34.7591 15.65 34.7591 16.1745V19.1245C34.7591 19.65 35.0319 19.85 35.4782 19.85H38.7037V19.8745V19.8755ZM43.691 5.3V24.35H35.1546C31.2846 24.35 30.0446 22.1745 30.0446 18.9V16.2255C30.0446 13.1 31.0119 10.9755 35.1555 10.9755H38.7028V5.3H43.6901H43.691ZM28.3328 11.05H23.2228V24.4H28.3328V11.05ZM16.0273 24.4L12.3555 18.3755V24.4H7.36914V5.35H12.3555V12.1255L15.6801 5.35H20.9155L15.9037 14.8755L21.5601 24.4H16.0282H16.0273ZM50.5637 15.15H55.8473V11.0245H46.8419C45.9982 11.0245 45.3528 11.65 45.3528 12.5V18.1C45.3528 18.5 45.6755 18.8245 46.0728 18.8245H50.861V20C50.861 20.15 50.761 20.25 50.6128 20.25H45.3273V24.3745H54.3337C55.1773 24.3745 55.8219 23.75 55.8219 22.9V17.3C55.8226 17.1085 55.7473 16.9245 55.6124 16.7885C55.4776 16.6525 55.2943 16.5755 55.1028 16.5745H50.3137V15.4C50.3137 15.25 50.4137 15.15 50.5619 15.15H50.5637ZM28.3328 7.72546C28.3111 8.38864 28.0324 9.01741 27.5556 9.47887C27.0789 9.94033 26.4413 10.1983 25.7778 10.1983C25.1142 10.1983 24.4767 9.94033 23.9999 9.47887C23.5231 9.01741 23.2444 8.38864 23.2228 7.72546C23.2444 7.06228 23.5231 6.4335 23.9999 5.97204C24.4767 5.51058 25.1142 5.25258 25.7778 5.25258C26.4413 5.25258 27.0789 5.51058 27.5556 5.97204C28.0324 6.4335 28.3111 7.06228 28.3328 7.72546Z" fill="black"/>
</svg>
