<svg width="100" height="40" viewBox="0 0 100 40" fill="none" xmlns="http://www.w3.org/2000/svg">
<path d="M16.6335 3.51089L30.767 11.7539V28.2461L16.6335 36.4891L2.5 28.2461V11.7539L16.6335 3.51089ZM16.6335 5.36396L4.07039 12.6922V27.3078L16.6335 34.6353L29.1966 27.3078V12.6922L16.6335 5.36396ZM89.8491 16.2413L91.6864 22.7961L93.6211 16.2413H97.5L92.7613 29.8126L92.5572 30.3073C91.8835 31.8109 90.6947 32.5631 88.9901 32.5631C88.4846 32.5585 87.982 32.4862 87.4958 32.348V29.7584H87.9685C88.4773 29.7584 88.866 29.6854 89.1345 29.5386C89.4031 29.3917 89.6025 29.1279 89.7313 28.7486L90.0218 27.9752L85.9812 16.2413H89.8491ZM78.4166 11.3628V17.1757C79.0895 16.4093 79.9603 16.0261 81.0274 16.0261C82.4745 16.0261 83.5918 16.5459 84.3802 17.584C85.1677 18.6228 85.5619 20.084 85.5619 21.9685V22.1507H85.5627C85.5627 24.0563 85.1677 25.5215 84.3802 26.5462C83.5918 27.5701 82.4816 28.082 81.0494 28.082C79.8669 28.082 78.9136 27.6133 78.1913 26.6749L78.0405 27.8677H74.7953V11.3628H78.4166ZM50.2422 12.2226V19.1206L51.5535 17.1333L54.9275 12.2226H59.5916L54.3041 19.1426L59.5916 27.8677H55.1214L51.7906 22.0439H51.7899L50.243 23.7415V27.8677H46.4709V12.2226H50.2422ZM64.2006 16.2413V27.8677H60.5683V16.2413H64.2006ZM72.5174 16.0261C72.9038 16.0261 73.2406 16.0693 73.5272 16.1549L73.4628 19.5187L72.2701 19.4323C71.1316 19.4323 70.4006 19.7904 70.0778 20.5072V27.8677H66.4573V16.2413H69.8525L69.9703 17.7347C70.5796 16.5962 71.4284 16.0261 72.5174 16.0261ZM22.9151 16.074V20L18.9891 22.0337V22.3556H22.9151V25.4964H10.352V22.3556H14.2779V22.0125L10.352 20V16.074L16.6335 19.448L22.9151 16.074ZM80.1142 18.8198C79.2976 18.8198 78.7323 19.1316 78.4166 19.7542V24.3751C78.7244 24.9915 79.2976 25.2993 80.1362 25.2993C80.9881 25.2993 81.5291 24.8839 81.7584 24.0532C81.873 23.6449 81.9304 22.9351 81.9304 21.9253C81.9304 20.808 81.7812 20.011 81.4844 19.5344C81.1868 19.0585 80.7306 18.8198 80.1142 18.8198ZM62.3711 11.3628C63.4553 11.3628 64.3341 12.2417 64.3341 13.3258C64.3341 14.41 63.4553 15.2888 62.3711 15.2888C61.287 15.2888 60.4082 14.41 60.4082 13.3258C60.4082 12.2417 61.287 11.3628 62.3711 11.3628Z" fill="black"/>
</svg>
