<svg width="24" height="24" viewBox="0 0 24 24" fill="none" xmlns="http://www.w3.org/2000/svg">
<path d="M3 0C1.63043 0 0 1.1087 0 2.93478C0 4.76087 1.63043 5.86957 3 5.86957C4.36957 5.86957 5.86957 4.63043 5.86957 2.93478C5.86957 1.23913 4.5 0 3 0Z" fill="#1F0048"/>
<path d="M0.456522 7.95652H5.41304V24H0.456522V7.95652Z" fill="#1F0048"/>
<path d="M8.54348 7.95652V24H13.5V15.587C13.5 13.5 14.2826 11.9348 16.3043 11.9348C18.3261 11.9348 19.0435 13.0435 19.0435 15.587V24H24V14.6739C24 10.6957 22.7609 7.56522 18.1304 7.56522C15.4174 7.56522 13.7826 9.34783 13.3043 10.2391V7.95652H8.54348Z" fill="#1F0048"/>
</svg>
