<svg width="136" height="30" viewBox="0 0 136 30" fill="none" xmlns="http://www.w3.org/2000/svg">
<path fill-rule="evenodd" clip-rule="evenodd" d="M-6.51161e-07 8.49869L4.90669 6.03596e-05L29.5804 5.92811e-05L34.4879 8.50016L25.8636 23.3955L16.0553 23.3955L12.3402 16.9973L4.90669 16.9973L-6.51161e-07 8.49869ZM7.28991 12.8695L14.7167 12.8695L18.4317 19.2676L23.4838 19.2676L29.7198 8.49722L27.1971 4.12792L7.28991 4.12792L4.76644 8.49869L7.28991 12.8695Z" fill="url(#paint0_angular_0_1)"/>
<path d="M18.4337 10.7325L23.4857 10.7325L25.962 14.9971L28.343 10.8772L25.8622 6.60461L16.0539 6.60461L7.42958 21.5L12.3371 30.0001L37.0108 30.0001L41.9175 21.5014L37.0108 13.0028L31.873 13.0028L29.4866 17.1307L34.6276 17.1307L37.151 21.5014L34.6276 25.8722L14.7203 25.8722L12.1977 21.5029L18.4337 10.7325Z" fill="url(#paint1_angular_0_1)"/>
<path d="M48.7603 23.5784V21.3358L56.3263 10.4793H49.2004V7.96423H59.9522V10.2068L52.4071 21.0634H60.1617V23.5784H48.7603Z" fill="#1F0048"/>
<path d="M61.9493 23.5784V7.96423H67.7548C68.8167 7.96423 69.7529 8.15985 70.5633 8.55108C71.3877 8.92833 72.0304 9.48723 72.4915 10.2278C72.9526 10.9543 73.1831 11.8416 73.1831 12.8895C73.1831 13.9654 72.9246 14.8806 72.4076 15.6351C71.9046 16.3896 71.22 16.9485 70.3537 17.3118L73.9376 23.5784H70.71L66.8746 16.7249L68.7189 17.8148H64.7997V23.5784H61.9493ZM64.7997 15.2998H67.7967C68.3137 15.2998 68.7608 15.2019 69.1381 15.0063C69.5153 14.7967 69.8088 14.5103 70.0184 14.147C70.2279 13.7837 70.3327 13.3646 70.3327 12.8895C70.3327 12.4005 70.2279 11.9813 70.0184 11.632C69.8088 11.2687 69.5153 10.9893 69.1381 10.7936C68.7608 10.5841 68.3137 10.4793 67.7967 10.4793H64.7997V15.2998Z" fill="#1F0048"/>
<path d="M74.5272 23.5784L79.9136 7.96423H83.6023L88.9887 23.5784H85.8868L84.776 20.225H78.7399L77.6082 23.5784H74.5272ZM79.5573 17.71H83.9586L81.3598 9.93434H82.1562L79.5573 17.71Z" fill="#1F0048"/>
<path d="M93.9557 23.5784L88.5065 7.96423H91.6084L95.8839 20.8957H95.2761L99.5517 7.96423H102.654L97.2253 23.5784H93.9557Z" fill="#1F0048"/>
<path d="M104.399 23.5784V7.96423H107.249V23.5784H104.399Z" fill="#1F0048"/>
<path d="M114.235 23.5784V16.6621L108.974 7.96423H112.222L116.247 14.7548H115.094L119.097 7.96423H122.345L117.106 16.6411V23.5784H114.235Z" fill="#1F0048"/>
<path d="M121.336 23.5784L126.723 7.96423H130.411L135.798 23.5784H132.696L131.585 20.225H125.549L124.417 23.5784H121.336ZM126.366 17.71H130.768L128.169 9.93434H128.965L126.366 17.71Z" fill="#1F0048"/>
<defs>
<radialGradient id="paint0_angular_0_1" cx="0" cy="0" r="1" gradientUnits="userSpaceOnUse" gradientTransform="translate(16.0052 11.0119) rotate(116.565) scale(7.15339 9.15454)">
<stop offset="0.0376216" stopColor="#1F0048" stop-opacity="0"/>
<stop offset="0.27403" stopColor="#1F0048"/>
<stop offset="0.832114" stopColor="#1F0048"/>
<stop offset="0.98004" stopColor="#1F0048" stop-opacity="0"/>
</radialGradient>
<radialGradient id="paint1_angular_0_1" cx="0" cy="0" r="1" gradientUnits="userSpaceOnUse" gradientTransform="translate(25.9123 18.9882) rotate(-63.4349) scale(7.15339 9.15454)">
<stop offset="0.0376216" stopColor="#0093E4" stop-opacity="0"/>
<stop offset="0.27403" stopColor="#0093E4"/>
<stop offset="0.832114" stopColor="#0093E4"/>
<stop offset="0.98004" stopColor="#0093E4" stop-opacity="0"/>
</radialGradient>
</defs>
</svg>
