<svg width="194" height="40" viewBox="0 0 194 40" fill="none" xmlns="http://www.w3.org/2000/svg">
<path d="M114.983 9.33275C112.359 9.33275 110.372 10.2721 109.06 12.1509C107.908 10.2721 106.079 9.33275 103.655 9.33275C101.15 9.33275 99.3219 10.1939 98.1294 11.9552V9.88073H93.002V29.4514H98.1294V18.4526C98.1294 15.5954 99.6001 14.0297 101.866 14.0297C103.972 14.0297 105.205 15.3997 105.205 17.7482V29.4514H110.332V18.4526C110.332 15.5954 111.684 14.0297 114.029 14.0297C116.136 14.0297 117.368 15.3997 117.368 17.7482V29.4514H122.495V17.3958C122.495 12.5032 119.554 9.33275 114.983 9.33275Z" fill="black"/>
<path d="M141.557 12.1901C140.007 10.2721 137.86 9.33275 135.078 9.33275C132.415 9.33275 130.149 10.3504 128.241 12.3466C126.373 14.3428 125.419 16.7696 125.419 19.6661C125.419 22.5625 126.373 25.0285 128.241 27.0247C130.149 29.0208 132.415 29.9994 135.078 29.9994C137.86 29.9994 140.007 29.06 141.557 27.1421V29.4514H146.685V9.88073H141.557V12.1901ZM132.097 23.6585C131.063 22.6017 130.547 21.2708 130.547 19.6661C130.547 18.0612 131.063 16.7305 132.097 15.7128C133.13 14.656 134.442 14.1471 136.032 14.1471C137.622 14.1471 138.934 14.656 139.967 15.7128C141.04 16.7305 141.557 18.0612 141.557 19.6661C141.557 21.2708 141.04 22.6017 139.967 23.6585C138.934 24.6762 137.622 25.185 136.032 25.185C134.442 25.185 133.13 24.6762 132.097 23.6585Z" fill="black"/>
<path d="M165.604 13.2469V9.88073H150.699V14.6168H158.688L150.3 26.0853V29.4514H166.001V24.7153H157.176L165.604 13.2469Z" fill="black"/>
<path d="M187.44 21.7405C187.56 20.9969 187.639 20.3315 187.639 19.6661C187.639 16.7305 186.686 14.3037 184.778 12.3075C182.91 10.3113 180.485 9.33275 177.583 9.33275C174.522 9.33275 171.979 10.3113 170.031 12.3075C168.083 14.2646 167.089 16.7305 167.089 19.6661C167.089 22.6408 168.083 25.1068 170.071 27.0637C172.058 29.0208 174.682 29.9994 177.981 29.9994C181.796 29.9994 184.699 28.5903 186.646 25.8112L182.513 23.4628C181.518 24.7544 180.008 25.4199 178.06 25.4199C175 25.4199 173.132 24.2065 172.456 21.7405H187.44ZM172.376 17.8264C172.972 15.3214 174.84 13.8731 177.583 13.8731C179.928 13.8731 181.915 15.1648 182.513 17.8264H172.376Z" fill="black"/>
<path fill-rule="evenodd" clip-rule="evenodd" d="M8.82113 32.6307C4.65202 28.4969 4.65208 21.7948 8.82125 17.6611L20.1449 6.43366C23.6693 2.9392 29.0449 2.39876 33.1418 4.81234C34.4092 5.55888 34.3981 7.27144 33.3557 8.30488C32.3135 9.33833 30.612 9.24938 29.1972 8.8391C27.3856 8.31374 25.3482 8.75941 23.9195 10.1761L12.5958 21.4035C10.5112 23.4704 10.5112 26.8214 12.5957 28.8883C14.6803 30.9553 18.0602 30.9553 20.1447 28.8883L42.7918 6.4338C46.9611 2.30006 53.7206 2.30004 57.8899 6.43376L69.2136 17.6611C73.3828 21.7947 73.3828 28.4969 69.2136 32.6307C65.0444 36.7644 58.2849 36.7644 54.1156 32.6307L50.3411 28.8883L45.6229 33.5664C42.0985 37.0608 36.7229 37.6012 32.6259 35.1876C31.3586 34.4411 31.3697 32.7286 32.4121 31.6951C33.4543 30.6616 35.1557 30.7505 36.5706 31.1608C38.3822 31.6862 40.4196 31.2405 41.8483 29.8239L46.7014 25.0122C48.7115 23.0192 51.9706 23.0192 53.9808 25.0122L57.8901 28.8883C59.9747 30.9551 63.3544 30.9551 65.439 28.8883C67.5236 26.8214 67.5236 23.4704 65.439 21.4035L54.1153 10.1762C52.0307 8.10935 48.651 8.10937 46.5664 10.1762L23.9193 32.6308C19.75 36.7646 12.9903 36.7646 8.82113 32.6307Z" fill="#0568FD"/>
</svg>
