<svg width="89" height="40" viewBox="0 0 89 40" fill="none" xmlns="http://www.w3.org/2000/svg">
<path d="M25.5582 0C14.0978 0 6.08536 3.14729 3.51172 4.72093C5.10087 4.4186 9.92567 3.81395 16.5117 3.81395C35.0001 3.81395 46.3257 12.814 69.721 12.814C79.3582 12.814 86.2947 9.31008 88.5582 7.55814C86.9846 8.32558 82.3257 9.86047 76.2792 9.86047C60.1861 9.86047 43.721 0 25.5582 0Z" fill="#EA6731"/>
<path d="M23.3258 10.186C11.8653 10.186 3.85294 13.3333 1.2793 14.907C2.86844 14.6047 7.69325 14 14.2793 14C32.7677 14 44.0933 23 67.4886 23C77.1258 23 84.0622 19.4961 86.3258 17.7442C84.7522 18.5116 80.0932 20.0465 74.0467 20.0465C57.9537 20.0465 41.4886 10.186 23.3258 10.186Z" fill="#6D6D6E"/>
<path d="M0 33.0698H1.69767V26L3.27907 33.0698H5.02326L6.62791 26V33.0698H8.30233V24.5116H5.69767L4.18605 31.186L2.62791 24.5116H0V33.0698Z" fill="#EA6731"/>
<path fill-rule="evenodd" clip-rule="evenodd" d="M13.7209 24.2093C11.2326 24.2093 9.65116 25.7674 9.65116 28.8605C9.65116 31.9535 11.5349 33.3023 13.7209 33.3023C15.907 33.3023 17.8837 31.9767 17.8837 28.8605C17.8837 25.7442 16.2791 24.2093 13.7209 24.2093ZM11.4186 28.8605C11.4186 26.5349 12.6047 25.7442 13.7209 25.7442C14.9535 25.7442 16.0465 26.4419 16.0465 28.8605C16.0465 31.2791 14.6047 31.7674 13.7209 31.7674C12.8372 31.7674 11.4186 31.186 11.4186 28.8605Z" fill="#EA6731"/>
<path d="M18.5581 24.5116H20.4884L22.3488 30.9535L24.186 24.5116H26.093L23.186 33.0698H21.4419L18.5581 24.5116Z" fill="#EA6731"/>
<path d="M26.9767 24.5116V33.0698H28.814V24.5116H26.9767Z" fill="#EA6731"/>
<path d="M30.4186 24.5116V33.0698H36.4884V31.5814H32.2558V24.5116H30.4186Z" fill="#EA6731"/>
<path fill-rule="evenodd" clip-rule="evenodd" d="M40.8837 33.0698H42.6512V29.7442H44.3953C45.1395 29.7442 45.6744 29.8605 45.6744 30.8605C45.6744 32.3023 45.7907 32.7674 45.907 33.0698H47.907V32.8605C47.7829 32.7829 47.5349 32.4977 47.5349 31.9767V30.6977C47.5349 30.0465 47.3721 29.3023 46.4419 28.9767C47.3256 28.6279 47.7674 27.9535 47.7674 26.8837C47.7674 25.814 47.1395 24.4884 45.0233 24.4884H40.8605L40.8837 33.0698ZM42.6512 28.3023V25.9767H44.5349C45.4651 25.9767 45.9535 26.2791 45.9535 27.1628C45.9535 28.0465 45.4419 28.3023 44.4651 28.3023H42.6512Z" fill="#EA6731"/>
<path d="M49.4419 24.4884V33.0698H55.9535V31.5349H51.2326V29.3488H55.3721V27.814H51.2326V26.0698H55.7442V24.4884H49.4419Z" fill="#EA6731"/>
<path fill-rule="evenodd" clip-rule="evenodd" d="M56.6744 33.0698H58.6047L59.2093 31.3023H62.2558L62.8605 33.0698H64.8605L61.8372 24.4884H59.7674L56.6744 33.0698ZM61.8372 29.7907H59.6744L60.7674 26.4884L61.8372 29.7907Z" fill="#EA6731"/>
<path d="M65.8837 24.4884V33.0698H71.9535V31.6047H67.7209V24.4884H65.8837Z" fill="#EA6731"/>
<path d="M71.5581 24.4884V26.0465H74.1395V33.0698H75.9767V26.0465H78.5349V24.4884H71.5581Z" fill="#EA6731"/>
<path d="M78.8605 24.4884H81L82.7442 28.2093L84.4419 24.4884H86.5116L83.6512 29.814V33.0698H81.8372V29.814L78.8605 24.4884Z" fill="#EA6731"/>
<path fill-rule="evenodd" clip-rule="evenodd" d="M18.7441 35.1628V38.8837H19.5348V37.4419H20.279C20.6279 37.4419 20.8372 37.5349 20.8372 37.9535C20.8372 38.3721 20.8372 38.6977 20.9302 38.8837H21.8139V38.7674C21.7596 38.7442 21.6511 38.6279 21.6511 38.3488C21.6511 38 21.7209 37.2558 21.186 37.1163C21.6279 36.8837 21.7441 36.5116 21.7441 36.186C21.7441 35.8605 21.4883 35.1628 20.6976 35.1628H18.7441ZM19.5348 36.814V35.7907H20.3953C20.7209 35.7907 20.9534 35.9535 20.9534 36.3023C20.9534 36.6512 20.7209 36.814 20.3023 36.814H19.5348Z" fill="#6D6D6E"/>
<path fill-rule="evenodd" clip-rule="evenodd" d="M22.8604 37.6977C22.8682 37.9147 23.0046 38.3488 23.4883 38.3488C23.8232 38.3488 23.9845 38.1473 24.0232 38.0465H24.7674C24.7054 38.3566 24.3627 38.9767 23.4883 38.9767C22.3953 38.9767 22.1162 38.1395 22.1162 37.4884C22.1162 36.8372 22.4651 36.0465 23.4651 36.0465C24.4651 36.0465 24.7994 36.6744 24.7994 37.6977H22.8604ZM24.0232 37.2326H22.8604C22.8837 37.031 23.0372 36.6279 23.4651 36.6279C23.893 36.6279 24.0155 37.031 24.0232 37.2326Z" fill="#6D6D6E"/>
<path fill-rule="evenodd" clip-rule="evenodd" d="M25.1162 37.0233H25.7907C25.8139 36.8915 25.9441 36.6279 26.279 36.6279C26.5581 36.6279 26.7441 36.7442 26.7441 36.907C26.7441 37.186 25.9767 37.1628 25.5348 37.3488C25.093 37.5349 25.0465 37.9535 25.0465 38.2093C25.0465 38.4651 25.2558 38.9767 25.8837 38.9767C26.386 38.9767 26.6666 38.6977 26.7441 38.5581L26.8139 38.8837H27.6279V38.7907C27.5736 38.7519 27.4651 38.6279 27.4651 38.4419V36.814C27.4651 36.3488 27.0697 36.0465 26.279 36.0465C25.4883 36.0465 25.1162 36.5581 25.1162 37.0233ZM26.7441 37.8605V37.5349C26.6744 37.5659 26.4697 37.6419 26.2093 37.6977C25.8837 37.7674 25.7441 37.907 25.7441 38.093C25.7441 38.2791 25.8604 38.4186 26.1395 38.4186C26.4186 38.4186 26.7441 38.2093 26.7441 37.8605Z" fill="#6D6D6E"/>
<path d="M28.0697 38.8837H28.8372V35.1628H28.0697V38.8837Z" fill="#6D6D6E"/>
<path d="M31.0465 35.1628H33.7907V35.814H31.8372V36.6047H33.6046V37.2558H31.8372V38.186H33.8837V38.8837H31.0465V35.1628Z" fill="#6D6D6E"/>
<path d="M35.9302 36.9767C35.9147 36.8527 35.7907 36.6047 35.4186 36.6047C35.2093 36.6047 35.0232 36.6744 35.0232 36.8605C35.0232 37.0465 35.372 37.1163 35.8372 37.2093C36.3023 37.3023 36.7441 37.5116 36.7441 38.0465C36.7441 38.5814 36.3255 38.9767 35.4651 38.9767C34.6046 38.9767 34.2093 38.5581 34.186 37.9767H34.9534C34.9612 38.1163 35.0744 38.3954 35.4651 38.3954C35.7674 38.3954 36 38.3023 36 38.1395C36 37.9767 35.6511 37.8605 35.2093 37.7907C34.7674 37.7209 34.279 37.5116 34.279 36.9535C34.279 36.3954 34.7441 36.0465 35.4186 36.0465C36.093 36.0465 36.6046 36.2791 36.6744 36.9767H35.9302Z" fill="#6D6D6E"/>
<path d="M37.3488 35.3954V36.1628H36.9767V36.6744H37.3488V38.3954C37.3488 38.6744 37.5581 38.907 37.8837 38.907H38.5116V38.3721H38.2558C38.1627 38.3721 38.093 38.3256 38.093 38.2093V36.6744H38.5348V36.1628H38.093V35.3954H37.3488Z" fill="#6D6D6E"/>
<path fill-rule="evenodd" clip-rule="evenodd" d="M38.8604 37.0233H39.5348C39.5581 36.8915 39.6883 36.6279 40.0232 36.6279C40.3023 36.6279 40.4883 36.7442 40.4883 36.907C40.4883 37.186 39.7209 37.1628 39.279 37.3488C38.8372 37.5349 38.7907 37.9535 38.7907 38.2093C38.7907 38.4651 39 38.9767 39.6279 38.9767C40.1302 38.9767 40.4108 38.6977 40.4883 38.5581L40.5581 38.8837H41.372V38.7907C41.3178 38.7519 41.2093 38.6279 41.2093 38.4419V36.814C41.2093 36.3488 40.8139 36.0465 40.0232 36.0465C39.2325 36.0465 38.8604 36.5581 38.8604 37.0233ZM40.4883 37.8605V37.5349C40.4186 37.5659 40.2139 37.6419 39.9534 37.6977C39.6279 37.7674 39.4883 37.907 39.4883 38.093C39.4883 38.2791 39.6046 38.4186 39.8837 38.4186C40.1627 38.4186 40.4883 38.2093 40.4883 37.8605Z" fill="#6D6D6E"/>
<path d="M41.9069 35.3954V36.1628H41.5348V36.6744H41.9069V38.3954C41.9069 38.6744 42.1162 38.907 42.4418 38.907H43.0697V38.3721H42.8139C42.7209 38.3721 42.6511 38.3256 42.6511 38.2093V36.6744H43.093V36.1628H42.6511V35.3954H41.9069Z" fill="#6D6D6E"/>
<path fill-rule="evenodd" clip-rule="evenodd" d="M44.061 37.6977C44.0687 37.9147 44.2052 38.3488 44.6889 38.3488C45.0238 38.3488 45.185 38.1473 45.2238 38.0465H45.968C45.906 38.3566 45.5633 38.9767 44.6889 38.9767C43.5959 38.9767 43.3168 38.1395 43.3168 37.4884C43.3168 36.8372 43.6656 36.0465 44.6656 36.0465C45.6656 36.0465 46 36.6744 46 37.6977H44.061ZM45.2238 37.2326H44.061C44.0843 37.031 44.2377 36.6279 44.6656 36.6279C45.0936 36.6279 45.216 37.031 45.2238 37.2326Z" fill="#6D6D6E"/>
<path fill-rule="evenodd" clip-rule="evenodd" d="M47.4186 38.8837H48.2558L48.5348 38.0698H49.8604L50.1162 38.8837H51L49.6744 35.1628H48.7441L47.4186 38.8837ZM49.6744 37.4651H48.7441L49.2093 36.0233L49.6744 37.4651Z" fill="#6D6D6E"/>
<path d="M51.3488 36.1163H52.0697V36.4651C52.1395 36.3256 52.4 36.0465 52.8837 36.0465C53.4883 36.0465 53.8837 36.3488 53.8837 37.0233V38.8837H53.1162V37.0698C53.1162 36.7907 52.9069 36.6279 52.6511 36.6279C52.3953 36.6279 52.093 36.8372 52.093 37.2791V38.8837H51.3488V36.1163Z" fill="#6D6D6E"/>
<path d="M54.2093 36.1163L55.2325 39C55.217 39.1318 55.1162 39.3954 54.8372 39.3954H54.6046V40H55.0697C55.372 40 55.6046 39.907 55.7674 39.5116C55.8976 39.1954 56.6124 37.1163 56.9534 36.1163H56.186L55.6279 38.1163L55.0232 36.1163H54.2093Z" fill="#6D6D6E"/>
<path d="M57.093 36.1163L57.8604 38.8837H58.6046L59.0465 36.907L59.4651 38.8837H60.2325L61.0232 36.1163H60.2325L59.8372 38.0698L59.4186 36.1163H58.6976L58.279 38.0698L57.8604 36.1163H57.093Z" fill="#6D6D6E"/>
<path d="M61.3953 35.1628V38.8837H62.1395V37.2791C62.1395 36.907 62.372 36.6279 62.6976 36.6279C63.0232 36.6279 63.1395 36.9302 63.1395 37.1628V38.8837H63.9069V37C63.9069 36.3954 63.5813 36.0465 62.9302 36.0465C62.4093 36.0465 62.186 36.3101 62.1395 36.4419V35.1628H61.3953Z" fill="#6D6D6E"/>
<path fill-rule="evenodd" clip-rule="evenodd" d="M65.0232 37.6977C65.031 37.9147 65.1674 38.3488 65.6511 38.3488C65.986 38.3488 66.1472 38.1473 66.186 38.0465H66.9302C66.8682 38.3566 66.5255 38.9767 65.6511 38.9767C64.5581 38.9767 64.279 38.1395 64.279 37.4884C64.279 36.8372 64.6279 36.0465 65.6279 36.0465C66.6279 36.0465 66.9622 36.6744 66.9622 37.6977H65.0232ZM66.186 37.2326H65.0232C65.0465 37.031 65.2 36.6279 65.6279 36.6279C66.0558 36.6279 66.1782 37.031 66.186 37.2326Z" fill="#6D6D6E"/>
<path d="M67.372 38.8837H68.1162V37.3721C68.1162 37.0233 68.3488 36.7907 68.7674 36.7907H69.0232V36.0465H68.7209C68.372 36.0465 68.1395 36.3954 68.1162 36.5349V36.1163H67.372V38.8837Z" fill="#6D6D6E"/>
<path fill-rule="evenodd" clip-rule="evenodd" d="M69.8982 37.6977C69.906 37.9147 70.0424 38.3488 70.5261 38.3488C70.861 38.3488 71.0222 38.1473 71.061 38.0465H71.8052C71.7432 38.3566 71.4005 38.9767 70.5261 38.9767C69.4331 38.9767 69.154 38.1395 69.154 37.4884C69.154 36.8372 69.5029 36.0465 70.5029 36.0465C71.5029 36.0465 71.8372 36.6744 71.8372 37.6977H69.8982ZM71.061 37.2326H69.8982C69.9215 37.031 70.0749 36.6279 70.5029 36.6279C70.9308 36.6279 71.0532 37.031 71.061 37.2326Z" fill="#6D6D6E"/>
<path d="M72.4883 38.1395H73.279V38.8837H72.4883V38.1395Z" fill="#6D6D6E"/>
<path d="M72.6976 37.8605H73.093L73.3023 36.1163V35.1628H72.4883V36.1163L72.6976 37.8605Z" fill="#6D6D6E"/>
</svg>
