<svg width="100" height="40" viewBox="0 0 100 40" fill="none" xmlns="http://www.w3.org/2000/svg">
<path d="M91.1653 24.0569L84.4904 12.4966C84.4356 12.401 84.3339 12.342 84.2237 12.3421H79.8525C79.8091 12.3421 79.7747 12.3582 79.7374 12.3744C79.7243 12.3724 79.7121 12.3643 79.699 12.3643H77.2892C77.2902 12.3411 77.2912 11.7351 77.2932 11.7129C77.4669 8.62029 80.1717 7.83654 81.0938 7.67192C81.2401 7.64575 81.3461 7.51758 81.3443 7.36892L81.3392 4.14708C81.3391 4.06257 81.3041 3.98186 81.2426 3.92395C81.181 3.86604 81.0984 3.83605 81.014 3.84105C79.2627 3.95316 73.1988 5.32068 72.8796 11.7129L72.8756 12.3633H71.0212C70.9502 12.3636 70.8823 12.392 70.8323 12.4424C70.7823 12.4928 70.7543 12.561 70.7546 12.6319V15.7548C70.7546 15.9033 70.8738 16.0245 71.0212 16.0245H72.5867C72.7332 16.0245 72.8533 16.1447 72.8533 16.2911V29.8703C72.8533 30.037 72.9877 30.1713 73.1533 30.1713H76.9609C77.0465 30.1703 77.1275 30.1323 77.1831 30.0673C77.2507 30.011 77.2902 29.9279 77.2912 29.84V16.3022C77.2912 16.2214 77.3245 16.1477 77.3771 16.0931C77.4286 16.0498 77.4935 16.0255 77.5609 16.0245L81.2362 15.975C81.3474 15.9738 81.4506 16.0329 81.5059 16.1295L86.0831 24.0579C86.1367 24.151 86.1382 24.2653 86.0871 24.3599L80.0171 35.6525C79.9657 35.748 79.9682 35.8635 80.0236 35.9568C80.079 36.0501 80.1793 36.1074 80.2878 36.108H84.6671C84.7798 36.108 84.8834 36.0457 84.9368 35.9464L91.1684 24.3599C91.2201 24.2652 91.219 24.1505 91.1653 24.0569ZM97.4616 12.7683L92.6813 21.6642C92.6284 21.7614 92.5273 21.8228 92.4166 21.8249C92.3059 21.8269 92.2026 21.7695 92.146 21.6743L89.8534 17.7576C89.7987 17.6645 89.7968 17.5495 89.8483 17.4546L92.5278 12.4936C92.5797 12.3952 92.6812 12.3332 92.7924 12.332C93.4984 12.3239 96.0971 12.3017 97.198 12.3138C97.3056 12.3152 97.4047 12.3731 97.4587 12.4663C97.5127 12.5594 97.5138 12.6741 97.4616 12.7683ZM65.2855 19.3231H56.7482C56.6434 19.3243 56.5456 19.2707 56.4904 19.1816C56.4352 19.0925 56.4307 18.981 56.4785 18.8878C56.931 17.996 58.2359 16.0507 61.0214 16.0507C63.7564 16.0507 65.0856 17.9929 65.5532 18.8847C65.601 18.978 65.5969 19.0895 65.5423 19.1789C65.4876 19.2684 65.3904 19.323 65.2855 19.3231ZM61.0386 11.6613C55.8715 11.6613 51.6831 15.873 51.6831 21.0673C51.6831 26.2627 55.8715 30.4733 61.0386 30.4733C63.8281 30.4733 67.4318 29.0997 69.4244 25.2123C69.4708 25.1185 69.4656 25.0074 69.4105 24.9185C69.3554 24.8295 69.2584 24.7753 69.1538 24.775H64.5735C64.498 24.7754 64.4256 24.8051 64.3715 24.8578C64.0294 25.1844 63.6386 25.456 63.2131 25.6627C62.6172 25.9516 61.895 26.1394 61.0204 26.1394C58.2662 26.1394 56.937 24.3316 56.5633 23.3721C56.5295 23.28 56.543 23.1773 56.5995 23.097C56.6559 23.0168 56.7481 22.9694 56.8461 22.9701L69.9274 22.9721C70.0781 22.9678 70.2038 22.8557 70.2254 22.7065C70.2708 22.3399 70.3324 21.9692 70.3526 21.5915C70.5127 19.0188 69.6036 16.4942 67.8401 14.6143C66.0766 12.7343 63.6152 11.6658 61.0376 11.6613H61.0386ZM41.7338 26.1354C40.0005 26.538 38.1823 26.0162 36.9263 24.7558C35.6681 23.493 35.148 21.6718 35.5496 19.9351C35.9697 18.0164 37.4659 16.5163 39.3835 16.0911C41.1168 15.6883 42.9352 16.2101 44.1911 17.4708C45.4494 18.7334 45.9695 20.5547 45.5677 22.2914C45.1473 24.21 43.6513 25.71 41.7338 26.1354ZM44.6051 12.5431C40.4107 10.7099 36.8606 12.532 35.7314 13.2612C35.1396 13.645 35.1659 12.3926 34.6003 12.3926H31.2774C31.1977 12.3923 31.1211 12.4238 31.0647 12.4801C31.0082 12.5364 30.9764 12.6128 30.9764 12.6925V35.8585C30.9764 36.0241 31.1108 36.1595 31.2764 36.1595H35.0497C35.1294 36.1595 35.2059 36.1277 35.2622 36.0713C35.3185 36.0148 35.3499 35.9382 35.3497 35.8585V29.2583C35.3497 29.026 35.6012 28.8795 35.8001 28.9987C36.6323 29.5037 38.5453 30.4743 40.8965 30.4743C46.3605 30.4743 50.7438 25.7395 50.1823 20.1472C49.8459 16.8072 47.6725 13.8853 44.6051 12.5431ZM13.2563 26.1354C11.523 26.538 9.7048 26.0162 8.4488 24.7558C7.19099 23.4928 6.67131 21.6717 7.0732 19.9351C7.49329 18.0164 8.98946 16.5163 10.9071 16.0911C12.6404 15.6883 14.4587 16.2101 15.7146 17.4708C16.9726 18.7336 17.4923 20.5549 17.0902 22.2914C16.6701 24.2102 15.1739 25.7103 13.2563 26.1354ZM16.1287 12.5431C11.9342 10.7099 8.38517 12.532 7.25399 13.2612C6.66315 13.645 6.6884 12.3926 6.12281 12.3926H2.79996C2.6343 12.3926 2.5 12.5269 2.5 12.6925V35.8585C2.5 36.0241 2.63433 36.1595 2.79996 36.1595H6.57225C6.65198 36.1595 6.72843 36.1277 6.78471 36.0713C6.841 36.0148 6.87248 35.9382 6.87221 35.8585V29.2583C6.87221 29.026 7.1237 28.8795 7.32267 28.9987C8.1559 29.5037 10.0688 30.4743 12.419 30.4743C17.8851 30.4743 22.2664 25.7395 21.7048 20.1472C21.3685 16.8072 19.196 13.8853 16.1287 12.5431ZM27.9606 12.3936H24.1803C24.1009 12.393 24.0246 12.4242 23.9683 12.4801C23.912 12.5361 23.8803 12.6122 23.8803 12.6915V29.9632C23.8803 30.1299 24.0157 30.2642 24.1813 30.2642H27.9617C28.1275 30.2637 28.2616 30.1291 28.2616 29.9632V12.6935C28.2611 12.5276 28.1266 12.3931 27.9606 12.3926" fill="black"/>
</svg>
