<svg width="207" height="70" viewBox="0 0 207 70" fill="none" xmlns="http://www.w3.org/2000/svg">
<path fill-rule="evenodd" clip-rule="evenodd" d="M88.8983 16.1331C88.8983 15.6594 89.0035 15.2384 89.2666 14.8173L92.8451 8.60764C93.6872 7.18676 95.2132 6.29213 96.8446 6.29213H104.949C105.317 6.29213 105.58 6.60788 105.528 6.97626C105.475 7.29201 105.212 7.44989 104.896 7.44989H96.792C95.5817 7.44989 94.4239 8.08139 93.845 9.1865L90.2665 15.3962C90.1613 15.6068 90.056 15.8699 90.056 16.1331C90.056 16.3961 90.1086 16.6066 90.2665 16.8172L93.6346 22.6585C93.6872 22.7112 93.6346 22.8164 93.5292 22.8164H92.582C92.4241 22.8164 92.2662 22.7112 92.2136 22.6059L89.214 17.4487C89.0035 17.0276 88.8983 16.554 88.8983 16.1331ZM89.8981 24.6056C90.1086 25.0267 90.477 25.3424 90.8454 25.5529C91.2137 25.7634 91.6874 25.9212 92.161 25.9212H98.1602C98.3181 25.9212 98.476 25.816 98.5286 25.7108L99.0023 24.9213C99.0549 24.8687 99.0023 24.7635 98.897 24.7635H92.161C91.8979 24.7635 91.6874 24.7109 91.4769 24.553C91.2663 24.4478 91.1085 24.2372 90.9506 24.0268L87.3195 17.7643C86.688 16.7119 86.688 15.3962 87.3195 14.3438L91.3717 7.34463C91.5295 7.08151 91.4769 6.76576 91.2663 6.55526C90.9506 6.29213 90.5822 6.39739 90.3718 6.71313L86.3196 13.7649C85.4776 15.1858 85.4776 16.975 86.3196 18.3958L89.8981 24.6056ZM107.159 22.1323C107.159 22.6059 107.054 23.0268 106.791 23.4479L103.212 29.6577C102.37 31.0785 100.844 31.9731 99.2128 31.9731H91.1085C90.7402 31.9731 90.477 31.6574 90.5296 31.289C90.5822 30.9733 90.8454 30.8154 91.1611 30.8154H99.2654C100.476 30.8154 101.633 30.1838 102.212 29.0788L105.791 22.869C105.896 22.6585 106.001 22.3954 106.001 22.1323C106.001 21.8691 105.949 21.6586 105.791 21.4482L102.423 15.6068C102.37 15.5542 102.423 15.4488 102.528 15.4488H103.475C103.633 15.4488 103.791 15.5542 103.844 15.6594L106.843 20.8167C107.054 21.2902 107.159 21.7112 107.159 22.1323ZM98.6865 28.9208H91.4769C89.8455 28.9208 88.3194 28.0263 87.4774 26.6053L83.4779 19.5536C83.2674 19.2905 83.3726 18.8695 83.741 18.7116C84.0041 18.6064 84.3725 18.7116 84.5304 18.9747L88.5825 25.9738C89.214 27.0264 90.3191 27.7105 91.5295 27.7105H98.6865C98.9497 27.7105 99.1601 27.6579 99.4232 27.5C99.6338 27.3948 99.7916 27.1842 99.9495 26.9738L103.318 21.1324C103.37 21.0798 103.475 21.0798 103.528 21.1324L104.002 21.9217C104.054 22.0797 104.054 22.2375 104.002 22.3427L101.002 27.5C100.792 27.921 100.423 28.2367 100.055 28.4472C99.5812 28.763 99.1601 28.9208 98.6865 28.9208ZM112.58 18.7116L108.527 11.6599C107.685 10.239 106.159 9.34438 104.528 9.34438H97.3709C96.8973 9.34438 96.4762 9.44963 96.0553 9.71275C95.6869 9.92326 95.3185 10.239 95.108 10.66L92.1084 15.8173C92.0558 15.9225 92.0558 16.1331 92.1084 16.2383L92.582 17.0276C92.6347 17.0802 92.7399 17.0802 92.7399 17.0276L96.1079 11.1863C96.2131 10.9758 96.4236 10.8179 96.6342 10.66C96.8446 10.5548 97.1077 10.4495 97.3709 10.4495H104.528C105.738 10.4495 106.896 11.081 107.475 12.1861L111.527 19.1853C111.685 19.4484 112.001 19.6062 112.316 19.4484C112.632 19.2905 112.716 18.9563 112.58 18.7116ZM106.159 13.7123L109.738 19.922C110.58 21.3428 110.58 23.1321 109.738 24.553L105.686 31.6048C105.528 31.9205 105.107 32.0258 104.791 31.7626C104.58 31.5521 104.528 31.2363 104.686 30.9733L108.738 23.9741C109.369 22.9216 109.369 21.606 108.738 20.5535L105.159 14.3438C105.054 14.1333 104.844 13.9228 104.633 13.8175C104.423 13.7123 104.159 13.607 103.949 13.607H97.2131C97.1077 13.607 97.0551 13.5018 97.1077 13.4491L97.5814 12.6598C97.634 12.5019 97.7919 12.4493 97.9498 12.4493L103.896 12.3966C104.37 12.3966 104.791 12.5019 105.212 12.765C105.58 12.9755 105.896 13.2913 106.159 13.7123Z" fill="black"/>
<path d="M3.89893 63.0629H6.88834V55.6629H9.43666C12.4996 55.6629 14.6559 53.6537 14.6559 50.8358C14.6559 48.0179 12.4996 45.9106 9.43666 45.9106H3.89893V63.0629ZM6.88834 52.9675V48.704H9.26514C10.8579 48.704 11.6419 49.7577 11.6419 50.8358C11.6419 51.8649 10.8579 52.9675 9.26514 52.9675H6.88834ZM16.7795 63.0629H19.6463V45.5431H16.7795V63.0629ZM27.7653 63.3569C29.3335 63.3569 30.8772 62.4993 31.4897 61.3477L31.8329 63.0629H34.3321V50.8113H31.4653V56.0795C31.4653 59.1424 30.2156 60.7596 28.3289 60.7596C26.6627 60.7596 25.7561 59.706 25.7561 57.5252V50.8113H22.8891V57.8682C22.8891 61.3722 24.4818 63.3569 27.7653 63.3569ZM37.766 63.0629H40.633V58.0643C40.633 54.7073 41.8826 53.1146 43.5243 53.1146C44.7739 53.1146 45.5336 53.9477 45.5336 55.8835V63.0629H48.4004V58.0643C48.4004 54.7073 49.6501 53.1146 51.2921 53.1146C52.5418 53.1146 53.3012 53.9477 53.3012 55.8835V63.0629H56.1685V55.8099C56.1685 52.3795 54.6247 50.5173 51.4635 50.5173C49.8951 50.5173 48.4494 51.3994 47.8124 52.5265C47.2488 51.2033 46.1707 50.5173 44.2349 50.5173C42.6667 50.5173 41.2455 51.3994 40.6084 52.5265L40.2654 50.8113H37.766V63.0629ZM64.5316 63.3569C67.2263 63.3569 69.2854 61.9848 70.1912 59.951L67.7905 58.8973C67.0549 60.1471 66.1979 60.7596 64.7768 60.7596C62.8164 60.7596 61.4191 59.6079 61.3215 57.7947H70.5102C70.559 57.5007 70.584 57.0106 70.584 56.692C70.584 53.1146 68.3047 50.5173 64.5554 50.5173C60.9537 50.5173 58.4792 53.3596 58.4792 56.9371C58.4792 60.6126 60.7823 63.3569 64.5316 63.3569ZM61.3215 55.6384C61.4441 54.1927 62.8403 53.1146 64.5804 53.1146C66.2706 53.1146 67.5941 54.1437 67.6928 55.6384H61.3215ZM79.1163 63.0629H82.1051V55.5649H88.7704V63.0629H91.7603V45.9106H88.7704V52.7716H82.1051V45.9106H79.1163V63.0629ZM101.226 63.3569C104.95 63.3569 107.693 60.5146 107.693 56.9371C107.693 53.3596 104.95 50.5173 101.226 50.5173C97.5002 50.5173 94.7566 53.3596 94.7566 56.9371C94.7566 60.5146 97.5002 63.3569 101.226 63.3569ZM101.226 60.7596C99.1177 60.7596 97.6966 59.1179 97.6966 56.9371C97.6966 54.7563 99.1177 53.1146 101.226 53.1146C103.307 53.1146 104.754 54.7563 104.754 56.9371C104.754 59.1179 103.307 60.7596 101.226 60.7596ZM110.446 63.0629H113.313V58.0643C113.313 54.7073 114.563 53.1146 116.204 53.1146C117.454 53.1146 118.213 53.9477 118.213 55.8835V63.0629H121.081V58.0643C121.081 54.7073 122.33 53.1146 123.972 53.1146C125.221 53.1146 125.981 53.9477 125.981 55.8835V63.0629H128.848V55.8099C128.848 52.3795 127.304 50.5173 124.143 50.5173C122.574 50.5173 121.129 51.3994 120.493 52.5265C119.928 51.2033 118.85 50.5173 116.915 50.5173C115.346 50.5173 113.925 51.3994 113.288 52.5265L112.945 50.8113H110.446V63.0629ZM137.456 63.3569C140.151 63.3569 142.21 61.9848 143.116 59.951L140.715 58.8973C139.98 60.1471 139.123 60.7596 137.702 60.7596C135.741 60.7596 134.344 59.6079 134.246 57.7947H143.435C143.484 57.5007 143.509 57.0106 143.509 56.692C143.509 53.1146 141.229 50.5173 137.48 50.5173C133.879 50.5173 131.404 53.3596 131.404 56.9371C131.404 60.6126 133.707 63.3569 137.456 63.3569ZM134.246 55.6384C134.369 54.1927 135.765 53.1146 137.505 53.1146C139.196 53.1146 140.519 54.1437 140.618 55.6384H134.246ZM146.405 63.0629H149.395V55.6629H151.943C155.006 55.6629 157.163 53.6537 157.163 50.8358C157.163 48.0179 155.006 45.9106 151.943 45.9106H146.405V63.0629ZM149.395 52.9675V48.704H151.771C153.365 48.704 154.148 49.7577 154.148 50.8358C154.148 51.8649 153.365 52.9675 151.771 52.9675H149.395ZM164.425 60.7596C162.318 60.7596 160.798 59.1179 160.798 56.9371C160.798 54.7563 162.318 53.1146 164.425 53.1146C166.508 53.1146 168.026 54.7563 168.026 56.9371C168.026 59.1179 166.508 60.7596 164.425 60.7596ZM163.934 63.3569C165.527 63.3569 167.047 62.6709 167.732 61.7642L168.075 63.0629H170.575V50.8113H168.075L167.732 52.1099C166.998 51.2033 165.527 50.5173 163.934 50.5173C160.406 50.5173 157.858 53.3596 157.858 56.9371C157.858 60.5146 160.406 63.3569 163.934 63.3569ZM177.574 63.3569C180.171 63.3569 182.083 61.7397 182.083 59.5099C182.083 57.6477 181.127 56.4471 179.313 55.7854L177.5 55.1239C176.814 54.8788 176.422 54.5358 176.422 53.9477C176.422 53.4331 176.887 53.0166 177.549 53.0166C178.186 53.0166 178.75 53.4822 178.995 54.1437L181.225 52.7716C180.514 51.3503 179.239 50.5173 177.524 50.5173C175.32 50.5173 173.8 52.012 173.8 53.7762C173.8 55.1728 174.535 56.496 175.957 57.0351L177.697 57.6967C178.97 58.1867 179.436 58.6278 179.436 59.4364C179.436 60.1471 178.824 60.8576 177.574 60.8576C176.471 60.8576 175.614 60.3186 175.172 59.0933L172.943 60.1225C173.653 62.0582 175.246 63.3569 177.574 63.3569ZM188.169 63.3569C190.766 63.3569 192.677 61.7397 192.677 59.5099C192.677 57.6477 191.722 56.4471 189.908 55.7854L188.095 55.1239C187.408 54.8788 187.017 54.5358 187.017 53.9477C187.017 53.4331 187.482 53.0166 188.144 53.0166C188.781 53.0166 189.345 53.4822 189.59 54.1437L191.819 52.7716C191.109 51.3503 189.835 50.5173 188.12 50.5173C185.914 50.5173 184.395 52.012 184.395 53.7762C184.395 55.1728 185.13 56.496 186.551 57.0351L188.291 57.6967C189.565 58.1867 190.03 58.6278 190.03 59.4364C190.03 60.1471 189.419 60.8576 188.169 60.8576C187.065 60.8576 186.208 60.3186 185.767 59.0933L183.538 60.1225C184.248 62.0582 185.841 63.3569 188.169 63.3569Z" fill="black"/>
<path d="M196.987 54.6231C198.197 54.6231 199.084 53.7131 199.084 52.5267C199.084 51.3402 198.232 50.4303 196.987 50.4303C195.755 50.4303 194.903 51.3402 194.903 52.5267C194.903 53.7131 195.79 54.6231 196.987 54.6231ZM196.987 54.1278C196.112 54.1278 195.421 53.4597 195.421 52.5267C195.421 51.5937 196.112 50.9256 196.987 50.9256C197.875 50.9256 198.566 51.5937 198.566 52.5267C198.566 53.4597 197.875 54.1278 196.987 54.1278ZM197.045 51.9277C197.196 51.9277 197.321 52.0314 197.321 52.1811C197.321 52.3309 197.206 52.4345 197.045 52.4345H196.769V51.9277H197.045ZM197.368 52.8838C197.668 52.7917 197.887 52.5267 197.887 52.1696C197.887 51.7435 197.541 51.4093 197.091 51.4093H196.228V53.5979H196.769V52.9068H196.792L197.276 53.5979H197.92L197.368 52.8838Z" fill="#111111"/>
</svg>
