<svg width="190" height="70" viewBox="0 0 190 70" fill="none" xmlns="http://www.w3.org/2000/svg">
<path d="M99.6855 21.8271C99.833 22.0864 99.9067 22.3737 99.9067 22.6636C99.9067 22.9534 99.833 23.2457 99.6804 23.5051V23.5026L95.4191 30.8862C94.6919 32.1447 93.3469 32.9228 91.8926 32.9228L82.2969 32.9202C81.946 32.9202 81.6257 33.1593 81.5672 33.5025C81.496 33.9424 81.8316 34.3212 82.2588 34.3212L91.89 34.3237C93.8453 34.3237 95.653 33.2813 96.6319 31.5879L100.893 24.2043V24.2018C101.165 23.7263 101.305 23.1924 101.303 22.661C101.303 22.1321 101.168 21.6007 100.893 21.1253L100.891 21.1228L97.3489 14.9798C97.2599 14.8223 97.0921 14.7256 96.9116 14.7256H95.8005C95.7038 14.7256 95.6428 14.8325 95.6911 14.9137L99.6855 21.8271Z" fill="black"/>
<path d="M92.7034 28.4328C92.5534 28.6895 92.3424 28.898 92.0907 29.043C91.8389 29.1879 91.5491 29.2667 91.2491 29.2693H91.2517H82.7239C81.2695 29.2693 79.9245 28.4938 79.1973 27.2327L74.4046 18.926C74.2215 18.6108 73.8249 18.4506 73.4918 18.6032C73.1079 18.7761 72.9655 19.2388 73.1714 19.5923L77.9845 27.937C78.9634 29.6302 80.7686 30.6728 82.7264 30.6753H91.2517H91.2541C91.8034 30.6728 92.3347 30.5278 92.7949 30.2608C93.2526 29.9964 93.6441 29.6125 93.9213 29.1395V29.1371L97.4682 22.9967C97.5571 22.839 97.5571 22.6484 97.4682 22.4907L96.9139 21.5297C96.8656 21.4457 96.7461 21.4457 96.6978 21.5297L92.7034 28.4328Z" fill="black"/>
<path d="M83.4972 25.6918C83.1997 25.6918 82.9124 25.6104 82.6607 25.4655C82.409 25.3205 82.1954 25.1069 82.0429 24.8476V24.8502L77.779 17.4665C77.0518 16.2054 77.0518 14.6544 77.779 13.3959L82.5819 5.08681C82.7548 4.78424 82.7116 4.38506 82.4421 4.16386C82.0963 3.88163 81.6005 3.98588 81.3869 4.35201L76.5662 12.6942C75.5873 14.3875 75.5873 16.4725 76.5662 18.1683L80.8275 25.5494V25.5519C81.1021 26.0248 81.4937 26.4138 81.959 26.6808C82.4166 26.9453 82.9455 27.0927 83.4921 27.0953H83.4947L90.5884 27.0978C90.7689 27.0978 90.9368 27.0012 91.0258 26.846L91.5801 25.885C91.6283 25.8011 91.5673 25.6969 91.4707 25.6969L83.4972 25.6918Z" fill="black"/>
<path d="M81.2647 16.3428C81.1172 16.0835 81.0435 15.7962 81.0435 15.5063C81.0435 15.2166 81.1172 14.9241 81.2698 14.6647V14.6673L85.5311 7.2837C86.2582 6.02513 87.6033 5.24711 89.0576 5.24711L98.6532 5.24964C99.0041 5.24964 99.3245 5.01065 99.383 4.6674C99.4542 4.22754 99.1186 3.8487 98.6914 3.8487L89.0576 3.84615C87.1024 3.84615 85.2946 4.88861 84.3157 6.58195L80.0544 13.9656V13.9681C79.7823 14.4436 79.6425 14.9775 79.6451 15.5089C79.6451 16.0378 79.7798 16.5691 80.0544 17.0446L80.0569 17.0471L83.6013 23.19C83.6903 23.3476 83.8581 23.4442 84.0386 23.4442H85.1497C85.2463 23.4442 85.3073 23.3375 85.2591 23.2561L81.2647 16.3428Z" fill="black"/>
<path d="M88.244 9.7398C88.394 9.48299 88.605 9.27451 88.8568 9.12958C89.1085 8.98466 89.3983 8.90584 89.6984 8.90329H89.6958H98.2236C99.6779 8.90329 101.023 9.67878 101.75 10.9399L106.543 19.2465C106.726 19.5617 107.123 19.7219 107.456 19.5693C107.84 19.3965 107.982 18.9337 107.776 18.5803L102.963 10.2356C101.984 8.54225 100.179 7.4998 98.221 7.49725H89.6984H89.6958C89.1467 7.4998 88.6152 7.64472 88.155 7.91169C87.6973 8.17612 87.3058 8.56004 87.0287 9.03297V9.0355L83.4818 15.1809C83.3928 15.3386 83.3928 15.5292 83.4818 15.6869L84.0361 16.648C84.0844 16.7319 84.2039 16.7319 84.2521 16.648L88.244 9.7398Z" fill="black"/>
<path d="M97.4558 12.4831C97.7532 12.4831 98.0405 12.5645 98.2923 12.7094C98.544 12.8543 98.7576 13.0679 98.9101 13.3272V13.3247L103.171 20.7083C103.899 21.9694 103.899 23.5204 103.171 24.779L98.371 33.0855C98.1982 33.3881 98.2414 33.7873 98.5109 34.0085C98.8568 34.2907 99.3525 34.1864 99.5661 33.8203L104.384 25.4807C105.363 23.7874 105.363 21.7025 104.384 20.0066L100.123 12.6229V12.6204C99.8483 12.1475 99.4568 11.7585 98.9915 11.4915C98.5338 11.2271 98.005 11.0796 97.4583 11.0771H97.4558L90.362 11.0745C90.1814 11.0745 90.0137 11.1712 89.9247 11.3262L89.3704 12.2873C89.3221 12.3712 89.3831 12.4755 89.4797 12.4755L97.4558 12.4831Z" fill="black"/>
<path d="M4.55469 61.5119H6.23532V53.7623H8.9897C11.4873 53.7623 13.378 51.8016 13.378 49.3507C13.378 47.0398 11.534 45.1724 8.9897 45.1724H4.55469V61.5119ZM6.23532 52.1751V46.7597H8.9897C10.717 46.7597 11.6974 47.9735 11.6974 49.4674C11.6974 50.9613 10.717 52.1751 8.9897 52.1751H6.23532ZM17.3573 61.5119H18.8979V44.8223H17.3573V61.5119ZM27.7299 61.792C29.5506 61.792 30.6009 61.1385 31.3246 60.2048L31.628 61.5119H32.8651V49.8408H31.3246V56.6101C31.3246 59.061 29.9007 60.3915 28.08 60.3915C26.4694 60.3915 24.9988 59.2711 24.9988 57.1936V49.8408H23.4582V56.9602C23.4582 59.7146 24.7187 61.792 27.7299 61.792ZM37.7589 61.5119H39.2995V55.3263C39.2995 52.2918 40.7234 50.9613 42.3106 50.9613C43.9213 50.9613 45.0884 51.965 45.0884 54.0424V61.5119H46.629V55.3263C46.629 52.2918 48.0528 50.9613 49.6401 50.9613C51.2507 50.9613 52.4178 51.965 52.4178 54.0424V61.5119H53.9579V54.2759C53.9579 51.5215 52.8146 49.5607 49.9902 49.5607C47.7027 49.5607 46.7223 50.6111 46.1621 51.5448C45.5319 50.3544 44.4815 49.5607 42.6608 49.5607C40.8401 49.5607 40.0698 50.191 39.2995 51.218L38.9961 49.8408H37.7589V61.5119ZM63.3786 61.792C65.9229 61.792 67.5335 60.4615 68.4205 58.7342L67.2067 58.0339C66.3897 59.5278 65.0592 60.3915 63.3786 60.3915C60.9276 60.3915 59.3404 58.7576 59.1303 56.2366H68.6772C68.7006 55.9565 68.7239 55.6764 68.7239 55.3963C68.7239 52.2451 66.8799 49.5607 63.3786 49.5607C59.5971 49.5607 57.5663 52.2684 57.5663 55.6764C57.5663 59.0843 59.5971 61.792 63.3786 61.792ZM59.1536 54.8361C59.4571 52.4785 61.021 50.9613 63.3786 50.9613C65.7361 50.9613 67.0199 52.4785 67.2534 54.8361H59.1536ZM82.6316 61.5119H84.3823L86.4597 55.1629L88.5839 61.5119H90.3345L96.1 45.1724H94.4427L89.4709 59.1777L87.3234 53.1788L90.1478 45.1724H88.5372L86.4831 51.4281L84.3589 45.1724H82.6783L85.6194 53.2955L83.542 59.1777L78.5234 45.1724H76.726L82.6316 61.5119ZM103.203 61.792C106.752 61.792 109.132 59.0843 109.132 55.6764C109.132 52.2684 106.752 49.5607 103.203 49.5607C99.6555 49.5607 97.2746 52.2684 97.2746 55.6764C97.2746 59.0843 99.6555 61.792 103.203 61.792ZM103.203 60.3915C100.799 60.3915 98.8152 58.5008 98.8152 55.6764C98.8152 52.852 100.799 50.9613 103.203 50.9613C105.608 50.9613 107.592 52.852 107.592 55.6764C107.592 58.5008 105.608 60.3915 103.203 60.3915ZM112.983 61.5119H114.523V55.443C114.523 52.4085 115.971 51.078 117.418 51.078C118.071 51.078 118.748 51.2647 119.262 51.6615L120.055 50.2377C119.635 49.9342 118.702 49.5607 117.885 49.5607C116.064 49.5607 115.13 50.331 114.523 51.4748L114.22 49.8408H112.983V61.5119ZM123.286 61.5119H124.827V55.6764L130.336 61.5119H132.273L126.227 54.9761L131.503 49.8408H129.589L124.827 54.4393V44.8223H123.286V61.5119ZM135.536 61.5119H137.216V53.7623H139.971C142.468 53.7623 144.359 51.8016 144.359 49.3507C144.359 47.0398 142.515 45.1724 139.971 45.1724H135.536V61.5119ZM137.216 52.1751V46.7597H139.971C141.698 46.7597 142.678 47.9735 142.678 49.4674C142.678 50.9613 141.698 52.1751 139.971 52.1751H137.216ZM152.37 60.3915C149.779 60.3915 148.121 58.2674 148.121 55.6764C148.121 53.0621 149.779 50.9613 152.37 50.9613C154.961 50.9613 156.618 53.0621 156.618 55.6764C156.618 58.2674 154.961 60.3915 152.37 60.3915ZM152.37 61.792C154.33 61.792 155.894 60.695 156.571 59.6679L156.851 61.5119H158.088V49.8408H156.851L156.571 51.5215C156.058 50.7979 154.797 49.5607 152.37 49.5607C148.915 49.5607 146.581 52.2684 146.581 55.6764C146.581 59.0843 148.681 61.792 152.37 61.792ZM165.4 61.792C167.921 61.792 169.321 60.2048 169.321 58.244C169.321 56.6334 168.201 55.5363 167.057 55.0228L165.376 54.2759C164.699 53.9724 163.766 53.6223 163.766 52.5252C163.766 51.6615 164.489 50.9613 165.353 50.9613C166.24 50.9613 166.917 51.3814 167.361 52.4318L168.644 51.7316C168.014 50.3777 166.987 49.5607 165.353 49.5607C163.672 49.5607 162.225 50.8446 162.225 52.5252C162.225 54.0191 163.159 54.9995 164.256 55.443L165.633 56.0032C167.08 56.5867 167.781 57.1936 167.781 58.3607C167.781 59.5512 166.8 60.3915 165.633 60.3915C164.023 60.3915 163.136 59.4578 162.762 58.174L161.362 58.6875C161.968 60.5082 163.229 61.792 165.4 61.792ZM175.11 61.792C177.631 61.792 179.032 60.2048 179.032 58.244C179.032 56.6334 177.911 55.5363 176.767 55.0228L175.087 54.2759C174.41 53.9724 173.476 53.6223 173.476 52.5252C173.476 51.6615 174.2 50.9613 175.063 50.9613C175.95 50.9613 176.627 51.3814 177.071 52.4318L178.355 51.7316C177.724 50.3777 176.697 49.5607 175.063 49.5607C173.383 49.5607 171.936 50.8446 171.936 52.5252C171.936 54.0191 172.869 54.9995 173.966 55.443L175.344 56.0032C176.791 56.5867 177.491 57.1936 177.491 58.3607C177.491 59.5512 176.511 60.3915 175.344 60.3915C173.733 60.3915 172.846 59.4578 172.472 58.174L171.072 58.6875C171.679 60.5082 172.939 61.792 175.11 61.792ZM184.844 52.6886C187.295 52.6886 189.092 50.8446 189.092 48.4403C189.092 46.0361 187.365 44.192 184.844 44.192C182.346 44.192 180.619 46.0361 180.619 48.4403C180.619 50.8446 182.416 52.6886 184.844 52.6886ZM184.844 51.965C182.953 51.965 181.436 50.4944 181.436 48.4403C181.436 46.3862 182.953 44.9156 184.844 44.9156C186.758 44.9156 188.275 46.4095 188.275 48.4403C188.275 50.4711 186.758 51.965 184.844 51.965ZM185.054 46.8997C185.591 46.8997 185.871 47.2965 185.871 47.7401C185.871 48.1369 185.591 48.487 185.054 48.487H184.237V46.8997H185.054ZM185.591 49.1172C186.268 48.8838 186.688 48.417 186.688 47.7167C186.688 46.853 186.011 46.1761 185.054 46.1761H183.42V50.6111H184.237V49.2106H184.75L185.637 50.6111H186.571L185.591 49.1172Z" fill="black"/>
</svg>
