<svg width="94" height="38" viewBox="0 0 94 38" fill="none" xmlns="http://www.w3.org/2000/svg">
<path d="M86.931 29.0889H91.6501V3.40803H86.931V29.0889ZM69.5066 19.3488C69.5066 16.1355 71.4493 13.6804 74.5714 13.6804C77.5546 13.6804 79.6708 16.0994 79.6708 19.3488C79.6708 22.6344 77.6588 25.0534 74.5714 25.0534C71.5533 25.0534 69.5066 22.6344 69.5066 19.3488ZM79.8852 28.7726H84.3899V9.96141H79.8148V11.649C78.8647 10.5941 76.8587 9.64482 74.3599 9.64482C68.6235 9.64482 64.7875 13.7939 64.7875 19.3494C64.7875 25.1861 68.6587 29.0889 74.3599 29.0889C77.3866 29.0889 79.1814 27.8233 79.8852 26.909V28.7726ZM60.702 6.70986H56.061V9.90689H54.2603V14.134H56.061V23.6184C56.061 27.3838 58.0005 29.0889 61.7063 29.0889C62.9533 29.0889 63.8883 28.9468 64.0615 28.9114V24.7197H63.057C61.2908 24.7197 60.702 24.0091 60.702 22.162V14.134H63.9575V9.90689H60.702V6.70986ZM52.8082 10.0826C52.7037 10.0471 52.5292 10.0117 52.1805 10.0117C50.2276 10.0117 49.4953 11.2173 49.1814 11.6783V10.1182H44.8221V29.0889H49.4953V17.7063C49.4953 15.7916 50.2276 14.6569 52.8082 14.4795V10.0826ZM28.1237 19.3851C28.1237 16.0939 30.1146 13.6804 33.1884 13.6804C36.1922 13.6804 38.2879 16.1305 38.2879 19.3851C38.2879 22.6398 36.297 25.0534 33.2233 25.0534C30.2194 25.0534 28.1237 22.6764 28.1237 19.3851ZM23.4046 19.4197C23.4046 24.9751 27.332 29.0889 33.1883 29.0889C38.9743 29.0889 43.007 24.8697 43.007 19.3494C43.007 13.7939 39.1145 9.64482 33.1883 9.64482C27.5424 9.64482 23.4046 13.8291 23.4046 19.4197ZM7.0692 19.3849C7.0692 16.0994 8.99871 13.6804 12.1341 13.6804C15.2005 13.6804 17.2334 16.0994 17.2334 19.3849C17.2334 22.6704 15.3039 25.0534 12.1685 25.0534C9.10202 25.0534 7.0692 22.6704 7.0692 19.3849ZM7.04903 27.3287C7.92569 28.1196 9.74928 29.1623 12.3442 29.1623C18.3057 29.1623 21.9525 24.7397 21.9525 19.1661C21.9525 13.3771 18.2354 9.27795 12.5547 9.27795C9.15315 9.27795 7.54001 10.7524 6.90883 11.4714V9.60171H2.3501V34.592H7.04903V27.3287Z" fill="#1B365D"/>
</svg>
