<svg width="96" height="34" viewBox="0 0 96 34" fill="none" xmlns="http://www.w3.org/2000/svg">
<path d="M17.2906 17V9.27391H11.3775L8.22606 6.10554V0.209343H0.5V7.9354H6.41314L9.5815 11.1038V15.187L6.41314 18.3554H0.5V26.0815H8.22606V20.1853L11.3944 17.0169H17.2906V17ZM3.07535 2.7847H5.6507V5.36005H3.07535V2.7847ZM5.6507 23.4892H3.07535V20.9138H5.6507V23.4892Z" fill="#FFAE1A"/>
<path d="M25.8465 33.7907H22.4409V17H25.8465V18.0166C26.3887 17.3558 27.6086 16.729 28.9132 16.729C32.4882 16.729 34.5044 19.694 34.5044 23.1504C34.5044 26.6068 32.4712 29.5379 28.9132 29.5379C27.5916 29.5379 26.3887 28.911 25.8465 28.2503V33.7907ZM25.8465 25.1497C26.2839 26.0214 27.1754 26.5721 28.1507 26.5729C29.9975 26.5729 31.0819 25.0988 31.0819 23.1504C31.0819 21.168 29.9806 19.694 28.1507 19.694C27.177 19.7003 26.2881 20.2493 25.8465 21.1172V25.1497ZM46.8559 29.2668H43.4504V28.1486C42.5998 29.0567 41.4076 29.5667 40.1634 29.5549C37.4186 29.5549 35.8599 27.742 35.8599 25.0311V17.017H39.2654V24.3364C39.2654 25.6241 39.8923 26.5051 41.2478 26.5051C42.2982 26.5051 43.1962 25.8782 43.4504 24.8108V17.017H46.8729V29.2668H46.8559ZM52.5149 33.7907H49.1094V17H52.5149V18.0166C53.0571 17.3558 54.277 16.729 55.5816 16.729C59.1566 16.729 61.1729 19.694 61.1729 23.1504C61.1729 26.6068 59.1397 29.5379 55.5816 29.5379C54.2601 29.5379 53.0571 28.911 52.5149 28.2503V33.7907ZM52.5149 25.1497C52.9523 26.0214 53.8439 26.5721 54.8192 26.5729C56.666 26.5729 57.7504 25.0988 57.7504 23.1504C57.7504 21.168 56.649 19.694 54.8192 19.694C53.8454 19.7003 52.9565 20.2493 52.5149 21.1172V25.1497ZM66.0694 33.7907H62.6639V17H66.0694V18.0166C66.6116 17.3558 67.8315 16.729 69.1361 16.729C72.7111 16.729 74.7273 19.694 74.7273 23.1504C74.7273 26.6068 72.6942 29.5379 69.1361 29.5379C67.8146 29.5379 66.6116 28.911 66.0694 28.2503V33.7907ZM66.0694 25.1497C66.5068 26.0214 67.3983 26.5721 68.3737 26.5729C70.2205 26.5729 71.3048 25.0988 71.3048 23.1504C71.3048 21.168 70.2035 19.694 68.3737 19.694C67.3999 19.7003 66.511 20.2493 66.0694 21.1172V25.1497ZM86.9433 25.2513C86.5028 27.8606 84.5882 29.5379 81.5046 29.5379C77.9296 29.5379 75.5576 26.9287 75.5576 23.1504C75.5576 19.4398 78.0312 16.729 81.4538 16.729C85.0457 16.729 87.028 19.2196 87.028 22.8285V23.8789H78.8445C78.9462 25.7257 79.9967 26.8101 81.5046 26.8101C82.6567 26.8101 83.5039 26.3187 83.775 25.2683H86.9433V25.2513ZM78.9292 21.7949H83.6733C83.6394 20.5073 82.877 19.4907 81.4707 19.4907C80.1661 19.4907 79.2342 20.287 78.9292 21.7949ZM89.2476 19.7448H87.3838V17H89.2476V13.6792H92.6193V17H95.3132V19.7448H92.6193V25.1158C92.6193 26.0815 93.1445 26.5221 94.0255 26.5221C94.5442 26.5188 95.0527 26.3786 95.4996 26.1154V29.1313C95.0252 29.3855 94.2119 29.521 93.297 29.521C90.8064 29.521 89.2306 28.2841 89.2306 25.5732V19.7448H89.2476Z" fill="black"/>
</svg>
