<svg width="400" height="1000" viewBox="0 0 400 1000" fill="none" xmlns="http://www.w3.org/2000/svg">
<path fill-rule="evenodd" clip-rule="evenodd" d="M403.268 1132.15C395.65 1132.19 389.399 1138.54 388.897 1152.18C386.143 1246.5 368.014 1289.77 366.044 1434.48C364.697 1533.38 325.704 1585.29 338.93 1645.06C373.48 1801.03 305.987 1878.1 344.638 2011.17C358.607 2059.55 355.371 2102.02 355.733 2151.51C355.833 2167.18 350.165 2175.76 333.442 2176H251.799C235.278 2175.52 233.75 2161.78 240.946 2150.44C284.038 2082.75 286.551 2028.08 263.839 1952.93C212.646 1783.6 211.48 1695.18 224.625 1575.22C231.217 1515.1 226.876 1475.46 217.61 1425.89C202.234 1343.52 191.843 1250.77 192.848 1166.02C193.873 1079.59 198.255 1025.5 215.238 936.432C228.363 867.616 220.927 846.997 231.639 788.955C244.764 717.698 224.625 653.523 204.686 591.224C198.998 623.806 195.3 642.729 188.607 682.453C165.674 818.309 82.2415 906.149 77.9202 1052.31C76.4931 1100.57 65.4584 1106.1 55.5495 1134.1C49.6403 1150.77 48.8363 1173.24 56.8559 1203.32C64.6745 1232.7 49.1779 1245.75 33.9627 1221.58C1.98472 1170.78 -4.44706 1159.7 4.11524 1124.42C49.2181 938.167 29.5007 831.745 79.5681 697.241C102.863 634.7 89.236 608.937 106.381 517.445C110.3 496.504 112.35 474.534 114.44 453.25C120.691 389.619 136.992 344.185 204.043 328.812C268.864 313.944 346.969 307.024 351.09 220.979H455.445C459.566 307.024 537.692 313.944 602.492 328.812C669.543 344.185 685.864 389.619 692.095 453.25C694.185 474.534 696.235 496.504 700.154 517.445C717.319 608.937 703.692 634.7 726.967 697.241C777.034 831.745 757.317 938.167 802.44 1124.42C810.982 1159.7 804.57 1170.78 772.592 1221.58C757.377 1245.75 741.861 1232.7 749.679 1203.32C757.699 1173.24 756.895 1150.77 751.006 1134.1C741.077 1106.1 730.042 1100.57 728.615 1052.31C724.294 906.149 640.882 818.309 617.948 682.453C611.235 642.729 607.557 623.806 601.849 591.224C581.91 653.523 561.771 717.698 574.916 788.955C585.609 846.997 578.172 867.616 591.297 936.432C608.281 1025.5 612.662 1079.59 613.687 1166.02C614.692 1250.77 604.301 1343.52 588.925 1425.89C579.659 1475.46 575.318 1515.1 581.91 1575.22C595.055 1695.18 593.89 1783.6 542.717 1952.93C519.984 2028.08 522.497 2082.75 565.589 2150.44C572.805 2161.78 571.258 2175.52 554.736 2176H473.113C456.39 2175.76 450.702 2167.18 450.822 2151.51C451.184 2102.02 447.928 2059.55 461.917 2011.17C500.548 1878.1 433.055 1801.03 467.605 1645.06C480.831 1585.29 441.858 1533.38 440.512 1434.48C438.542 1289.77 420.412 1246.5 417.659 1152.18C417.136 1138.54 410.905 1132.19 403.268 1132.15Z" fill="#EBEBEB"/>
<path fill-rule="evenodd" clip-rule="evenodd" d="M403.269 -69.9998C458.04 -69.9998 503.565 -45.6892 508.308 14.0882C509.976 37.6925 504.831 67.0264 503.042 78.6671C502.037 85.123 501.917 89.1983 507.243 89.3396C514.921 89.5615 519.423 97.3892 516.046 111.148C511.162 131.141 502.6 141.108 499.082 158.316C497.494 166.084 494.56 172.782 487.284 171.249C484.973 184.665 482.299 194.328 471.526 206.13C459.808 218.376 449.518 229.957 436.815 240.548C427.991 247.912 416.776 251.544 403.269 251.544C389.782 251.544 378.547 247.912 369.723 240.548C357.041 229.957 346.73 218.376 335.012 206.13C324.239 194.328 321.565 184.665 319.254 171.249C311.978 172.782 309.064 166.084 307.456 158.316C303.959 141.108 295.376 131.141 290.492 111.148C287.135 97.3892 291.637 89.5615 299.295 89.3396C304.642 89.1983 304.521 85.123 303.496 78.6671C300.381 58.8556 287.196 -14.6203 317.023 -19.3008C315.676 -59.3272 373.2 -69.9998 403.269 -69.9998Z" fill="white"/>
</svg>
