<svg width="24" height="20" viewBox="0 0 24 20" fill="none" xmlns="http://www.w3.org/2000/svg">
<path d="M11.8282 6.08589C11.7791 5.88957 11.681 5.38896 11.681 4.95706C11.681 2.74847 13.3006 0 16.6871 0C18.5718 0 19.8609 1.04703 20.2699 1.57055C20.8916 1.47239 22.3804 1.07975 23.362 0.294479C22.8908 1.62945 21.726 2.65031 21.2025 2.99387C21.6442 3.02658 22.8221 2.92515 24 2.25767C23.3325 3.39632 22.0859 4.40082 21.546 4.76074C21.7423 6.57669 21.3497 11.092 18.2086 14.6258C14.2822 19.0429 7.21472 21.7423 0 17.3252C3.65153 17.6393 6.33129 16.1472 7.21472 15.362C6.03681 15.3292 3.47485 14.5865 2.65031 11.8773C3.51411 12.1914 4.48262 12.0082 4.8589 11.8773C3.58282 11.5992 1.02086 10.2184 0.981595 6.92025C1.92393 7.58773 2.87935 7.52556 3.23926 7.41104C2.01227 6.62577 -0.019632 4.22086 1.66871 0.883436C5.88957 6.28221 11.092 6.08589 11.8282 6.08589Z" fill="#1F0048"/>
</svg>
