<svg width="16" height="15" viewBox="0 0 16 15" fill="none" xmlns="http://www.w3.org/2000/svg">
<path fill-rule="evenodd" clip-rule="evenodd" d="M6.05052 1.2522C6.91677 -0.247803 9.08277 -0.247803 9.94827 1.2522L15.4645 10.8132C16.33 12.3132 15.247 14.1882 13.5153 14.1882H2.48352C0.751768 14.1882 -0.330482 12.3132 0.535018 10.8132L6.04977 1.2522H6.05052ZM7.99977 5.18745C8.14895 5.18745 8.29203 5.24671 8.39751 5.3522C8.503 5.45769 8.56227 5.60076 8.56227 5.74995V8.56245C8.56227 8.71163 8.503 8.8547 8.39751 8.96019C8.29203 9.06568 8.14895 9.12495 7.99977 9.12495C7.85058 9.12495 7.70751 9.06568 7.60202 8.96019C7.49653 8.8547 7.43727 8.71163 7.43727 8.56245V5.74995C7.43727 5.60076 7.49653 5.45769 7.60202 5.3522C7.70751 5.24671 7.85058 5.18745 7.99977 5.18745ZM7.99977 11.3749C8.14895 11.3749 8.29203 11.3157 8.39751 11.2102C8.503 11.1047 8.56227 10.9616 8.56227 10.8124C8.56227 10.6633 8.503 10.5202 8.39751 10.4147C8.29203 10.3092 8.14895 10.2499 7.99977 10.2499C7.85058 10.2499 7.70751 10.3092 7.60202 10.4147C7.49653 10.5202 7.43727 10.6633 7.43727 10.8124C7.43727 10.9616 7.49653 11.1047 7.60202 11.2102C7.70751 11.3157 7.85058 11.3749 7.99977 11.3749Z" fill="#FD3A3A"/>
</svg>
