<svg width="225" height="142" viewBox="0 0 225 142" fill="none" xmlns="http://www.w3.org/2000/svg">
<g filter="url(#filter0_bd_234_216)">
<path d="M40.8516 109C38.8516 110 39.3516 112 42.3516 112C45.3516 112 58.3516 109.5 67.3516 105C76.3516 100.5 90.8516 92 98.8516 76C106.852 60 106.352 42.5 96.3516 29C86.3516 15.5 71.8516 10 60.3516 10C48.8516 10 35.3516 14 25.3516 26.5C15.3516 39 10.8516 59 19.8516 75.5C28.8516 92 46.8516 96.5 46.8516 102.5C46.8516 105 42.8517 108 40.8516 109Z" fill="white" fill-opacity="0.2" shape-rendering="crispEdges"/>
<path d="M135.852 109C133.852 110 134.352 112 137.352 112C140.352 112 153.352 109.5 162.352 105C171.352 100.5 185.852 92 193.852 76C201.852 60 201.352 42.5 191.352 29C181.352 15.5 166.852 9.99999 155.352 9.99999C143.852 9.99999 130.352 14 120.352 26.5C110.352 39 105.852 59 114.852 75.5C123.852 92 141.852 96.5 141.852 102.5C141.852 105 137.852 108 135.852 109Z" fill="white" fill-opacity="0.2" shape-rendering="crispEdges"/>
</g>
<defs>
<filter id="filter0_bd_234_216" x="-85" y="-90" width="384.398" height="302" filterUnits="userSpaceOnUse" color-interpolation-filters="sRGB">
<feFlood flood-opacity="0" result="BackgroundImageFix"/>
<feGaussianBlur in="BackgroundImageFix" stdDeviation="50"/>
<feComposite in2="SourceAlpha" operator="in" result="effect1_backgroundBlur_234_216"/>
<feColorMatrix in="SourceAlpha" type="matrix" values="0 0 0 0 0 0 0 0 0 0 0 0 0 0 0 0 0 0 127 0" result="hardAlpha"/>
<feOffset dx="5" dy="10"/>
<feGaussianBlur stdDeviation="10"/>
<feComposite in2="hardAlpha" operator="out"/>
<feColorMatrix type="matrix" values="0 0 0 0 0.202066 0 0 0 0 0.421062 0 0 0 0 0.470833 0 0 0 0.19 0"/>
<feBlend mode="normal" in2="effect1_backgroundBlur_234_216" result="effect2_dropShadow_234_216"/>
<feBlend mode="normal" in="SourceGraphic" in2="effect2_dropShadow_234_216" result="shape"/>
</filter>
</defs>
</svg>
