<svg width="129" height="34" viewBox="0 0 129 34" fill="none" xmlns="http://www.w3.org/2000/svg">
<path d="M64.3599 9.91667C59.5224 9.91667 56.0345 13.1042 56.0345 17.8854C56.0345 22.6667 59.9606 25.8542 64.7981 25.8542C67.7207 25.8542 70.2972 24.6854 71.8922 22.7154L68.5401 20.7586C67.655 21.737 66.3098 22.3081 64.7981 22.3081C62.6992 22.3081 60.9158 21.2013 60.2542 19.4305H72.5319C72.6283 18.9346 72.6853 18.4211 72.6853 17.881C72.6853 13.1042 69.1974 9.91667 64.3599 9.91667ZM60.2147 16.3359C60.7624 14.5695 62.261 13.4583 64.3555 13.4583C66.4544 13.4583 67.953 14.5695 68.4963 16.3359H60.2147ZM111.543 9.91667C106.706 9.91667 103.218 13.1042 103.218 17.8854C103.218 22.6667 107.144 25.8542 111.981 25.8542C114.904 25.8542 117.48 24.6854 119.075 22.7154L115.723 20.7586C114.838 21.737 113.493 22.3081 111.981 22.3081C109.882 22.3081 108.099 21.2013 107.437 19.4305H119.715C119.812 18.9346 119.868 18.4211 119.868 17.881C119.868 13.1042 116.381 9.91667 111.543 9.91667ZM107.402 16.3359C107.95 14.5695 109.449 13.4583 111.543 13.4583C113.642 13.4583 115.141 14.5695 115.684 16.3359H107.402ZM90.3001 17.8854C90.3001 20.5417 92.0178 22.3125 94.6819 22.3125C96.4872 22.3125 97.8412 21.4846 98.5379 20.1344L101.903 22.0956C100.51 24.4419 97.8981 25.8542 94.6819 25.8542C89.84 25.8542 86.3565 22.6667 86.3565 17.8854C86.3565 13.1042 89.8444 9.91667 94.6819 9.91667C97.8981 9.91667 100.505 11.3289 101.903 13.6753L98.5379 15.6365C97.8412 14.2862 96.4872 13.4583 94.6819 13.4583C92.0222 13.4583 90.3001 15.2292 90.3001 17.8854ZM126.441 5.04687V25.4115H122.498V5.04687H126.441ZM18.7498 2.83333L34.9405 31.1667H2.55908L18.7498 2.83333ZM59.2288 5.04687L47.0869 26.2969L34.9449 5.04687H39.4976L47.0869 18.3281L54.6761 5.04687H59.2288ZM85.042 10.3594V14.6492C84.6038 14.5208 84.1393 14.4323 83.6398 14.4323C81.094 14.4323 79.258 16.2031 79.258 18.8594V25.4115H75.3144V10.3594H79.258V14.4323C79.258 12.1833 81.8476 10.3594 85.042 10.3594Z" fill="black"/>
</svg>
